<!-- MAQ-07 | Dashboard Admin | Link's Accompagnement | v3.0 | hybride | 2026-03-26 -->
<svg xmlns="http://www.w3.org/2000/svg" viewBox="0 0 1440 900" font-family="Inter, system-ui, sans-serif">
  <defs>
    <linearGradient id="sidebarGrad" x1="0" y1="0" x2="0" y2="1">
      <stop offset="0%" stop-color="#0D3B6E"/>
      <stop offset="100%" stop-color="#0A2E56"/>
    </linearGradient>
    <filter id="hybShadow" x="-2%" y="-2%" width="104%" height="108%">
      <feDropShadow dx="0" dy="2" stdDeviation="4" flood-color="#0D3B6E" flood-opacity="0.08"/>
    </filter>
    <filter id="hybShadow2" x="-2%" y="-2%" width="104%" height="110%">
      <feDropShadow dx="0" dy="3" stdDeviation="6" flood-color="#0D3B6E" flood-opacity="0.1"/>
    </filter>
    <clipPath id="clip-main"><rect x="220" y="0" width="1220" height="900"/></clipPath>
  </defs>

  <!-- Background -->
  <rect width="1440" height="900" fill="#F7F9FC"/>

  <!-- ==================== SIDEBAR ==================== -->
  <rect x="0" y="0" width="220" height="900" fill="url(#sidebarGrad)"/>

  <!-- Logo -->
  <text x="48" y="38" font-size="14" font-weight="700" fill="#FFFFFF">Link's</text>
  <text x="48" y="54" font-size="11" fill="#8AB4D9">Accompagnement</text>
  <polygon points="26,26 40,38 26,50" fill="#FF6B35"/>

  <!-- Divider -->
  <line x1="18" y1="68" x2="202" y2="68" stroke="#16497B" stroke-width="1"/>

  <!-- Nav: Dashboard (active) -->
  <rect x="8" y="80" width="204" height="44" rx="10" fill="#16497B"/>
  <rect x="8" y="80" width="3" height="44" rx="1.5" fill="#FF6B35"/>
  <rect x="28" y="93" width="18" height="18" rx="4" fill="none" stroke="#FFFFFF" stroke-width="1.5"/>
  <rect x="32" y="97" width="4" height="4" rx="1" fill="#FFFFFF"/>
  <rect x="38" y="97" width="4" height="4" rx="1" fill="#FFFFFF"/>
  <rect x="32" y="103" width="4" height="4" rx="1" fill="#FFFFFF"/>
  <rect x="38" y="103" width="4" height="4" rx="1" fill="#FFFFFF"/>
  <text x="56" y="108" font-size="13" font-weight="600" fill="#FFFFFF">Dashboard</text>

  <!-- Nav: Utilisateurs -->
  <g opacity="0.6">
    <circle cx="37" cy="148" r="8" fill="none" stroke="#FFFFFF" stroke-width="1.5"/>
    <circle cx="37" cy="144" r="3.2" fill="none" stroke="#FFFFFF" stroke-width="1.2"/>
    <path d="M29,157 Q37,152 45,157" fill="none" stroke="#FFFFFF" stroke-width="1.2"/>
    <text x="56" y="152" font-size="13" fill="#FFFFFF">Utilisateurs</text>
  </g>

  <!-- Nav: Documents -->
  <g opacity="0.6">
    <rect x="29" y="172" width="15" height="19" rx="2" fill="none" stroke="#FFFFFF" stroke-width="1.5"/>
    <line x1="33" y1="180" x2="41" y2="180" stroke="#FFFFFF" stroke-width="1.2"/>
    <line x1="33" y1="185" x2="41" y2="185" stroke="#FFFFFF" stroke-width="1.2"/>
    <text x="56" y="186" font-size="13" fill="#FFFFFF">Documents</text>
  </g>

  <!-- Sidebar footer -->
  <text x="110" y="878" font-size="10" fill="#6B9BC7" text-anchor="middle">v1.0.0 — 2026</text>

  <!-- ==================== HEADER ==================== -->
  <rect x="220" y="0" width="1220" height="64" fill="#FFFFFF"/>
  <line x1="220" y1="64" x2="1440" y2="64" stroke="#E2E8F0" stroke-width="1"/>

  <!-- Breadcrumb -->
  <text x="252" y="30" font-size="11" fill="#8899AA">Administration</text>
  <text x="252" y="48" font-size="16" font-weight="700" fill="#1A2B3C">Dashboard</text>

  <!-- Right header -->
  <!-- Bell -->
  <g transform="translate(1200,22)">
    <path d="M0,16 Q0,6 8,4 L8,2 Q8,0 10,0 Q12,0 12,2 L12,4 Q20,6 20,16 L20,18 L0,18Z" fill="none" stroke="#6B7B8D" stroke-width="1.5"/>
    <circle cx="16" cy="6" r="7" fill="#EF4444"/>
    <text x="16" y="9" font-size="9" font-weight="700" fill="#FFFFFF" text-anchor="middle">2</text>
  </g>

  <!-- Déconnexion -->
  <rect x="1240" y="18" width="96" height="30" rx="10" fill="#F7F9FC" stroke="#E2E8F0" stroke-width="1"/>
  <text x="1288" y="37" font-size="11" fill="#6B7B8D" text-anchor="middle">Déconnexion</text>

  <!-- Avatar -->
  <circle cx="1366" cy="32" r="16" fill="#1E6FC0"/>
  <text x="1366" y="37" font-size="13" font-weight="700" fill="#FFFFFF" text-anchor="middle">A</text>

  <!-- User info -->
  <text x="1391" y="28" font-size="11" font-weight="600" fill="#1A2B3C">Administrateur</text>
  <text x="1391" y="42" font-size="10" fill="#8899AA">super_admin</text>

  <!-- ==================== MAIN CONTENT ==================== -->
  <g clip-path="url(#clip-main)">

  <!-- Title -->
  <text x="252" y="102" font-size="20" font-weight="700" fill="#1A2B3C">Vue d'ensemble — Link's Accompagnement</text>
  <text x="252" y="122" font-size="12" fill="#8899AA">Données au 23 mars 2026 · Actualisation automatique toutes les 5 min</text>

  <!-- ==================== KPI CARDS ==================== -->
  <!-- Card 1 -->
  <rect x="252" y="140" width="272" height="108" rx="12" fill="#FFFFFF" filter="url(#hybShadow)"/>
  <circle cx="284" cy="174" r="20" fill="#EBF3FC"/>
  <circle cx="284" cy="170" r="5.5" fill="none" stroke="#1E6FC0" stroke-width="1.8"/>
  <path d="M275,183 Q284,178 293,183" fill="none" stroke="#1E6FC0" stroke-width="1.8"/>
  <circle cx="290" cy="172" r="3" fill="none" stroke="#1E6FC0" stroke-width="1.2"/>
  <text x="316" y="178" font-size="28" font-weight="800" fill="#1A2B3C">12</text>
  <text x="316" y="198" font-size="12" fill="#6B7B8D">Bénéficiaires actifs</text>
  <rect x="316" y="208" width="92" height="22" rx="11" fill="#EBF3FC"/>
  <text x="362" y="223" font-size="11" font-weight="600" fill="#1E6FC0" text-anchor="middle">↑ +2 ce mois</text>

  <!-- Card 2 -->
  <rect x="540" y="140" width="272" height="108" rx="12" fill="#FFFFFF" filter="url(#hybShadow)"/>
  <circle cx="572" cy="174" r="20" fill="#FFF4ED"/>
  <rect x="563" y="166" width="18" height="16" rx="2" fill="none" stroke="#FF6B35" stroke-width="1.8"/>
  <polyline points="566,178 572,170 577,175 581,167" fill="none" stroke="#FF6B35" stroke-width="1.8"/>
  <text x="604" y="178" font-size="28" font-weight="800" fill="#1A2B3C">47%</text>
  <text x="604" y="198" font-size="12" fill="#6B7B8D">Taux d'avancement moyen</text>
  <rect x="604" y="210" width="168" height="6" rx="3" fill="#F0F0F0"/>
  <rect x="604" y="210" width="79" height="6" rx="3" fill="#FF6B35"/>

  <!-- Card 3 -->
  <rect x="828" y="140" width="272" height="108" rx="12" fill="#FFFFFF" filter="url(#hybShadow)"/>
  <circle cx="860" cy="174" r="20" fill="#ECFDF5"/>
  <path d="M851,174 L858,181 L871,167" fill="none" stroke="#22C55E" stroke-width="2.5" stroke-linecap="round" stroke-linejoin="round"/>
  <text x="892" y="178" font-size="28" font-weight="800" fill="#1A2B3C">3</text>
  <text x="892" y="198" font-size="12" fill="#6B7B8D">Bilans terminés</text>
  <rect x="892" y="208" width="132" height="22" rx="11" fill="#ECFDF5"/>
  <text x="958" y="223" font-size="11" font-weight="600" fill="#22C55E" text-anchor="middle">sur 12 actifs · 25%</text>

  <!-- Card 4 -->
  <rect x="1116" y="140" width="272" height="108" rx="12" fill="#FFFFFF" filter="url(#hybShadow)"/>
  <circle cx="1148" cy="174" r="20" fill="#EBF3FC"/>
  <polygon points="1148,158 1151,168 1161,168 1153,174 1156,184 1148,178 1140,184 1143,174 1135,168 1145,168" fill="#1E6FC0"/>
  <text x="1180" y="178" font-size="28" font-weight="800" fill="#1A2B3C">2</text>
  <text x="1180" y="198" font-size="12" fill="#6B7B8D">Consultantes actives</text>
  <rect x="1180" y="208" width="112" height="22" rx="11" fill="#EBF3FC"/>
  <text x="1236" y="223" font-size="11" font-weight="600" fill="#1E6FC0" text-anchor="middle">Charge normale</text>

  <!-- ==================== SECTION TITLE ==================== -->
  <text x="252" y="290" font-size="16" font-weight="700" fill="#1A2B3C">Activité bénéficiaires</text>
  <text x="252" y="308" font-size="12" fill="#8899AA">Suivi en temps réel · 12 bénéficiaires actifs</text>

  <!-- ==================== ACTION BAR ==================== -->
  <rect x="252" y="322" width="280" height="36" rx="10" fill="#FFFFFF" stroke="#E2E8F0" stroke-width="1"/>
  <circle cx="272" cy="340" r="8" fill="none" stroke="#8899AA" stroke-width="1.5"/>
  <line x1="278" y1="346" x2="283" y2="351" stroke="#8899AA" stroke-width="1.5"/>
  <text x="290" y="344" font-size="12" fill="#AABBCC">Rechercher…</text>

  <rect x="1278" y="322" width="110" height="36" rx="10" fill="#1E6FC0"/>
  <path d="M1300,336 L1300,346 M1295,341 L1300,346 L1305,341" fill="none" stroke="#FFFFFF" stroke-width="1.5" stroke-linecap="round"/>
  <text x="1316" y="344" font-size="12" font-weight="600" fill="#FFFFFF">Exporter CSV</text>

  <!-- ==================== DATA TABLE ==================== -->
  <rect x="252" y="370" width="1136" height="370" rx="12" fill="#FFFFFF" filter="url(#hybShadow2)"/>

  <!-- Table header -->
  <rect x="252" y="370" width="1136" height="40" rx="12" fill="#F7F9FC"/>
  <rect x="252" y="400" width="1136" height="10" fill="#F7F9FC"/>
  <text x="274" y="396" font-size="10" font-weight="700" fill="#6B7B8D" letter-spacing="0.5">BÉNÉFICIAIRE</text>
  <text x="470" y="396" font-size="10" font-weight="700" fill="#6B7B8D" letter-spacing="0.5">CONSULTANTE</text>
  <text x="668" y="396" font-size="10" font-weight="700" fill="#6B7B8D" letter-spacing="0.5">PROGRESSION</text>
  <text x="868" y="396" font-size="10" font-weight="700" fill="#6B7B8D" letter-spacing="0.5">DERNIÈRE CONNEXION</text>
  <text x="1088" y="396" font-size="10" font-weight="700" fill="#6B7B8D" letter-spacing="0.5">STATUT</text>
  <text x="1178" y="396" font-size="10" font-weight="700" fill="#6B7B8D" letter-spacing="0.5">ACTION</text>

  <!-- Row 1: Sophie Martin -->
  <line x1="274" y1="410" x2="1366" y2="410" stroke="#F0F2F5" stroke-width="1"/>
  <circle cx="290" cy="438" r="16" fill="#1E6FC0"/>
  <text x="290" y="443" font-size="10" font-weight="700" fill="#FFFFFF" text-anchor="middle">SM</text>
  <text x="316" y="432" font-size="13" font-weight="600" fill="#1A2B3C">Sophie Martin</text>
  <text x="316" y="448" font-size="10" fill="#8899AA">sophie.martin@email.fr</text>
  <text x="470" y="432" font-size="12" fill="#1A2B3C">Claire Dupont</text>
  <text x="470" y="448" font-size="10" fill="#8899AA">Consultante senior</text>
  <text x="668" y="432" font-size="12" font-weight="700" fill="#1A2B3C">72%</text>
  <rect x="698" y="426" width="118" height="6" rx="3" fill="#F0F0F0"/>
  <rect x="698" y="426" width="85" height="6" rx="3" fill="#22C55E"/>
  <text x="868" y="432" font-size="11" fill="#1A2B3C">Aujourd'hui, 10:24</text>
  <text x="868" y="448" font-size="10" fill="#8899AA">il y a 2 heures</text>
  <rect x="1088" y="425" width="52" height="22" rx="11" fill="#ECFDF5"/>
  <text x="1114" y="440" font-size="10" font-weight="600" fill="#22C55E" text-anchor="middle">Actif</text>
  <text x="1178" y="440" font-size="11" font-weight="600" fill="#1E6FC0">Voir le dossier →</text>

  <!-- Row 2: Thomas Leroy -->
  <line x1="274" y1="464" x2="1366" y2="464" stroke="#F0F2F5" stroke-width="1"/>
  <circle cx="290" cy="492" r="16" fill="#6B9BC7"/>
  <text x="290" y="497" font-size="10" font-weight="700" fill="#FFFFFF" text-anchor="middle">TL</text>
  <text x="316" y="486" font-size="13" font-weight="600" fill="#1A2B3C">Thomas Leroy</text>
  <text x="316" y="502" font-size="10" fill="#8899AA">thomas.leroy@email.fr</text>
  <text x="470" y="486" font-size="12" fill="#1A2B3C">Isabelle Morel</text>
  <text x="470" y="502" font-size="10" fill="#8899AA">Consultante</text>
  <text x="668" y="486" font-size="12" font-weight="700" fill="#1A2B3C">45%</text>
  <rect x="698" y="480" width="118" height="6" rx="3" fill="#F0F0F0"/>
  <rect x="698" y="480" width="53" height="6" rx="3" fill="#FF6B35"/>
  <text x="868" y="486" font-size="11" fill="#1A2B3C">Hier, 15:47</text>
  <text x="868" y="502" font-size="10" fill="#8899AA">il y a 1 jour</text>
  <rect x="1088" y="479" width="52" height="22" rx="11" fill="#ECFDF5"/>
  <text x="1114" y="494" font-size="10" font-weight="600" fill="#22C55E" text-anchor="middle">Actif</text>
  <text x="1178" y="494" font-size="11" font-weight="600" fill="#1E6FC0">Voir le dossier →</text>

  <!-- Row 3: Marie Blanc (ALERT) -->
  <line x1="274" y1="518" x2="1366" y2="518" stroke="#F0F2F5" stroke-width="1"/>
  <rect x="252" y="518" width="1136" height="56" fill="#FFF6F4" rx="0"/>
  <rect x="252" y="518" width="3" height="56" fill="#FF6B35"/>
  <circle cx="290" cy="546" r="16" fill="#FF8C5A"/>
  <text x="290" y="551" font-size="10" font-weight="700" fill="#FFFFFF" text-anchor="middle">MB</text>
  <text x="316" y="540" font-size="13" font-weight="600" fill="#1A2B3C">Marie Blanc</text>
  <text x="316" y="556" font-size="10" fill="#8899AA">marie.blanc@email.fr</text>
  <text x="470" y="540" font-size="12" fill="#1A2B3C">Claire Dupont</text>
  <text x="470" y="556" font-size="10" fill="#8899AA">Consultante senior</text>
  <text x="668" y="540" font-size="12" font-weight="700" fill="#1A2B3C">28%</text>
  <rect x="698" y="534" width="118" height="6" rx="3" fill="#F0F0F0"/>
  <rect x="698" y="534" width="34" height="6" rx="3" fill="#EF4444"/>
  <text x="868" y="540" font-size="11" fill="#EF4444" font-weight="600">05 mars 2026</text>
  <text x="868" y="556" font-size="10" fill="#EF4444">il y a 18 jours ⚠</text>
  <rect x="1088" y="533" width="56" height="22" rx="11" fill="#FEF2F2"/>
  <text x="1116" y="548" font-size="10" font-weight="600" fill="#EF4444" text-anchor="middle">Inactif</text>
  <circle cx="1160" cy="544" r="10" fill="#FF6B35"/>
  <text x="1160" y="549" font-size="13" font-weight="800" fill="#FFFFFF" text-anchor="middle">!</text>
  <text x="1178" y="548" font-size="11" font-weight="600" fill="#1E6FC0">Voir le dossier →</text>

  <!-- Row 4: Julien Petit -->
  <line x1="274" y1="574" x2="1366" y2="574" stroke="#F0F2F5" stroke-width="1"/>
  <circle cx="290" cy="602" r="16" fill="#1E6FC0"/>
  <text x="290" y="607" font-size="10" font-weight="700" fill="#FFFFFF" text-anchor="middle">JP</text>
  <text x="316" y="596" font-size="13" font-weight="600" fill="#1A2B3C">Julien Petit</text>
  <text x="316" y="612" font-size="10" fill="#8899AA">julien.petit@email.fr</text>
  <text x="470" y="596" font-size="12" fill="#1A2B3C">Isabelle Morel</text>
  <text x="470" y="612" font-size="10" fill="#8899AA">Consultante</text>
  <text x="668" y="596" font-size="12" font-weight="700" fill="#1A2B3C">61%</text>
  <rect x="698" y="590" width="118" height="6" rx="3" fill="#F0F0F0"/>
  <rect x="698" y="590" width="72" height="6" rx="3" fill="#1E6FC0"/>
  <text x="868" y="596" font-size="11" fill="#1A2B3C">Aujourd'hui, 08:15</text>
  <text x="868" y="612" font-size="10" fill="#8899AA">il y a 4 heures</text>
  <rect x="1088" y="589" width="52" height="22" rx="11" fill="#ECFDF5"/>
  <text x="1114" y="604" font-size="10" font-weight="600" fill="#22C55E" text-anchor="middle">Actif</text>
  <text x="1178" y="604" font-size="11" font-weight="600" fill="#1E6FC0">Voir le dossier →</text>

  <!-- Pagination -->
  <line x1="274" y1="632" x2="1366" y2="632" stroke="#F0F2F5" stroke-width="1"/>
  <text x="274" y="660" font-size="11" fill="#8899AA">Affichage de 1 à 4 sur 12 bénéficiaires</text>
  <rect x="1282" y="644" width="28" height="28" rx="10" fill="#1E6FC0"/>
  <text x="1296" y="662" font-size="11" font-weight="700" fill="#FFFFFF" text-anchor="middle">1</text>
  <rect x="1316" y="644" width="28" height="28" rx="10" fill="#FFFFFF" stroke="#E2E8F0" stroke-width="1"/>
  <text x="1330" y="662" font-size="11" fill="#6B7B8D" text-anchor="middle">2</text>
  <rect x="1350" y="644" width="28" height="28" rx="10" fill="#FFFFFF" stroke="#E2E8F0" stroke-width="1"/>
  <text x="1364" y="662" font-size="11" fill="#6B7B8D" text-anchor="middle">3</text>

  </g>

  <!-- ==================== STATUS BAR ==================== -->
  <rect x="220" y="872" width="1220" height="28" fill="#FFFFFF"/>
  <line x1="220" y1="872" x2="1440" y2="872" stroke="#E2E8F0" stroke-width="1"/>
  <circle cx="240" cy="886" r="4" fill="#22C55E"/>
  <text x="250" y="890" font-size="10" fill="#6B7B8D">Supabase connecté</text>
  <line x1="360" y1="878" x2="360" y2="894" stroke="#E2E8F0" stroke-width="1"/>
  <text x="374" y="890" font-size="10" fill="#8899AA">Dernier refresh : 23 mars 2026, 10:24:07</text>
  <line x1="590" y1="878" x2="590" y2="894" stroke="#E2E8F0" stroke-width="1"/>
  <circle cx="604" cy="886" r="4" fill="#FF6B35"/>
  <text x="614" y="890" font-size="10" fill="#FF6B35">1 alerte active (inactivité &gt; 14j)</text>
  <text x="1420" y="890" font-size="10" fill="#8899AA" text-anchor="end">Link's Accompagnement © 2026 — Unanima Platform v1.0</text>

</svg>
