<svg xmlns="http://www.w3.org/2000/svg" viewBox="0 0 1440 900" width="1440" height="900" font-family="Inter, system-ui, sans-serif">
  <defs>
    <filter id="shadow1" x="-2%" y="-2%" width="104%" height="104%">
      <feDropShadow dx="0" dy="1" stdDeviation="3" flood-opacity="0.07"/>
    </filter>
    <filter id="shadow2" x="-2%" y="-2%" width="104%" height="104%">
      <feDropShadow dx="0" dy="2" stdDeviation="6" flood-opacity="0.06"/>
    </filter>
  </defs>

  <!-- Background -->
  <rect width="1440" height="900" fill="#F7F9FC"/>

  <!-- Sidebar -->
  <rect width="220" height="900" fill="#0D3B6E"/>
  <text x="110" y="38" text-anchor="middle" fill="#FFFFFF" font-size="20" font-weight="700">Link's</text>
  <text x="110" y="56" text-anchor="middle" fill="#B0C8E8" font-size="11">Accompagnement</text>
  <polygon points="95,62 115,62 105,74" fill="#FF6B35"/>
  <line x1="20" y1="85" x2="200" y2="85" stroke="#1A4F8A" stroke-width="1"/>

  <!-- Nav items -->
  <text x="48" y="125" fill="#7BA5D4" font-size="13" font-weight="500">Dashboard</text>
  <text x="48" y="169" fill="#7BA5D4" font-size="13" font-weight="500">Mon bilan</text>
  <text x="48" y="213" fill="#7BA5D4" font-size="13" font-weight="500">Documents</text>
  <!-- Profil (active) -->
  <rect x="12" y="232" width="196" height="40" rx="10" fill="rgba(255,255,255,0.12)"/>
  <rect x="12" y="232" width="3" height="40" rx="1.5" fill="#FF6B35"/>
  <text x="48" y="257" fill="#FFFFFF" font-size="13" font-weight="600">Profil</text>

  <!-- Header -->
  <rect x="220" y="0" width="1220" height="64" fill="#FFFFFF" filter="url(#shadow1)"/>
  <text x="252" y="37" fill="#6B7280" font-size="13">Profil</text>
  <circle cx="1310" cy="32" r="16" fill="#1E6FC0"/>
  <text x="1310" y="37" text-anchor="middle" fill="#FFFFFF" font-size="11" font-weight="600">MD</text>
  <text x="1335" y="28" fill="#1F2937" font-size="13" font-weight="500">Marie Dupont</text>
  <text x="1335" y="43" fill="#6B7280" font-size="11">Bénéficiaire</text>

  <!-- Profile Card -->
  <rect x="495" y="88" width="710" height="325" rx="12" fill="#FFFFFF" filter="url(#shadow2)"/>

  <!-- Avatar -->
  <circle cx="850" cy="148" r="40" fill="#1E6FC0"/>
  <text x="850" y="158" text-anchor="middle" fill="#FFFFFF" font-size="28" font-weight="700">MD</text>

  <!-- Name -->
  <text x="850" y="214" text-anchor="middle" fill="#111827" font-size="24" font-weight="700">Marie Dupont</text>

  <!-- Role badge -->
  <rect x="800" y="224" width="100" height="26" rx="10" fill="#EBF5FF"/>
  <text x="850" y="241" text-anchor="middle" fill="#1E6FC0" font-size="12" font-weight="500">Bénéficiaire</text>

  <!-- Info rows -->
  <text x="560" y="278" fill="#9CA3AF" font-size="14">&#x2709;</text>
  <text x="582" y="278" fill="#4B5563" font-size="13">marie.dupont@email.com</text>

  <text x="560" y="304" fill="#9CA3AF" font-size="14">&#x260E;</text>
  <text x="582" y="304" fill="#4B5563" font-size="13">06 12 34 56 78</text>

  <text x="560" y="330" fill="#9CA3AF" font-size="14">&#x1F4C5;</text>
  <text x="582" y="330" fill="#4B5563" font-size="13">Membre depuis le 15 mars 2026</text>

  <text x="560" y="356" fill="#9CA3AF" font-size="14">&#x1F464;</text>
  <text x="582" y="356" fill="#4B5563" font-size="13">Consultante assignée : </text>
  <text x="742" y="356" fill="#1E6FC0" font-size="13" font-weight="500">Sophie Martin</text>

  <!-- Section: Informations personnelles -->
  <rect x="495" y="432" width="710" height="172" rx="12" fill="#FFFFFF" filter="url(#shadow2)"/>
  <text x="527" y="464" fill="#111827" font-size="16" font-weight="600">Informations personnelles</text>
  <line x1="527" y1="477" x2="1173" y2="477" stroke="#E5E7EB" stroke-width="1"/>

  <text x="527" y="502" fill="#6B7280" font-size="12" font-weight="500">Nom</text>
  <rect x="527" y="508" width="198" height="36" rx="10" fill="#F7F9FC" stroke="#E5E7EB" stroke-width="1"/>
  <text x="543" y="531" fill="#374151" font-size="13">Dupont</text>

  <text x="743" y="502" fill="#6B7280" font-size="12" font-weight="500">Prénom</text>
  <rect x="743" y="508" width="198" height="36" rx="10" fill="#F7F9FC" stroke="#E5E7EB" stroke-width="1"/>
  <text x="759" y="531" fill="#374151" font-size="13">Marie</text>

  <text x="959" y="502" fill="#6B7280" font-size="12" font-weight="500">Email</text>
  <rect x="959" y="508" width="198" height="36" rx="10" fill="#F7F9FC" stroke="#E5E7EB" stroke-width="1"/>
  <text x="975" y="531" fill="#374151" font-size="12">marie.dupont@email.com</text>

  <text x="527" y="568" fill="#9CA3AF" font-size="11" font-style="italic">Ces champs sont en lecture seule.</text>

  <!-- Section: Sécurité -->
  <rect x="495" y="620" width="710" height="110" rx="12" fill="#FFFFFF" filter="url(#shadow2)"/>
  <text x="527" y="652" fill="#111827" font-size="16" font-weight="600">Sécurité</text>
  <line x1="527" y1="665" x2="1173" y2="665" stroke="#E5E7EB" stroke-width="1"/>

  <rect x="527" y="678" width="226" height="36" rx="10" fill="#FFFFFF" stroke="#1E6FC0" stroke-width="1.5"/>
  <text x="554" y="701" fill="#1E6FC0" font-size="13" font-weight="500">Modifier mon mot de passe</text>
  <text x="773" y="701" fill="#9CA3AF" font-size="12">Dernière modification il y a 12 jours</text>

  <!-- Section: Mes données personnelles -->
  <rect x="495" y="748" width="710" height="68" rx="12" fill="#FFFFFF" filter="url(#shadow2)" stroke="#E5E7EB" stroke-width="1"/>
  <text x="527" y="777" fill="#111827" font-size="14" font-weight="600">Gérer mes données (RGPD)</text>
  <text x="527" y="797" fill="#6B7280" font-size="12">Exportez ou supprimez vos données personnelles</text>
  <text x="1173" y="787" fill="#FF6B35" font-size="18" text-anchor="end">&#x2192;</text>

  <!-- Footer note -->
  <text x="850" y="846" text-anchor="middle" fill="#9CA3AF" font-size="11" font-style="italic">Pour toute modification de vos informations, contactez votre consultante ou l'administrateur.</text>
</svg>