<!-- MAQ-08 | Gestion Utilisateurs | Link's Accompagnement | v3.0 | hybride | 2026-03-26 -->
<svg xmlns="http://www.w3.org/2000/svg" viewBox="0 0 1440 900" width="1440" height="900" font-family="Inter, system-ui, sans-serif">
  <defs>
    <filter id="shadow1" x="-2%" y="-2%" width="104%" height="108%">
      <feDropShadow dx="0" dy="2" stdDeviation="4" flood-opacity="0.07"/>
    </filter>
    <filter id="shadow2" x="-2%" y="-2%" width="104%" height="110%">
      <feDropShadow dx="0" dy="4" stdDeviation="10" flood-opacity="0.1"/>
    </filter>
    <filter id="modalShadow" x="-4%" y="-4%" width="108%" height="112%">
      <feDropShadow dx="0" dy="8" stdDeviation="20" flood-opacity="0.18"/>
    </filter>
  </defs>

  <!-- Background -->
  <rect width="1440" height="900" fill="#F7F9FC"/>

  <!-- Sidebar -->
  <rect width="220" height="900" fill="#0D3B6E"/>
  <!-- Logo -->
  <polygon points="30,32 43,52 30,52" fill="#FF6B35"/>
  <text x="53" y="44" font-size="18" font-weight="700" fill="#FFFFFF">Link's</text>
  <text x="53" y="61" font-size="11" fill="rgba(255,255,255,0.68)">Accompagnement</text>
  <line x1="18" y1="80" x2="202" y2="80" stroke="rgba(255,255,255,0.09)" stroke-width="1"/>

  <!-- Nav: Dashboard -->
  <rect x="12" y="96" width="196" height="40" rx="10" fill="transparent"/>
  <rect x="22" y="106" width="17" height="17" rx="3" fill="none" stroke="rgba(255,255,255,0.45)" stroke-width="1.5"/>
  <line x1="26" y1="115" x2="35" y2="115" stroke="rgba(255,255,255,0.45)" stroke-width="1.5"/>
  <line x1="26" y1="119" x2="32" y2="119" stroke="rgba(255,255,255,0.45)" stroke-width="1.5"/>
  <text x="52" y="121" font-size="13" fill="rgba(255,255,255,0.55)">Dashboard</text>

  <!-- Nav: Utilisateurs (active) -->
  <rect x="12" y="142" width="196" height="40" rx="10" fill="rgba(255,255,255,0.11)"/>
  <rect x="12" y="142" width="3" height="40" rx="1.5" fill="#FF6B35"/>
  <circle cx="32" cy="162" r="8" fill="none" stroke="#FFFFFF" stroke-width="1.5"/>
  <circle cx="32" cy="160" r="3" fill="none" stroke="#FFFFFF" stroke-width="1.5"/>
  <path d="M25,169 Q32,165 39,169" fill="none" stroke="#FFFFFF" stroke-width="1.5"/>
  <text x="52" y="167" font-size="13" font-weight="600" fill="#FFFFFF">Utilisateurs</text>

  <!-- Nav: Documents -->
  <rect x="12" y="188" width="196" height="40" rx="10" fill="transparent"/>
  <rect x="22" y="198" width="15" height="19" rx="2" fill="none" stroke="rgba(255,255,255,0.45)" stroke-width="1.5"/>
  <text x="52" y="213" font-size="13" fill="rgba(255,255,255,0.55)">Documents</text>

  <!-- Header -->
  <rect x="220" y="0" width="1220" height="62" fill="#FFFFFF" filter="url(#shadow1)"/>
  <text x="250" y="36" font-size="13" fill="#94A3B8">Administration</text>
  <text x="346" y="36" font-size="13" fill="#94A3B8">›</text>
  <text x="358" y="36" font-size="13" font-weight="500" fill="#1E293B">Utilisateurs</text>
  <circle cx="1340" cy="31" r="16" fill="#1E6FC0"/>
  <text x="1334" y="36" font-size="10" font-weight="600" fill="#FFFFFF">AD</text>
  <text x="1278" y="27" font-size="12" font-weight="500" fill="#1E293B" text-anchor="end">Administrateur</text>
  <text x="1278" y="41" font-size="10" fill="#94A3B8" text-anchor="end">super_admin</text>
  <text x="1380" y="36" font-size="12" fill="#94A3B8">↗</text>

  <!-- Title -->
  <text x="250" y="106" font-size="20" font-weight="700" fill="#0F172A">Gestion des utilisateurs</text>
  <text x="250" y="126" font-size="13" fill="#64748B">8 utilisateurs · 3 rôles</text>

  <!-- Action bar - balanced pills -->
  <rect x="250" y="146" width="84" height="34" rx="12" fill="#1E6FC0"/>
  <text x="292" y="168" font-size="12" font-weight="500" fill="#FFFFFF" text-anchor="middle">Tous (8)</text>

  <rect x="342" y="146" width="124" height="34" rx="12" fill="#FFFFFF" stroke="#E2E8F0" stroke-width="1"/>
  <text x="404" y="168" font-size="12" fill="#64748B" text-anchor="middle">Bénéficiaires (5)</text>

  <rect x="474" y="146" width="122" height="34" rx="12" fill="#FFFFFF" stroke="#E2E8F0" stroke-width="1"/>
  <text x="535" y="168" font-size="12" fill="#64748B" text-anchor="middle">Consultantes (2)</text>

  <rect x="604" y="146" width="84" height="34" rx="12" fill="#FFFFFF" stroke="#E2E8F0" stroke-width="1"/>
  <text x="646" y="168" font-size="12" fill="#64748B" text-anchor="middle">Admin (1)</text>

  <!-- Search -->
  <rect x="900" y="146" width="236" height="34" rx="12" fill="#FFFFFF" stroke="#E2E8F0" stroke-width="1"/>
  <text x="922" y="168" font-size="12" fill="#94A3B8">🔍 Rechercher un utilisateur…</text>

  <!-- Create button -->
  <rect x="1148" y="146" width="182" height="34" rx="12" fill="#1E6FC0"/>
  <text x="1239" y="168" font-size="12" font-weight="600" fill="#FFFFFF" text-anchor="middle">+ Créer un utilisateur</text>

  <!-- Table card -->
  <rect x="250" y="198" width="1158" height="456" rx="14" fill="#FFFFFF" filter="url(#shadow2)"/>

  <!-- Table header -->
  <rect x="250" y="198" width="1158" height="42" rx="14" fill="#F8FAFC"/>
  <rect x="250" y="232" width="1158" height="8" fill="#F8FAFC"/>
  <text x="280" y="225" font-size="11" font-weight="600" fill="#64748B" letter-spacing="0.5">UTILISATEUR</text>
  <text x="516" y="225" font-size="11" font-weight="600" fill="#64748B" letter-spacing="0.5">RÔLE</text>
  <text x="672" y="225" font-size="11" font-weight="600" fill="#64748B" letter-spacing="0.5">CONSULTANT ASSIGNÉ</text>
  <text x="872" y="225" font-size="11" font-weight="600" fill="#64748B" letter-spacing="0.5">STATUT</text>
  <text x="990" y="225" font-size="11" font-weight="600" fill="#64748B" letter-spacing="0.5">DERNIÈRE CONNEXION</text>
  <text x="1174" y="225" font-size="11" font-weight="600" fill="#64748B" letter-spacing="0.5">ACTIONS</text>

  <!-- Row 1 -->
  <rect x="250" y="240" width="1158" height="60" fill="#FFFFFF"/>
  <line x1="270" y1="300" x2="1390" y2="300" stroke="#F1F5F9" stroke-width="1"/>
  <circle cx="292" cy="270" r="16" fill="#DBEAFE"/>
  <text x="285" y="274" font-size="10" font-weight="600" fill="#1E6FC0">MD</text>
  <text x="316" y="265" font-size="13" font-weight="500" fill="#0F172A">Marie Dupont</text>
  <text x="316" y="281" font-size="11" fill="#94A3B8">marie.dupont@email.com</text>
  <rect x="516" y="258" width="90" height="24" rx="10" fill="#EFF6FF"/>
  <text x="561" y="274" font-size="11" font-weight="500" fill="#1E6FC0" text-anchor="middle">Bénéficiaire</text>
  <text x="672" y="274" font-size="12" fill="#334155">Sophie Martin</text>
  <rect x="872" y="260" width="50" height="22" rx="10" fill="#ECFDF5"/>
  <text x="897" y="275" font-size="11" font-weight="500" fill="#059669" text-anchor="middle">Actif</text>
  <text x="990" y="274" font-size="12" fill="#64748B">Aujourd'hui</text>
  <rect x="1174" y="260" width="28" height="26" rx="8" fill="#F8FAFC"/>
  <text x="1183" y="277" font-size="12" fill="#64748B">✏</text>
  <rect x="1208" y="260" width="28" height="26" rx="8" fill="#F8FAFC"/>
  <text x="1216" y="277" font-size="12" fill="#64748B">🔑</text>
  <rect x="1242" y="260" width="28" height="26" rx="8" fill="#FEF2F2"/>
  <text x="1250" y="277" font-size="12" fill="#DC2626">🗑</text>

  <!-- Row 2 -->
  <rect x="250" y="300" width="1158" height="60" fill="#F8FAFC"/>
  <line x1="270" y1="360" x2="1390" y2="360" stroke="#F1F5F9" stroke-width="1"/>
  <circle cx="292" cy="330" r="16" fill="#DBEAFE"/>
  <text x="286" y="334" font-size="10" font-weight="600" fill="#1E6FC0">JM</text>
  <text x="316" y="325" font-size="13" font-weight="500" fill="#0F172A">Jean Martin</text>
  <text x="316" y="341" font-size="11" fill="#94A3B8">jean.martin@email.com</text>
  <rect x="516" y="318" width="90" height="24" rx="10" fill="#EFF6FF"/>
  <text x="561" y="334" font-size="11" font-weight="500" fill="#1E6FC0" text-anchor="middle">Bénéficiaire</text>
  <text x="672" y="334" font-size="12" fill="#334155">Sophie Martin</text>
  <rect x="872" y="320" width="50" height="22" rx="10" fill="#ECFDF5"/>
  <text x="897" y="335" font-size="11" font-weight="500" fill="#059669" text-anchor="middle">Actif</text>
  <text x="990" y="334" font-size="12" fill="#64748B">Hier</text>
  <rect x="1174" y="320" width="28" height="26" rx="8" fill="#EFF2F5"/>
  <text x="1183" y="337" font-size="12" fill="#64748B">✏</text>
  <rect x="1208" y="320" width="28" height="26" rx="8" fill="#EFF2F5"/>
  <text x="1216" y="337" font-size="12" fill="#64748B">🔑</text>
  <rect x="1242" y="320" width="28" height="26" rx="8" fill="#FEF2F2"/>
  <text x="1250" y="337" font-size="12" fill="#DC2626">🗑</text>

  <!-- Row 3 -->
  <rect x="250" y="360" width="1158" height="60" fill="#FFFFFF"/>
  <line x1="270" y1="420" x2="1390" y2="420" stroke="#F1F5F9" stroke-width="1"/>
  <circle cx="292" cy="390" r="16" fill="#E2E8F0"/>
  <text x="286" y="394" font-size="10" font-weight="600" fill="#64748B">CB</text>
  <text x="316" y="385" font-size="13" font-weight="500" fill="#0F172A">Claire Bernard</text>
  <text x="316" y="401" font-size="11" fill="#94A3B8">claire.bernard@email.com</text>
  <rect x="516" y="378" width="90" height="24" rx="10" fill="#EFF6FF"/>
  <text x="561" y="394" font-size="11" font-weight="500" fill="#1E6FC0" text-anchor="middle">Bénéficiaire</text>
  <text x="672" y="394" font-size="12" fill="#334155">Isabelle Morel</text>
  <rect x="872" y="380" width="54" height="22" rx="10" fill="#FFF7ED"/>
  <text x="899" y="395" font-size="11" font-weight="500" fill="#D97706" text-anchor="middle">Inactif</text>
  <text x="990" y="394" font-size="12" fill="#64748B">il y a 12j</text>
  <rect x="1174" y="380" width="28" height="26" rx="8" fill="#F8FAFC"/>
  <text x="1183" y="397" font-size="12" fill="#64748B">✏</text>
  <rect x="1208" y="380" width="28" height="26" rx="8" fill="#F8FAFC"/>
  <text x="1216" y="397" font-size="12" fill="#64748B">🔑</text>
  <rect x="1242" y="380" width="28" height="26" rx="8" fill="#FEF2F2"/>
  <text x="1250" y="397" font-size="12" fill="#DC2626">🗑</text>

  <!-- Row 4 -->
  <rect x="250" y="420" width="1158" height="60" fill="#F8FAFC"/>
  <line x1="270" y1="480" x2="1390" y2="480" stroke="#F1F5F9" stroke-width="1"/>
  <circle cx="292" cy="450" r="16" fill="#D1FAE5"/>
  <text x="285" y="454" font-size="10" font-weight="600" fill="#059669">SM</text>
  <text x="316" y="445" font-size="13" font-weight="500" fill="#0F172A">Sophie Martin</text>
  <text x="316" y="461" font-size="11" fill="#94A3B8">sophie.martin@email.com</text>
  <rect x="516" y="438" width="90" height="24" rx="10" fill="#ECFDF5"/>
  <text x="561" y="454" font-size="11" font-weight="500" fill="#059669" text-anchor="middle">Consultante</text>
  <text x="672" y="454" font-size="12" fill="#94A3B8">—</text>
  <rect x="872" y="440" width="50" height="22" rx="10" fill="#ECFDF5"/>
  <text x="897" y="455" font-size="11" font-weight="500" fill="#059669" text-anchor="middle">Actif</text>
  <text x="990" y="454" font-size="12" fill="#64748B">Aujourd'hui</text>
  <rect x="1174" y="440" width="28" height="26" rx="8" fill="#EFF2F5"/>
  <text x="1183" y="457" font-size="12" fill="#64748B">✏</text>
  <rect x="1208" y="440" width="28" height="26" rx="8" fill="#EFF2F5"/>
  <text x="1216" y="457" font-size="12" fill="#64748B">🔑</text>

  <!-- Row 5 -->
  <rect x="250" y="480" width="1158" height="60" fill="#FFFFFF"/>
  <line x1="270" y1="540" x2="1390" y2="540" stroke="#F1F5F9" stroke-width="1"/>
  <circle cx="292" cy="510" r="16" fill="#D1FAE5"/>
  <text x="287" y="514" font-size="10" font-weight="600" fill="#059669">IM</text>
  <text x="316" y="505" font-size="13" font-weight="500" fill="#0F172A">Isabelle Morel</text>
  <text x="316" y="521" font-size="11" fill="#94A3B8">isabelle.morel@email.com</text>
  <rect x="516" y="498" width="90" height="24" rx="10" fill="#ECFDF5"/>
  <text x="561" y="514" font-size="11" font-weight="500" fill="#059669" text-anchor="middle">Consultante</text>
  <text x="672" y="514" font-size="12" fill="#94A3B8">—</text>
  <rect x="872" y="500" width="50" height="22" rx="10" fill="#ECFDF5"/>
  <text x="897" y="515" font-size="11" font-weight="500" fill="#059669" text-anchor="middle">Actif</text>
  <text x="990" y="514" font-size="12" fill="#64748B">Hier</text>
  <rect x="1174" y="500" width="28" height="26" rx="8" fill="#F8FAFC"/>
  <text x="1183" y="517" font-size="12" fill="#64748B">✏</text>
  <rect x="1208" y="500" width="28" height="26" rx="8" fill="#F8FAFC"/>
  <text x="1216" y="517" font-size="12" fill="#64748B">🔑</text>

  <!-- Pagination -->
  <rect x="250" y="540" width="1158" height="46" fill="#FFFFFF"/>
  <rect x="250" y="578" width="1158" height="8" rx="14" fill="#FFFFFF"/>
  <text x="280" y="570" font-size="12" fill="#64748B">1 à 5 sur 8</text>
  <rect x="1302" y="554" width="30" height="28" rx="10" fill="#1E6FC0"/>
  <text x="1317" y="572" font-size="12" font-weight="600" fill="#FFFFFF" text-anchor="middle">1</text>
  <rect x="1338" y="554" width="30" height="28" rx="10" fill="#FFFFFF" stroke="#E2E8F0" stroke-width="1"/>
  <text x="1353" y="572" font-size="12" fill="#64748B" text-anchor="middle">2</text>

  <!-- Modal overlay -->
  <rect width="1440" height="900" fill="rgba(15,23,42,0.4)"/>

  <!-- Modal -->
  <rect x="435" y="135" width="570" height="590" rx="14" fill="#FFFFFF" filter="url(#modalShadow)"/>
  <text x="470" y="177" font-size="18" font-weight="700" fill="#0F172A">Créer un utilisateur</text>
  <line x1="435" y1="198" x2="1005" y2="198" stroke="#F1F5F9" stroke-width="1"/>

  <!-- Close -->
  <circle cx="968" cy="168" r="15" fill="#F8FAFC"/>
  <text x="964" y="173" font-size="14" fill="#64748B">✕</text>

  <!-- Fields -->
  <text x="470" y="234" font-size="12" font-weight="500" fill="#334155">Prénom</text>
  <rect x="470" y="242" width="242" height="40" rx="12" fill="#FFFFFF" stroke="#CBD5E1" stroke-width="1"/>
  <text x="488" y="267" font-size="13" fill="#94A3B8">ex: Marie</text>

  <text x="728" y="234" font-size="12" font-weight="500" fill="#334155">Nom</text>
  <rect x="728" y="242" width="242" height="40" rx="12" fill="#FFFFFF" stroke="#CBD5E1" stroke-width="1"/>
  <text x="746" y="267" font-size="13" fill="#94A3B8">ex: Dupont</text>

  <text x="470" y="310" font-size="12" font-weight="500" fill="#334155">Email</text>
  <rect x="470" y="318" width="500" height="40" rx="12" fill="#FFFFFF" stroke="#CBD5E1" stroke-width="1"/>
  <text x="488" y="343" font-size="13" fill="#94A3B8">ex: marie.dupont@email.com</text>

  <text x="470" y="386" font-size="12" font-weight="500" fill="#334155">Rôle</text>
  <rect x="470" y="394" width="500" height="40" rx="12" fill="#FFFFFF" stroke="#CBD5E1" stroke-width="1"/>
  <text x="488" y="419" font-size="13" fill="#334155">Bénéficiaire</text>
  <text x="952" y="419" font-size="14" fill="#94A3B8">▾</text>

  <text x="470" y="462" font-size="12" font-weight="500" fill="#334155">Consultant assigné</text>
  <rect x="470" y="470" width="500" height="40" rx="12" fill="#FFFFFF" stroke="#CBD5E1" stroke-width="1"/>
  <text x="488" y="495" font-size="13" fill="#94A3B8">Sélectionner un consultant…</text>
  <text x="952" y="495" font-size="14" fill="#94A3B8">▾</text>

  <!-- Note -->
  <rect x="470" y="530" width="500" height="36" rx="10" fill="#EFF6FF"/>
  <text x="492" y="553" font-size="11" fill="#1E6FC0">ℹ Un mot de passe temporaire sera envoyé par email.</text>

  <!-- Buttons -->
  <rect x="470" y="586" width="124" height="40" rx="12" fill="#FFFFFF" stroke="#CBD5E1" stroke-width="1"/>
  <text x="532" y="611" font-size="13" font-weight="500" fill="#334155" text-anchor="middle">Annuler</text>
  <rect x="846" y="586" width="124" height="40" rx="12" fill="#1E6FC0"/>
  <text x="908" y="611" font-size="13" font-weight="600" fill="#FFFFFF" text-anchor="middle">Créer le compte</text>
</svg>