<!-- MAQ-09 | Planification | Link's Accompagnement | v3.0 | hybride | 2026-03-26 -->
<svg xmlns="http://www.w3.org/2000/svg" viewBox="0 0 1440 900" width="1440" height="900" font-family="Inter, system-ui, sans-serif">
  <defs>
    <filter id="shadow-sm" x="-2%" y="-2%" width="104%" height="106%">
      <feDropShadow dx="0" dy="1" stdDeviation="3" flood-opacity="0.06"/>
    </filter>
    <filter id="shadow-md" x="-2%" y="-2%" width="104%" height="108%">
      <feDropShadow dx="0" dy="2" stdDeviation="4" flood-opacity="0.08"/>
    </filter>
  </defs>

  <!-- Background -->
  <rect width="1440" height="900" fill="#F7F9FC"/>

  <!-- ==================== SIDEBAR (220px) ==================== -->
  <rect width="220" height="900" fill="#0D3B6E"/>

  <!-- Logo -->
  <polygon points="32,28 52,18 52,42 32,42" fill="#FF6B35"/>
  <text x="60" y="32" fill="#FFFFFF" font-size="16" font-weight="700">Link's</text>
  <text x="60" y="46" fill="#96B8D6" font-size="10" font-weight="400">Accompagnement</text>

  <!-- Nav separator -->
  <line x1="18" y1="64" x2="202" y2="64" stroke="#1A5A8E" stroke-width="1"/>

  <!-- Nav: Dashboard -->
  <g opacity="0.6">
    <rect x="12" y="78" width="196" height="38" rx="10" fill="transparent"/>
    <rect x="28" y="90" width="16" height="12" rx="2" fill="none" stroke="#96B8D6" stroke-width="1.5"/>
    <line x1="28" y1="96" x2="44" y2="96" stroke="#96B8D6" stroke-width="1.5"/>
    <text x="54" y="100" fill="#96B8D6" font-size="13">Dashboard</text>
  </g>

  <!-- Nav: Mes bénéficiaires (active) -->
  <g>
    <rect x="12" y="120" width="196" height="38" rx="10" fill="#1A5A8E"/>
    <circle cx="36" cy="139" r="6" fill="none" stroke="#FFFFFF" stroke-width="1.5"/>
    <text x="54" y="143" fill="#FFFFFF" font-size="13" font-weight="600">Mes bénéficiaires</text>
  </g>

  <!-- Nav: Agenda -->
  <g opacity="0.6">
    <rect x="12" y="162" width="196" height="38" rx="10" fill="transparent"/>
    <rect x="28" y="174" width="16" height="14" rx="2" fill="none" stroke="#96B8D6" stroke-width="1.5"/>
    <line x1="32" y1="172" x2="32" y2="176" stroke="#96B8D6" stroke-width="1.5"/>
    <line x1="40" y1="172" x2="40" y2="176" stroke="#96B8D6" stroke-width="1.5"/>
    <text x="54" y="185" fill="#96B8D6" font-size="13">Agenda</text>
  </g>

  <!-- Nav: Documents -->
  <g opacity="0.6">
    <rect x="12" y="204" width="196" height="38" rx="10" fill="transparent"/>
    <rect x="28" y="216" width="14" height="16" rx="2" fill="none" stroke="#96B8D6" stroke-width="1.5"/>
    <text x="54" y="228" fill="#96B8D6" font-size="13">Documents</text>
  </g>

  <!-- Nav: Rapports -->
  <g opacity="0.6">
    <rect x="12" y="246" width="196" height="38" rx="10" fill="transparent"/>
    <rect x="28" y="258" width="16" height="14" rx="2" fill="none" stroke="#96B8D6" stroke-width="1.5"/>
    <text x="54" y="270" fill="#96B8D6" font-size="13">Rapports</text>
  </g>

  <!-- Nav: Profil -->
  <g opacity="0.6">
    <rect x="12" y="288" width="196" height="38" rx="10" fill="transparent"/>
    <circle cx="36" cy="307" r="7" fill="none" stroke="#96B8D6" stroke-width="1.5"/>
    <text x="54" y="311" fill="#96B8D6" font-size="13">Profil</text>
  </g>

  <!-- ==================== HEADER ==================== -->
  <rect x="220" y="0" width="1220" height="56" fill="#FFFFFF" filter="url(#shadow-sm)"/>

  <!-- Breadcrumb -->
  <text x="248" y="33" fill="#8C96A3" font-size="13">Mes bénéficiaires</text>
  <text x="368" y="33" fill="#8C96A3" font-size="13">›</text>
  <text x="380" y="33" fill="#8C96A3" font-size="13">Marie Dupont</text>
  <text x="472" y="33" fill="#8C96A3" font-size="13">›</text>
  <text x="484" y="33" fill="#1E6FC0" font-size="13" font-weight="600">Planification</text>

  <!-- Avatar + logout -->
  <circle cx="1370" cy="28" r="16" fill="#EBF0F7"/>
  <text x="1363" y="33" fill="#0D3B6E" font-size="11" font-weight="600">SM</text>
  <text x="1400" y="33" fill="#8C96A3" font-size="12">↗</text>

  <!-- ==================== PROFILE MINI-BAR ==================== -->
  <rect x="248" y="72" width="912" height="60" rx="12" fill="#FFFFFF" filter="url(#shadow-sm)"/>

  <!-- Avatar -->
  <circle cx="278" cy="102" r="19" fill="#1E6FC0"/>
  <text x="269" y="107" fill="#FFFFFF" font-size="12" font-weight="600">MD</text>

  <!-- Name + progress -->
  <text x="306" y="96" fill="#1A202C" font-size="15" font-weight="700">Marie Dupont</text>
  <rect x="306" y="104" width="60" height="6" rx="3" fill="#E8EDF3"/>
  <rect x="306" y="104" width="20" height="6" rx="3" fill="#1E6FC0"/>
  <text x="372" y="112" fill="#8C96A3" font-size="11">2/6</text>

  <!-- Tabs -->
  <text x="520" y="106" fill="#8C96A3" font-size="13">Parcours</text>
  <text x="610" y="106" fill="#8C96A3" font-size="13">Comptes-rendus</text>
  <text x="738" y="106" fill="#1E6FC0" font-size="13" font-weight="600">Planification</text>
  <line x1="738" y1="118" x2="824" y2="118" stroke="#1E6FC0" stroke-width="2.5" stroke-linecap="round"/>
  <text x="856" y="106" fill="#8C96A3" font-size="13">Documents</text>

  <!-- ==================== TITLE ==================== -->
  <text x="248" y="164" fill="#1A202C" font-size="20" font-weight="700">Planification des séances</text>
  <text x="248" y="184" fill="#8C96A3" font-size="13">6 séances au total · 2 planifiées · 4 à planifier</text>

  <!-- ==================== SESSION CARDS ==================== -->

  <!-- Séance 1 — Completed -->
  <rect x="248" y="200" width="660" height="70" rx="12" fill="#FFFFFF" filter="url(#shadow-sm)"/>
  <rect x="248" y="200" width="4" height="70" rx="2" fill="#28A745"/>
  <circle cx="276" cy="235" r="13" fill="#E6F4EA"/>
  <text x="270" y="240" fill="#28A745" font-size="14" font-weight="700">✓</text>
  <text x="298" y="222" fill="#1A202C" font-size="14" font-weight="600">Séance 1 — Entretien préliminaire</text>
  <text x="298" y="240" fill="#6B7280" font-size="12">15/04/2026 à 14h00 · 1h00</text>
  <text x="298" y="258" fill="#1E6FC0" font-size="11" text-decoration="underline">https://meet.google.com/abc-defg-hij</text>
  <rect x="822" y="218" width="74" height="26" rx="10" fill="#E6F4EA"/>
  <text x="832" y="235" fill="#28A745" font-size="11" font-weight="600">Réalisée ✓</text>

  <!-- Séance 2 — Upcoming -->
  <rect x="248" y="280" width="660" height="70" rx="12" fill="#FFFFFF" filter="url(#shadow-sm)"/>
  <rect x="248" y="280" width="4" height="70" rx="2" fill="#1E6FC0"/>
  <circle cx="276" cy="315" r="13" fill="#EBF3FE"/>
  <rect x="268" y="308" width="14" height="14" rx="3" fill="none" stroke="#1E6FC0" stroke-width="1.5"/>
  <text x="298" y="302" fill="#1A202C" font-size="14" font-weight="600">Séance 2 — Investigation phase 1</text>
  <text x="298" y="320" fill="#6B7280" font-size="12">29/04/2026 à 14h00 · 1h00</text>
  <text x="298" y="338" fill="#1E6FC0" font-size="11" text-decoration="underline">https://meet.google.com/abc-defg-hij</text>
  <rect x="822" y="296" width="68" height="26" rx="10" fill="#EBF3FE"/>
  <text x="834" y="313" fill="#1E6FC0" font-size="11" font-weight="600">Planifiée</text>
  <!-- Edit -->
  <circle cx="870" cy="334" r="14" fill="#F7F9FC" stroke="#DCE1EB" stroke-width="1"/>
  <text x="864" y="339" fill="#6B7280" font-size="13">✎</text>

  <!-- Séance 3 — Expanded/Editing Form -->
  <rect x="248" y="360" width="660" height="308" rx="12" fill="#FFFFFF" filter="url(#shadow-md)"/>
  <rect x="248" y="360" width="4" height="308" rx="2" fill="#FF6B35"/>

  <text x="272" y="390" fill="#1A202C" font-size="15" font-weight="700">Séance 3 — Planifier cette séance</text>

  <!-- Date picker -->
  <text x="272" y="416" fill="#4A5568" font-size="12" font-weight="500">Date</text>
  <rect x="272" y="422" width="288" height="38" rx="10" fill="#FFFFFF" stroke="#DCE1EB" stroke-width="1.2"/>
  <text x="286" y="446" fill="#A0AEC0" font-size="13">Sélectionner une date</text>
  <text x="538" y="446" fill="#8C96A3" font-size="14">📅</text>

  <!-- Time picker -->
  <text x="578" y="416" fill="#4A5568" font-size="12" font-weight="500">Heure</text>
  <rect x="578" y="422" width="136" height="38" rx="10" fill="#FFFFFF" stroke="#DCE1EB" stroke-width="1.2"/>
  <text x="592" y="446" fill="#A0AEC0" font-size="13">14h00</text>
  <text x="694" y="446" fill="#8C96A3" font-size="14">⏰</text>

  <!-- Duration -->
  <text x="732" y="416" fill="#4A5568" font-size="12" font-weight="500">Durée</text>
  <rect x="732" y="422" width="148" height="38" rx="10" fill="#FFFFFF" stroke="#DCE1EB" stroke-width="1.2"/>
  <text x="746" y="446" fill="#1A202C" font-size="13">1h00</text>

  <!-- Visio URL -->
  <text x="272" y="484" fill="#4A5568" font-size="12" font-weight="500">Lien visioconférence</text>
  <rect x="272" y="490" width="608" height="38" rx="10" fill="#FFFFFF" stroke="#DCE1EB" stroke-width="1.2"/>
  <text x="286" y="514" fill="#A0AEC0" font-size="13">https://meet.google.com/...</text>

  <!-- Notes textarea -->
  <text x="272" y="552" fill="#4A5568" font-size="12" font-weight="500">Notes de préparation</text>
  <rect x="272" y="558" width="608" height="64" rx="10" fill="#FFFFFF" stroke="#DCE1EB" stroke-width="1.2"/>
  <text x="286" y="582" fill="#A0AEC0" font-size="13">Notes de préparation (optionnel)</text>

  <!-- Buttons -->
  <rect x="702" y="634" width="82" height="36" rx="10" fill="#FFFFFF" stroke="#DCE1EB" stroke-width="1.2"/>
  <text x="719" y="656" fill="#4A5568" font-size="13" font-weight="500">Annuler</text>
  <rect x="794" y="634" width="154" height="36" rx="10" fill="#1E6FC0"/>
  <text x="816" y="656" fill="#FFFFFF" font-size="13" font-weight="600">Planifier la séance</text>

  <!-- Séance 4 — To plan -->
  <rect x="248" y="680" width="660" height="52" rx="12" fill="#FFFFFF" filter="url(#shadow-sm)"/>
  <rect x="248" y="680" width="4" height="52" rx="2" fill="#D1D5DB"/>
  <text x="272" y="710" fill="#6B7280" font-size="14" font-weight="500">Séance 4 — À planifier</text>
  <rect x="826" y="692" width="82" height="30" rx="10" fill="transparent" stroke="#DCE1EB" stroke-width="1.2"/>
  <text x="842" y="711" fill="#6B7280" font-size="12" font-weight="500">Planifier</text>

  <!-- Séance 5 — To plan -->
  <rect x="248" y="742" width="660" height="52" rx="12" fill="#FFFFFF" filter="url(#shadow-sm)"/>
  <rect x="248" y="742" width="4" height="52" rx="2" fill="#D1D5DB"/>
  <text x="272" y="772" fill="#6B7280" font-size="14" font-weight="500">Séance 5 — À planifier</text>
  <rect x="826" y="754" width="82" height="30" rx="10" fill="transparent" stroke="#DCE1EB" stroke-width="1.2"/>
  <text x="842" y="773" fill="#6B7280" font-size="12" font-weight="500">Planifier</text>

  <!-- Séance 6 — To plan -->
  <rect x="248" y="804" width="660" height="52" rx="12" fill="#FFFFFF" filter="url(#shadow-sm)"/>
  <rect x="248" y="804" width="4" height="52" rx="2" fill="#D1D5DB"/>
  <text x="272" y="834" fill="#6B7280" font-size="14" font-weight="500">Séance 6 — À planifier</text>
  <rect x="826" y="816" width="82" height="30" rx="10" fill="transparent" stroke="#DCE1EB" stroke-width="1.2"/>
  <text x="842" y="835" fill="#6B7280" font-size="12" font-weight="500">Planifier</text>

  <!-- ==================== RIGHT PANEL ==================== -->

  <!-- Récapitulatif card -->
  <rect x="932" y="200" width="280" height="344" rx="14" fill="#FFFFFF" filter="url(#shadow-sm)"/>
  <text x="956" y="230" fill="#1A202C" font-size="15" font-weight="700">Récapitulatif</text>

  <!-- Calendar mini — April 2026 -->
  <text x="1024" y="258" fill="#1A202C" font-size="13" font-weight="600" text-anchor="middle">Avril 2026</text>
  <text x="963" y="278" fill="#8C96A3" font-size="10" font-weight="500">L</text>
  <text x="983" y="278" fill="#8C96A3" font-size="10" font-weight="500">M</text>
  <text x="1003" y="278" fill="#8C96A3" font-size="10" font-weight="500">M</text>
  <text x="1023" y="278" fill="#8C96A3" font-size="10" font-weight="500">J</text>
  <text x="1043" y="278" fill="#8C96A3" font-size="10" font-weight="500">V</text>
  <text x="1063" y="278" fill="#8C96A3" font-size="10" font-weight="500">S</text>
  <text x="1083" y="278" fill="#8C96A3" font-size="10" font-weight="500">D</text>

  <!-- Week 1 -->
  <text x="1003" y="296" fill="#4A5568" font-size="11">1</text>
  <text x="1023" y="296" fill="#4A5568" font-size="11">2</text>
  <text x="1043" y="296" fill="#4A5568" font-size="11">3</text>
  <text x="1063" y="296" fill="#8C96A3" font-size="11">4</text>
  <text x="1083" y="296" fill="#8C96A3" font-size="11">5</text>
  <!-- Week 2 -->
  <text x="963" y="314" fill="#4A5568" font-size="11">6</text>
  <text x="983" y="314" fill="#4A5568" font-size="11">7</text>
  <text x="1003" y="314" fill="#4A5568" font-size="11">8</text>
  <text x="1023" y="314" fill="#4A5568" font-size="11">9</text>
  <text x="1043" y="314" fill="#4A5568" font-size="11">10</text>
  <text x="1063" y="314" fill="#8C96A3" font-size="11">11</text>
  <text x="1083" y="314" fill="#8C96A3" font-size="11">12</text>
  <!-- Week 3 -->
  <text x="963" y="332" fill="#4A5568" font-size="11">13</text>
  <text x="983" y="332" fill="#4A5568" font-size="11">14</text>
  <circle cx="1006" cy="328" r="11" fill="#E6F4EA"/>
  <text x="1001" y="332" fill="#28A745" font-size="11" font-weight="700">15</text>
  <text x="1023" y="332" fill="#4A5568" font-size="11">16</text>
  <text x="1043" y="332" fill="#4A5568" font-size="11">17</text>
  <text x="1063" y="332" fill="#8C96A3" font-size="11">18</text>
  <text x="1083" y="332" fill="#8C96A3" font-size="11">19</text>
  <!-- Week 4 -->
  <text x="963" y="350" fill="#4A5568" font-size="11">20</text>
  <text x="983" y="350" fill="#4A5568" font-size="11">21</text>
  <text x="1003" y="350" fill="#4A5568" font-size="11">22</text>
  <text x="1023" y="350" fill="#4A5568" font-size="11">23</text>
  <text x="1043" y="350" fill="#4A5568" font-size="11">24</text>
  <text x="1063" y="350" fill="#8C96A3" font-size="11">25</text>
  <text x="1083" y="350" fill="#8C96A3" font-size="11">26</text>
  <!-- Week 5 -->
  <text x="963" y="368" fill="#4A5568" font-size="11">27</text>
  <text x="983" y="368" fill="#4A5568" font-size="11">28</text>
  <circle cx="1006" cy="364" r="11" fill="#EBF3FE"/>
  <text x="1001" y="368" fill="#1E6FC0" font-size="11" font-weight="700">29</text>
  <text x="1023" y="368" fill="#4A5568" font-size="11">30</text>

  <!-- Stats -->
  <line x1="956" y1="390" x2="1192" y2="390" stroke="#EBF0F7" stroke-width="1"/>
  <text x="956" y="414" fill="#4A5568" font-size="13" font-weight="500">2/6 séances planifiées</text>
  <rect x="956" y="422" width="228" height="6" rx="3" fill="#EBF0F7"/>
  <rect x="956" y="422" width="76" height="6" rx="3" fill="#1E6FC0"/>

  <!-- Highlight -->
  <rect x="956" y="446" width="228" height="50" rx="12" fill="#FFF5ED"/>
  <text x="974" y="468" fill="#FF6B35" font-size="12" font-weight="600">⏱ Prochaine séance</text>
  <text x="974" y="486" fill="#92400E" font-size="14" font-weight="700">dans 3 jours</text>

  <!-- Legend -->
  <circle cx="966" cy="518" r="4" fill="#28A745"/>
  <text x="976" y="522" fill="#6B7280" font-size="10">Réalisée</text>
  <circle cx="1030" cy="518" r="4" fill="#1E6FC0"/>
  <text x="1040" y="522" fill="#6B7280" font-size="10">Planifiée</text>
  <circle cx="1102" cy="518" r="4" fill="#D1D5DB"/>
  <text x="1112" y="522" fill="#6B7280" font-size="10">À planifier</text>
</svg>