<!-- MAQ-01 | Login | Link's Accompagnement | v1.1 | 2026-03-23 -->
<svg xmlns="http://www.w3.org/2000/svg" viewBox="0 0 1200 800" width="1200" height="800" font-family="'Inter', 'Segoe UI', Arial, sans-serif">

  <!-- ======================== DEFS (unique bloc) ======================== -->
  <defs>
    <!-- Dégradé fond haut de page -->
    <linearGradient id="topGradient" x1="0" y1="0" x2="0" y2="1">
      <stop offset="0%" stop-color="#1E6FC0" stop-opacity="0.07"/>
      <stop offset="100%" stop-color="#F5F7FA" stop-opacity="0"/>
    </linearGradient>
    <!-- Dégradé bouton -->
    <linearGradient id="btnGradient" x1="0" y1="0" x2="0" y2="1">
      <stop offset="0%" stop-color="#2E7FD0"/>
      <stop offset="100%" stop-color="#1A5FA8"/>
    </linearGradient>
    <!-- Ombre carte -->
    <filter id="cardShadow" x="-10%" y="-10%" width="120%" height="130%">
      <feDropShadow dx="0" dy="4" stdDeviation="16" flood-color="#0D3B6E" flood-opacity="0.10"/>
    </filter>
  </defs>

  <!-- ======================== FOND ======================== -->
  <rect width="1200" height="800" fill="#F5F7FA"/>
  <rect width="1200" height="280" fill="url(#topGradient)"/>

  <!-- ======================== LOGO + HEADLINE ======================== -->
  <g transform="translate(600, 112)">
    <!-- Cercle de fond du logo -->
    <circle cx="0" cy="-32" r="36" fill="#1E6FC0"/>
    <!-- Lettre L stylisée -->
    <text x="0" y="-18" text-anchor="middle" font-size="32" font-weight="700" fill="#FFFFFF" letter-spacing="-1">L</text>
    <!-- Point accent -->
    <circle cx="12" cy="-46" r="4" fill="#FF6B35"/>
    <!-- Nom de l'application -->
    <text x="0" y="26" text-anchor="middle" font-size="26" font-weight="700" fill="#0D3B6E" letter-spacing="-0.5">
      Link's Accompagnement
    </text>
    <!-- Sous-titre -->
    <text x="0" y="52" text-anchor="middle" font-size="14" font-weight="400" fill="#6B7A99" letter-spacing="0.1">
      Votre espace de suivi personnalisé
    </text>
  </g>

  <!-- ======================== CARTE LOGIN ======================== -->
  <!-- Ombre de la carte -->
  <rect x="400" y="194" width="400" height="488" rx="16" ry="16" fill="#0D3B6E" opacity="0.08"/>
  <!-- Corps de la carte -->
  <rect x="400" y="188" width="400" height="488" rx="16" ry="16" fill="#FFFFFF" filter="url(#cardShadow)"/>
  <!-- Barre de couleur en haut de la carte -->
  <rect x="400" y="188" width="400" height="5" rx="2" fill="#1E6FC0"/>

  <!-- ---- Titre "Connexion" ---- -->
  <text x="600" y="250" text-anchor="middle" font-size="22" font-weight="700" fill="#0D3B6E" letter-spacing="-0.3">
    Connexion
  </text>
  <!-- Séparateur sous le titre -->
  <line x1="560" y1="264" x2="640" y2="264" stroke="#DCE1EB" stroke-width="1.5" stroke-linecap="round"/>

  <!-- ---- Label + Champ Email ---- -->
  <text x="432" y="300" font-size="13" font-weight="600" fill="#4A4A4A">Adresse email</text>
  <!-- Input email (état normal) -->
  <rect x="432" y="308" width="336" height="44" rx="8" ry="8" fill="#FFFFFF" stroke="#DCE1EB" stroke-width="1.5"/>
  <!-- Icône email (enveloppe simplifiée) -->
  <rect x="448" y="321" width="18" height="13" rx="2" fill="none" stroke="#9BA8BF" stroke-width="1.5"/>
  <polyline points="448,321 457,330 466,321" fill="none" stroke="#9BA8BF" stroke-width="1.5" stroke-linejoin="round"/>
  <!-- Placeholder -->
  <text x="476" y="334" font-size="13.5" fill="#B0BAD0">votre@email.fr</text>

  <!-- ---- Label + Champ Mot de passe ---- -->
  <text x="432" y="378" font-size="13" font-weight="600" fill="#4A4A4A">Mot de passe</text>
  <!-- Input password (état focus) -->
  <rect x="432" y="386" width="336" height="44" rx="8" ry="8" fill="#FFFFFF" stroke="#1E6FC0" stroke-width="2"/>
  <!-- Halo focus bleu subtil -->
  <rect x="430" y="384" width="340" height="48" rx="10" ry="10" fill="none" stroke="#1E6FC0" stroke-width="0.5" opacity="0.3"/>
  <!-- Icône cadenas -->
  <rect x="448" y="399" width="16" height="12" rx="2" fill="none" stroke="#1E6FC0" stroke-width="1.5"/>
  <path d="M451 399 v-4 a6 6 0 0 1 10 0 v4" fill="none" stroke="#1E6FC0" stroke-width="1.5" stroke-linecap="round"/>
  <circle cx="456" cy="406" r="2" fill="#1E6FC0"/>
  <!-- Pastilles password masqué -->
  <circle cx="476" cy="408" r="3.5" fill="#4A4A4A"/>
  <circle cx="490" cy="408" r="3.5" fill="#4A4A4A"/>
  <circle cx="504" cy="408" r="3.5" fill="#4A4A4A"/>
  <circle cx="518" cy="408" r="3.5" fill="#4A4A4A"/>
  <circle cx="532" cy="408" r="3.5" fill="#4A4A4A"/>
  <circle cx="546" cy="408" r="3.5" fill="#4A4A4A"/>
  <circle cx="560" cy="408" r="3.5" fill="#4A4A4A"/>
  <circle cx="574" cy="408" r="3.5" fill="#4A4A4A"/>
  <!-- Icône œil (afficher/masquer) -->
  <g transform="translate(740, 408)">
    <ellipse cx="0" cy="0" rx="9" ry="6" fill="none" stroke="#9BA8BF" stroke-width="1.5"/>
    <circle cx="0" cy="0" r="3" fill="none" stroke="#9BA8BF" stroke-width="1.5"/>
    <line x1="-10" y1="-8" x2="10" y2="8" stroke="#9BA8BF" stroke-width="1.5" stroke-linecap="round"/>
  </g>

  <!-- ---- Lien "Mot de passe oublié ?" (souligné via <line>) ---- -->
  <text x="768" y="455" text-anchor="end" font-size="12.5" fill="#1E6FC0">
    Mot de passe oublié ?
  </text>
  <line x1="636" y1="457" x2="768" y2="457" stroke="#1E6FC0" stroke-width="1"/>

  <!-- ---- Message d'erreur ---- -->
  <rect x="432" y="466" width="336" height="40" rx="8" ry="8" fill="#FFF2F2" stroke="#E53935" stroke-width="1.2"/>
  <circle cx="452" cy="486" r="8" fill="#E53935"/>
  <text x="452" y="490" text-anchor="middle" font-size="11" font-weight="700" fill="#FFFFFF">!</text>
  <text x="468" y="490" font-size="12.5" fill="#C62828" font-weight="500">
    Email ou mot de passe incorrect.
  </text>

  <!-- ---- Bouton "Se connecter" ---- -->
  <!-- Ombre du bouton -->
  <rect x="432" y="526" width="336" height="46" rx="10" ry="10" fill="#0D3B6E" opacity="0.18"/>
  <!-- Bouton avec dégradé -->
  <rect x="432" y="523" width="336" height="46" rx="10" ry="10" fill="url(#btnGradient)"/>
  <!-- Texte bouton -->
  <text x="600" y="551" text-anchor="middle" font-size="15" font-weight="700" fill="#FFFFFF" letter-spacing="0.3">
    Se connecter
  </text>
  <!-- Flèche sur le bouton -->
  <polyline points="737,541 742,546 737,551" fill="none" stroke="#FFFFFF" stroke-width="2" stroke-linecap="round" stroke-linejoin="round" opacity="0.85"/>

  <!-- ---- Séparateur + Aide ---- -->
  <line x1="432" y1="592" x2="576" y2="592" stroke="#DCE1EB" stroke-width="1"/>
  <text x="600" y="596" text-anchor="middle" font-size="11.5" fill="#9BA8BF">ou</text>
  <line x1="624" y1="592" x2="768" y2="592" stroke="#DCE1EB" stroke-width="1"/>

  <!-- Lien contact support (texte souligné via <line>) -->
  <text x="600" y="628" text-anchor="middle" font-size="12.5" fill="#6B7A99">Besoin d'aide ?</text>
  <text x="600" y="648" text-anchor="middle" font-size="12.5" fill="#1E6FC0">Contacter le support</text>
  <line x1="524" y1="650" x2="676" y2="650" stroke="#1E6FC0" stroke-width="1"/>

  <!-- ======================== FOOTER ======================== -->
  <text x="600" y="760" text-anchor="middle" font-size="11" fill="#9BA8BF">
    © 2026 Link's Accompagnement — Unanima Platform
  </text>
  <text x="600" y="778" text-anchor="middle" font-size="11" fill="#B0BAD0">
    Mentions légales · Politique de confidentialité · RGPD
  </text>

  <!-- ======================== ANNOTATIONS MAQUETTE ======================== -->
  <!-- Badge version -->
  <rect x="30" y="20" width="110" height="26" rx="6" fill="#1E6FC0" opacity="0.12"/>
  <text x="85" y="37" text-anchor="middle" font-size="11" font-weight="600" fill="#1E6FC0">MAQ-01 · v1.1</text>
  <!-- Badge statut -->
  <rect x="152" y="20" width="90" height="26" rx="6" fill="#28A745" opacity="0.12"/>
  <text x="197" y="37" text-anchor="middle" font-size="11" font-weight="600" fill="#28A745">Haute-fidélité</text>
  <!-- Date -->
  <text x="1170" y="35" text-anchor="end" font-size="11" fill="#9BA8BF">2026-03-23</text>
  <!-- Palette -->
  <g transform="translate(30, 720)">
    <text x="0" y="0" font-size="10" fill="#9BA8BF" font-weight="600">Palette :</text>
    <rect x="60" y="-10" width="14" height="14" rx="3" fill="#1E6FC0"/>
    <text x="78" y="0" font-size="10" fill="#9BA8BF">#1E6FC0</text>
    <rect x="140" y="-10" width="14" height="14" rx="3" fill="#0D3B6E"/>
    <text x="158" y="0" font-size="10" fill="#9BA8BF">#0D3B6E</text>
    <rect x="220" y="-10" width="14" height="14" rx="3" fill="#FF6B35"/>
    <text x="238" y="0" font-size="10" fill="#9BA8BF">#FF6B35</text>
    <rect x="300" y="-10" width="14" height="14" rx="3" fill="#28A745"/>
    <text x="318" y="0" font-size="10" fill="#9BA8BF">#28A745</text>
    <rect x="380" y="-10" width="14" height="14" rx="3" fill="#F5F7FA" stroke="#DCE1EB" stroke-width="1"/>
    <text x="398" y="0" font-size="10" fill="#9BA8BF">#F5F7FA</text>
  </g>

</svg>
