<!-- MAQ-08 | Gestion Utilisateurs | Link's Accompagnement | v3.0 | chaleureux | 2026-03-26 -->
<svg xmlns="http://www.w3.org/2000/svg" viewBox="0 0 1440 900" width="1440" height="900" font-family="Inter, system-ui, sans-serif">
  <defs>
    <filter id="shadow1" x="-2%" y="-2%" width="104%" height="108%">
      <feDropShadow dx="0" dy="2" stdDeviation="4" flood-opacity="0.06"/>
    </filter>
    <filter id="shadow2" x="-2%" y="-2%" width="104%" height="110%">
      <feDropShadow dx="0" dy="4" stdDeviation="10" flood-opacity="0.1"/>
    </filter>
    <filter id="modalShadow" x="-5%" y="-5%" width="110%" height="115%">
      <feDropShadow dx="0" dy="10" stdDeviation="30" flood-opacity="0.18"/>
    </filter>
  </defs>

  <!-- Background -->
  <rect width="1440" height="900" fill="#FFF8F5"/>

  <!-- Sidebar -->
  <rect width="220" height="900" fill="#0D3B6E" rx="0"/>
  <rect x="210" y="0" width="10" height="900" fill="#0D3B6E"/>
  <!-- Warm accent strip at top -->
  <rect width="220" height="4" fill="#F28C5A"/>
  <!-- Logo -->
  <polygon points="30,34 44,54 30,54" fill="#F28C5A"/>
  <text x="54" y="46" font-size="18" font-weight="700" fill="#FFFFFF">Link's</text>
  <text x="54" y="63" font-size="11" fill="rgba(255,255,255,0.65)">Accompagnement</text>
  <line x1="20" y1="82" x2="200" y2="82" stroke="rgba(255,255,255,0.08)" stroke-width="1"/>

  <!-- Nav: Dashboard -->
  <rect x="14" y="100" width="192" height="42" rx="16" fill="transparent"/>
  <rect x="22" y="110" width="18" height="18" rx="4" fill="none" stroke="rgba(255,255,255,0.45)" stroke-width="1.5"/>
  <line x1="26" y1="119" x2="36" y2="119" stroke="rgba(255,255,255,0.45)" stroke-width="1.5"/>
  <text x="54" y="125" font-size="13" fill="rgba(255,255,255,0.55)">Dashboard</text>

  <!-- Nav: Utilisateurs (active) -->
  <rect x="14" y="148" width="192" height="42" rx="16" fill="rgba(242,140,90,0.15)"/>
  <rect x="14" y="148" width="4" height="42" rx="2" fill="#F28C5A"/>
  <circle cx="34" cy="169" r="9" fill="none" stroke="#FFFFFF" stroke-width="1.5"/>
  <circle cx="34" cy="167" r="3.5" fill="none" stroke="#FFFFFF" stroke-width="1.5"/>
  <path d="M26,176 Q34,172 42,176" fill="none" stroke="#FFFFFF" stroke-width="1.5"/>
  <text x="54" y="174" font-size="13" font-weight="600" fill="#FFFFFF">Utilisateurs</text>

  <!-- Nav: Documents -->
  <rect x="14" y="196" width="192" height="42" rx="16" fill="transparent"/>
  <rect x="22" y="206" width="16" height="20" rx="3" fill="none" stroke="rgba(255,255,255,0.45)" stroke-width="1.5"/>
  <text x="54" y="221" font-size="13" fill="rgba(255,255,255,0.55)">Documents</text>

  <!-- Header -->
  <rect x="220" y="0" width="1220" height="68" fill="#FFFFFF" filter="url(#shadow1)"/>
  <text x="256" y="39" font-size="13" fill="#B0A69E">Administration</text>
  <text x="358" y="39" font-size="13" fill="#B0A69E">›</text>
  <text x="372" y="39" font-size="13" font-weight="500" fill="#4A3F35">Utilisateurs</text>
  <!-- User area -->
  <circle cx="1340" cy="34" r="17" fill="#2A7FD4"/>
  <text x="1333" y="39" font-size="10" font-weight="600" fill="#FFFFFF">AD</text>
  <text x="1276" y="30" font-size="12" font-weight="500" fill="#4A3F35" text-anchor="end">Administrateur</text>
  <text x="1276" y="44" font-size="10" fill="#B0A69E" text-anchor="end">super_admin</text>
  <text x="1380" y="39" font-size="13" fill="#B0A69E">↗</text>

  <!-- Content -->
  <text x="256" y="114" font-size="20" font-weight="700" fill="#2D2319">Gestion des utilisateurs</text>
  <text x="256" y="134" font-size="13" fill="#8C7E72">8 utilisateurs · 3 rôles</text>

  <!-- Filter buttons - warm rounded pills -->
  <rect x="256" y="152" width="86" height="36" rx="18" fill="#2A7FD4"/>
  <text x="299" y="175" font-size="12" font-weight="500" fill="#FFFFFF" text-anchor="middle">Tous (8)</text>

  <rect x="350" y="152" width="128" height="36" rx="18" fill="#FFF0E6" stroke="#F28C5A" stroke-width="1"/>
  <text x="414" y="175" font-size="12" fill="#C06930" text-anchor="middle">Bénéficiaires (5)</text>

  <rect x="486" y="152" width="126" height="36" rx="18" fill="#FFFFFF" stroke="#E8DED4" stroke-width="1"/>
  <text x="549" y="175" font-size="12" fill="#8C7E72" text-anchor="middle">Consultantes (2)</text>

  <rect x="620" y="152" width="86" height="36" rx="18" fill="#FFFFFF" stroke="#E8DED4" stroke-width="1"/>
  <text x="663" y="175" font-size="12" fill="#8C7E72" text-anchor="middle">Admin (1)</text>

  <!-- Search -->
  <rect x="900" y="152" width="244" height="36" rx="18" fill="#FFFFFF" stroke="#E8DED4" stroke-width="1"/>
  <text x="924" y="175" font-size="12" fill="#B0A69E">🔍 Rechercher un utilisateur…</text>

  <!-- Create button -->
  <rect x="1156" y="152" width="186" height="36" rx="18" fill="#2A7FD4"/>
  <text x="1249" y="175" font-size="12" font-weight="600" fill="#FFFFFF" text-anchor="middle">+ Créer un utilisateur</text>

  <!-- Table card -->
  <rect x="256" y="206" width="1148" height="462" rx="20" fill="#FFFFFF" filter="url(#shadow2)"/>

  <!-- Table header -->
  <rect x="256" y="206" width="1148" height="46" rx="20" fill="#FEF7F2"/>
  <rect x="256" y="240" width="1148" height="12" fill="#FEF7F2"/>
  <text x="288" y="235" font-size="11" font-weight="600" fill="#8C7E72" letter-spacing="0.5">UTILISATEUR</text>
  <text x="520" y="235" font-size="11" font-weight="600" fill="#8C7E72" letter-spacing="0.5">RÔLE</text>
  <text x="678" y="235" font-size="11" font-weight="600" fill="#8C7E72" letter-spacing="0.5">CONSULTANT ASSIGNÉ</text>
  <text x="876" y="235" font-size="11" font-weight="600" fill="#8C7E72" letter-spacing="0.5">STATUT</text>
  <text x="996" y="235" font-size="11" font-weight="600" fill="#8C7E72" letter-spacing="0.5">DERNIÈRE CONNEXION</text>
  <text x="1176" y="235" font-size="11" font-weight="600" fill="#8C7E72" letter-spacing="0.5">ACTIONS</text>

  <!-- Row 1 -->
  <rect x="256" y="252" width="1148" height="66" fill="#FFFFFF"/>
  <line x1="276" y1="318" x2="1384" y2="318" stroke="#F5EDE6" stroke-width="1"/>
  <circle cx="300" cy="285" r="17" fill="#D6ECFF"/>
  <text x="293" y="290" font-size="10" font-weight="600" fill="#2A7FD4">MD</text>
  <text x="326" y="279" font-size="13" font-weight="500" fill="#2D2319">Marie Dupont</text>
  <text x="326" y="296" font-size="11" fill="#B0A69E">marie.dupont@email.com</text>
  <rect x="520" y="272" width="98" height="26" rx="13" fill="#E8F4FD"/>
  <text x="569" y="290" font-size="11" font-weight="500" fill="#2A7FD4" text-anchor="middle">Bénéficiaire</text>
  <text x="678" y="290" font-size="12" fill="#4A3F35">Sophie Martin</text>
  <rect x="876" y="274" width="54" height="24" rx="12" fill="#E6F9EE"/>
  <text x="903" y="290" font-size="11" font-weight="500" fill="#22884A" text-anchor="middle">Actif</text>
  <text x="996" y="290" font-size="12" fill="#8C7E72">Aujourd'hui</text>
  <circle cx="1186" cy="285" r="15" fill="#FEF7F2"/>
  <text x="1182" y="290" font-size="12" fill="#8C7E72">✏</text>
  <circle cx="1222" cy="285" r="15" fill="#FEF7F2"/>
  <text x="1218" y="290" font-size="12" fill="#8C7E72">🔑</text>
  <circle cx="1258" cy="285" r="15" fill="#FEF2F0"/>
  <text x="1254" y="290" font-size="12" fill="#DC2626">🗑</text>

  <!-- Row 2 -->
  <rect x="256" y="318" width="1148" height="66" fill="#FFFBF8"/>
  <line x1="276" y1="384" x2="1384" y2="384" stroke="#F5EDE6" stroke-width="1"/>
  <circle cx="300" cy="351" r="17" fill="#D6ECFF"/>
  <text x="293" y="356" font-size="10" font-weight="600" fill="#2A7FD4">JM</text>
  <text x="326" y="345" font-size="13" font-weight="500" fill="#2D2319">Jean Martin</text>
  <text x="326" y="362" font-size="11" fill="#B0A69E">jean.martin@email.com</text>
  <rect x="520" y="338" width="98" height="26" rx="13" fill="#E8F4FD"/>
  <text x="569" y="356" font-size="11" font-weight="500" fill="#2A7FD4" text-anchor="middle">Bénéficiaire</text>
  <text x="678" y="356" font-size="12" fill="#4A3F35">Sophie Martin</text>
  <rect x="876" y="340" width="54" height="24" rx="12" fill="#E6F9EE"/>
  <text x="903" y="356" font-size="11" font-weight="500" fill="#22884A" text-anchor="middle">Actif</text>
  <text x="996" y="356" font-size="12" fill="#8C7E72">Hier</text>
  <circle cx="1186" cy="351" r="15" fill="#F5EDE6"/>
  <text x="1182" y="356" font-size="12" fill="#8C7E72">✏</text>
  <circle cx="1222" cy="351" r="15" fill="#F5EDE6"/>
  <text x="1218" y="356" font-size="12" fill="#8C7E72">🔑</text>
  <circle cx="1258" cy="351" r="15" fill="#FEF2F0"/>
  <text x="1254" y="356" font-size="12" fill="#DC2626">🗑</text>

  <!-- Row 3 -->
  <rect x="256" y="384" width="1148" height="66" fill="#FFFFFF"/>
  <line x1="276" y1="450" x2="1384" y2="450" stroke="#F5EDE6" stroke-width="1"/>
  <circle cx="300" cy="417" r="17" fill="#E8E0D8"/>
  <text x="293" y="422" font-size="10" font-weight="600" fill="#8C7E72">CB</text>
  <text x="326" y="411" font-size="13" font-weight="500" fill="#2D2319">Claire Bernard</text>
  <text x="326" y="428" font-size="11" fill="#B0A69E">claire.bernard@email.com</text>
  <rect x="520" y="404" width="98" height="26" rx="13" fill="#E8F4FD"/>
  <text x="569" y="422" font-size="11" font-weight="500" fill="#2A7FD4" text-anchor="middle">Bénéficiaire</text>
  <text x="678" y="422" font-size="12" fill="#4A3F35">Isabelle Morel</text>
  <rect x="876" y="406" width="58" height="24" rx="12" fill="#FFF3E0"/>
  <text x="905" y="422" font-size="11" font-weight="500" fill="#E67E22" text-anchor="middle">Inactif</text>
  <text x="996" y="422" font-size="12" fill="#8C7E72">il y a 12j</text>
  <circle cx="1186" cy="417" r="15" fill="#FEF7F2"/>
  <text x="1182" y="422" font-size="12" fill="#8C7E72">✏</text>
  <circle cx="1222" cy="417" r="15" fill="#FEF7F2"/>
  <text x="1218" y="422" font-size="12" fill="#8C7E72">🔑</text>
  <circle cx="1258" cy="417" r="15" fill="#FEF2F0"/>
  <text x="1254" y="422" font-size="12" fill="#DC2626">🗑</text>

  <!-- Row 4 -->
  <rect x="256" y="450" width="1148" height="66" fill="#FFFBF8"/>
  <line x1="276" y1="516" x2="1384" y2="516" stroke="#F5EDE6" stroke-width="1"/>
  <circle cx="300" cy="483" r="17" fill="#C8F7D8"/>
  <text x="292" y="488" font-size="10" font-weight="600" fill="#22884A">SM</text>
  <text x="326" y="477" font-size="13" font-weight="500" fill="#2D2319">Sophie Martin</text>
  <text x="326" y="494" font-size="11" fill="#B0A69E">sophie.martin@email.com</text>
  <rect x="520" y="470" width="94" height="26" rx="13" fill="#E6F9EE"/>
  <text x="567" y="488" font-size="11" font-weight="500" fill="#22884A" text-anchor="middle">Consultante</text>
  <text x="678" y="488" font-size="12" fill="#B0A69E">—</text>
  <rect x="876" y="472" width="54" height="24" rx="12" fill="#E6F9EE"/>
  <text x="903" y="488" font-size="11" font-weight="500" fill="#22884A" text-anchor="middle">Actif</text>
  <text x="996" y="488" font-size="12" fill="#8C7E72">Aujourd'hui</text>
  <circle cx="1186" cy="483" r="15" fill="#F5EDE6"/>
  <text x="1182" y="488" font-size="12" fill="#8C7E72">✏</text>
  <circle cx="1222" cy="483" r="15" fill="#F5EDE6"/>
  <text x="1218" y="488" font-size="12" fill="#8C7E72">🔑</text>

  <!-- Row 5 -->
  <rect x="256" y="516" width="1148" height="66" fill="#FFFFFF"/>
  <line x1="276" y1="582" x2="1384" y2="582" stroke="#F5EDE6" stroke-width="1"/>
  <circle cx="300" cy="549" r="17" fill="#C8F7D8"/>
  <text x="294" y="554" font-size="10" font-weight="600" fill="#22884A">IM</text>
  <text x="326" y="543" font-size="13" font-weight="500" fill="#2D2319">Isabelle Morel</text>
  <text x="326" y="560" font-size="11" fill="#B0A69E">isabelle.morel@email.com</text>
  <rect x="520" y="536" width="94" height="26" rx="13" fill="#E6F9EE"/>
  <text x="567" y="554" font-size="11" font-weight="500" fill="#22884A" text-anchor="middle">Consultante</text>
  <text x="678" y="554" font-size="12" fill="#B0A69E">—</text>
  <rect x="876" y="538" width="54" height="24" rx="12" fill="#E6F9EE"/>
  <text x="903" y="554" font-size="11" font-weight="500" fill="#22884A" text-anchor="middle">Actif</text>
  <text x="996" y="554" font-size="12" fill="#8C7E72">Hier</text>
  <circle cx="1186" cy="549" r="15" fill="#FEF7F2"/>
  <text x="1182" y="554" font-size="12" fill="#8C7E72">✏</text>
  <circle cx="1222" cy="549" r="15" fill="#FEF7F2"/>
  <text x="1218" y="554" font-size="12" fill="#8C7E72">🔑</text>

  <!-- Pagination -->
  <rect x="256" y="582" width="1148" height="50" fill="#FFFFFF" rx="0"/>
  <rect x="256" y="620" width="1148" height="12" rx="20" fill="#FFFFFF"/>
  <text x="288" y="616" font-size="12" fill="#8C7E72">1 à 5 sur 8</text>
  <rect x="1296" y="598" width="34" height="30" rx="15" fill="#2A7FD4"/>
  <text x="1313" y="617" font-size="12" font-weight="600" fill="#FFFFFF" text-anchor="middle">1</text>
  <rect x="1336" y="598" width="34" height="30" rx="15" fill="#FFFFFF" stroke="#E8DED4" stroke-width="1"/>
  <text x="1353" y="617" font-size="12" fill="#8C7E72" text-anchor="middle">2</text>

  <!-- Modal overlay -->
  <rect width="1440" height="900" fill="rgba(45,35,25,0.35)"/>

  <!-- Modal -->
  <rect x="430" y="130" width="580" height="600" rx="20" fill="#FFFFFF" filter="url(#modalShadow)"/>
  <!-- Warm top accent -->
  <rect x="430" y="130" width="580" height="6" rx="20" fill="#F28C5A"/>
  <rect x="430" y="133" width="580" height="3" fill="#FFFFFF"/>

  <text x="466" y="178" font-size="18" font-weight="700" fill="#2D2319">Créer un utilisateur</text>
  <line x1="430" y1="198" x2="1010" y2="198" stroke="#F5EDE6" stroke-width="1"/>

  <!-- Close -->
  <circle cx="972" cy="168" r="16" fill="#FEF7F2"/>
  <text x="968" y="173" font-size="14" fill="#8C7E72">✕</text>

  <!-- Fields -->
  <text x="466" y="234" font-size="12" font-weight="500" fill="#4A3F35">Prénom</text>
  <rect x="466" y="242" width="248" height="42" rx="16" fill="#FFFFFF" stroke="#E8DED4" stroke-width="1"/>
  <text x="486" y="268" font-size="13" fill="#B0A69E">ex: Marie</text>

  <text x="730" y="234" font-size="12" font-weight="500" fill="#4A3F35">Nom</text>
  <rect x="730" y="242" width="248" height="42" rx="16" fill="#FFFFFF" stroke="#E8DED4" stroke-width="1"/>
  <text x="750" y="268" font-size="13" fill="#B0A69E">ex: Dupont</text>

  <text x="466" y="314" font-size="12" font-weight="500" fill="#4A3F35">Email</text>
  <rect x="466" y="322" width="512" height="42" rx="16" fill="#FFFFFF" stroke="#E8DED4" stroke-width="1"/>
  <text x="486" y="348" font-size="13" fill="#B0A69E">ex: marie.dupont@email.com</text>

  <text x="466" y="394" font-size="12" font-weight="500" fill="#4A3F35">Rôle</text>
  <rect x="466" y="402" width="512" height="42" rx="16" fill="#FFFFFF" stroke="#E8DED4" stroke-width="1"/>
  <text x="486" y="428" font-size="13" fill="#4A3F35">Bénéficiaire</text>
  <text x="958" y="428" font-size="14" fill="#B0A69E">▾</text>

  <text x="466" y="474" font-size="12" font-weight="500" fill="#4A3F35">Consultant assigné</text>
  <rect x="466" y="482" width="512" height="42" rx="16" fill="#FFFFFF" stroke="#E8DED4" stroke-width="1"/>
  <text x="486" y="508" font-size="13" fill="#B0A69E">Sélectionner un consultant…</text>
  <text x="958" y="508" font-size="14" fill="#B0A69E">▾</text>

  <!-- Info note -->
  <rect x="466" y="544" width="512" height="38" rx="16" fill="#FFF3E6"/>
  <text x="488" y="568" font-size="11" fill="#C06930">ℹ Un mot de passe temporaire sera envoyé par email.</text>

  <!-- Buttons -->
  <rect x="466" y="600" width="128" height="42" rx="16" fill="#FFFFFF" stroke="#E8DED4" stroke-width="1"/>
  <text x="530" y="626" font-size="13" font-weight="500" fill="#4A3F35" text-anchor="middle">Annuler</text>
  <rect x="850" y="600" width="128" height="42" rx="16" fill="#2A7FD4"/>
  <text x="914" y="626" font-size="13" font-weight="600" fill="#FFFFFF" text-anchor="middle">Créer le compte</text>
</svg>