<!-- MAQ-07 | Dashboard Admin | Link's Accompagnement | v3.0 | chaleureux | 2026-03-26 -->
<svg xmlns="http://www.w3.org/2000/svg" viewBox="0 0 1440 900" font-family="Inter, system-ui, sans-serif">
  <defs>
    <linearGradient id="sideGrad" x1="0" y1="0" x2="0" y2="1">
      <stop offset="0%" stop-color="#1A4F82"/>
      <stop offset="100%" stop-color="#0D3B6E"/>
    </linearGradient>
    <filter id="warmShadow" x="-3%" y="-3%" width="106%" height="112%">
      <feDropShadow dx="0" dy="3" stdDeviation="8" flood-color="#D4A574" flood-opacity="0.12"/>
    </filter>
    <filter id="cardShadow" x="-2%" y="-2%" width="104%" height="108%">
      <feDropShadow dx="0" dy="2" stdDeviation="5" flood-color="#D4A574" flood-opacity="0.1"/>
    </filter>
    <clipPath id="clip-main"><rect x="220" y="0" width="1220" height="900"/></clipPath>
  </defs>

  <!-- Background -->
  <rect width="1440" height="900" fill="#FFF8F5"/>

  <!-- ==================== SIDEBAR ==================== -->
  <rect x="0" y="0" width="220" height="900" fill="url(#sideGrad)" rx="0"/>

  <!-- Logo area -->
  <text x="48" y="40" font-size="15" font-weight="700" fill="#FFFFFF">Link's</text>
  <text x="48" y="58" font-size="12" fill="#B8D4ED">Accompagnement</text>
  <polygon points="26,28 42,42 26,56" fill="#F28C5A"/>

  <!-- Divider -->
  <line x1="18" y1="76" x2="202" y2="76" stroke="#1E5A90" stroke-width="1"/>

  <!-- Nav: Dashboard (active) -->
  <rect x="10" y="90" width="200" height="48" rx="12" fill="#1E5A90"/>
  <rect x="10" y="90" width="4" height="48" rx="2" fill="#F28C5A"/>
  <rect x="32" y="104" width="20" height="20" rx="5" fill="none" stroke="#FFFFFF" stroke-width="1.5"/>
  <rect x="36" y="108" width="5" height="5" rx="1" fill="#FFFFFF"/>
  <rect x="43" y="108" width="5" height="5" rx="1" fill="#FFFFFF"/>
  <rect x="36" y="115" width="5" height="5" rx="1" fill="#FFFFFF"/>
  <rect x="43" y="115" width="5" height="5" rx="1" fill="#FFFFFF"/>
  <text x="62" y="120" font-size="14" font-weight="600" fill="#FFFFFF">Dashboard</text>

  <!-- Nav: Utilisateurs -->
  <g opacity="0.6">
    <circle cx="42" cy="160" r="9" fill="none" stroke="#FFFFFF" stroke-width="1.5"/>
    <circle cx="42" cy="156" r="3.5" fill="none" stroke="#FFFFFF" stroke-width="1.2"/>
    <path d="M33,169 Q42,164 51,169" fill="none" stroke="#FFFFFF" stroke-width="1.2"/>
    <text x="62" y="164" font-size="14" fill="#FFFFFF">Utilisateurs</text>
  </g>

  <!-- Nav: Documents -->
  <g opacity="0.6">
    <rect x="33" y="186" width="16" height="20" rx="3" fill="none" stroke="#FFFFFF" stroke-width="1.5"/>
    <line x1="37" y1="194" x2="45" y2="194" stroke="#FFFFFF" stroke-width="1.2"/>
    <line x1="37" y1="199" x2="45" y2="199" stroke="#FFFFFF" stroke-width="1.2"/>
    <text x="62" y="200" font-size="14" fill="#FFFFFF">Documents</text>
  </g>

  <!-- Sidebar footer -->
  <text x="110" y="878" font-size="10" fill="#7BADD4" text-anchor="middle">v1.0.0 — 2026</text>

  <!-- ==================== HEADER ==================== -->
  <rect x="220" y="0" width="1220" height="68" fill="#FFFFFF"/>
  <line x1="220" y1="68" x2="1440" y2="68" stroke="#F0E6DD" stroke-width="1"/>

  <!-- Breadcrumb -->
  <text x="260" y="32" font-size="11" fill="#A0927E">Administration</text>
  <text x="260" y="52" font-size="17" font-weight="700" fill="#2C2017">Dashboard</text>

  <!-- Right header -->
  <!-- Bell -->
  <g transform="translate(1196,24)">
    <path d="M0,16 Q0,6 8,4 L8,2 Q8,0 10,0 Q12,0 12,2 L12,4 Q20,6 20,16 L20,18 L0,18Z" fill="none" stroke="#8B7B6B" stroke-width="1.5"/>
    <circle cx="16" cy="6" r="7" fill="#E8553D"/>
    <text x="16" y="9" font-size="9" font-weight="700" fill="#FFFFFF" text-anchor="middle">2</text>
  </g>

  <!-- Déconnexion -->
  <rect x="1236" y="20" width="100" height="32" rx="16" fill="#FFF0E8" stroke="#F2D5C4" stroke-width="1"/>
  <text x="1286" y="40" font-size="11" fill="#8B6B4E" text-anchor="middle">Déconnexion</text>

  <!-- Avatar -->
  <circle cx="1367" cy="35" r="17" fill="#2A7FD4"/>
  <text x="1367" y="40" font-size="14" font-weight="700" fill="#FFFFFF" text-anchor="middle">A</text>

  <!-- User info -->
  <text x="1393" y="30" font-size="12" font-weight="600" fill="#2C2017">Administrateur</text>
  <text x="1393" y="46" font-size="10" fill="#A0927E">super_admin</text>

  <!-- ==================== MAIN CONTENT ==================== -->
  <g clip-path="url(#clip-main)">

  <!-- Title -->
  <text x="260" y="108" font-size="20" font-weight="700" fill="#2C2017">Vue d'ensemble — Link's Accompagnement</text>
  <text x="260" y="130" font-size="13" fill="#A0927E">Données au 23 mars 2026 · Actualisation automatique toutes les 5 min</text>

  <!-- ==================== KPI CARDS ==================== -->
  <!-- Card 1 -->
  <rect x="260" y="148" width="272" height="118" rx="18" fill="#FFFFFF" stroke="#F28C5A" stroke-width="2" filter="url(#cardShadow)"/>
  <circle cx="294" cy="184" r="22" fill="#E8F4FD"/>
  <circle cx="294" cy="180" r="6" fill="none" stroke="#2A7FD4" stroke-width="2"/>
  <path d="M284,193 Q294,188 304,193" fill="none" stroke="#2A7FD4" stroke-width="2"/>
  <circle cx="301" cy="182" r="3.5" fill="none" stroke="#2A7FD4" stroke-width="1.3"/>
  <text x="328" y="188" font-size="30" font-weight="800" fill="#2C2017">12</text>
  <text x="328" y="210" font-size="13" fill="#7B6B5A">Bénéficiaires actifs</text>
  <rect x="328" y="222" width="96" height="24" rx="12" fill="#E8F4FD"/>
  <text x="376" y="238" font-size="11" font-weight="600" fill="#2A7FD4" text-anchor="middle">↑ +2 ce mois</text>

  <!-- Card 2 -->
  <rect x="548" y="148" width="272" height="118" rx="18" fill="#FFFFFF" stroke="#F28C5A" stroke-width="2" filter="url(#cardShadow)"/>
  <circle cx="582" cy="184" r="22" fill="#FFF3EB"/>
  <rect x="572" y="175" width="20" height="18" rx="3" fill="none" stroke="#F28C5A" stroke-width="2"/>
  <polyline points="575,189 582,181 588,186 592,178" fill="none" stroke="#F28C5A" stroke-width="2"/>
  <text x="616" y="188" font-size="30" font-weight="800" fill="#2C2017">47%</text>
  <text x="616" y="210" font-size="13" fill="#7B6B5A">Taux d'avancement moyen</text>
  <rect x="616" y="224" width="170" height="8" rx="4" fill="#F5E6DB"/>
  <rect x="616" y="224" width="80" height="8" rx="4" fill="#F28C5A"/>

  <!-- Card 3 -->
  <rect x="836" y="148" width="272" height="118" rx="18" fill="#FFFFFF" stroke="#22C55E" stroke-width="2" filter="url(#cardShadow)"/>
  <circle cx="870" cy="184" r="22" fill="#ECFDF5"/>
  <path d="M860,184 L868,192 L882,177" fill="none" stroke="#22C55E" stroke-width="2.8" stroke-linecap="round" stroke-linejoin="round"/>
  <text x="904" y="188" font-size="30" font-weight="800" fill="#2C2017">3</text>
  <text x="904" y="210" font-size="13" fill="#7B6B5A">Bilans terminés</text>
  <rect x="904" y="222" width="136" height="24" rx="12" fill="#ECFDF5"/>
  <text x="972" y="238" font-size="11" font-weight="600" fill="#22C55E" text-anchor="middle">sur 12 actifs · 25%</text>

  <!-- Card 4 -->
  <rect x="1124" y="148" width="272" height="118" rx="18" fill="#FFFFFF" stroke="#2A7FD4" stroke-width="2" filter="url(#cardShadow)"/>
  <circle cx="1158" cy="184" r="22" fill="#E8F4FD"/>
  <polygon points="1158,166 1161,176 1172,176 1163,183 1167,193 1158,187 1149,193 1153,183 1144,176 1155,176" fill="#2A7FD4"/>
  <text x="1192" y="188" font-size="30" font-weight="800" fill="#2C2017">2</text>
  <text x="1192" y="210" font-size="13" fill="#7B6B5A">Consultantes actives</text>
  <rect x="1192" y="222" width="116" height="24" rx="12" fill="#E8F4FD"/>
  <text x="1250" y="238" font-size="11" font-weight="600" fill="#2A7FD4" text-anchor="middle">Charge normale</text>

  <!-- ==================== SECTION TITLE ==================== -->
  <text x="260" y="306" font-size="17" font-weight="700" fill="#2C2017">Activité bénéficiaires</text>
  <text x="260" y="326" font-size="13" fill="#A0927E">Suivi en temps réel · 12 bénéficiaires actifs</text>

  <!-- ==================== ACTION BAR ==================== -->
  <rect x="260" y="340" width="290" height="38" rx="18" fill="#FFFFFF" stroke="#F2D5C4" stroke-width="1"/>
  <circle cx="282" cy="359" r="8" fill="none" stroke="#A0927E" stroke-width="1.5"/>
  <line x1="288" y1="365" x2="294" y2="371" stroke="#A0927E" stroke-width="1.5"/>
  <text x="300" y="363" font-size="13" fill="#C4AA90">Rechercher…</text>

  <rect x="1278" y="340" width="118" height="38" rx="18" fill="#F28C5A"/>
  <path d="M1302,355 L1302,365 M1297,360 L1302,365 L1307,360" fill="none" stroke="#FFFFFF" stroke-width="1.5" stroke-linecap="round"/>
  <text x="1318" y="363" font-size="12" font-weight="600" fill="#FFFFFF">Exporter CSV</text>

  <!-- ==================== DATA TABLE ==================== -->
  <rect x="260" y="390" width="1136" height="378" rx="18" fill="#FFFFFF" filter="url(#cardShadow)"/>

  <!-- Table header -->
  <rect x="260" y="390" width="1136" height="44" rx="18" fill="#FFF8F2"/>
  <rect x="260" y="424" width="1136" height="10" fill="#FFF8F2"/>
  <text x="284" y="418" font-size="10" font-weight="700" fill="#8B7B6B" letter-spacing="0.5">BÉNÉFICIAIRE</text>
  <text x="480" y="418" font-size="10" font-weight="700" fill="#8B7B6B" letter-spacing="0.5">CONSULTANTE</text>
  <text x="678" y="418" font-size="10" font-weight="700" fill="#8B7B6B" letter-spacing="0.5">PROGRESSION</text>
  <text x="878" y="418" font-size="10" font-weight="700" fill="#8B7B6B" letter-spacing="0.5">DERNIÈRE CONNEXION</text>
  <text x="1098" y="418" font-size="10" font-weight="700" fill="#8B7B6B" letter-spacing="0.5">STATUT</text>
  <text x="1188" y="418" font-size="10" font-weight="700" fill="#8B7B6B" letter-spacing="0.5">ACTION</text>

  <!-- Row 1: Sophie Martin -->
  <line x1="284" y1="434" x2="1372" y2="434" stroke="#F5E6DB" stroke-width="1"/>
  <circle cx="300" cy="462" r="17" fill="#2A7FD4"/>
  <text x="300" y="467" font-size="10" font-weight="700" fill="#FFFFFF" text-anchor="middle">SM</text>
  <text x="328" y="456" font-size="14" font-weight="600" fill="#2C2017">Sophie Martin</text>
  <text x="328" y="472" font-size="11" fill="#A0927E">sophie.martin@email.fr</text>
  <text x="480" y="456" font-size="13" fill="#2C2017">Claire Dupont</text>
  <text x="480" y="472" font-size="11" fill="#A0927E">Consultante senior</text>
  <text x="678" y="454" font-size="13" font-weight="700" fill="#2C2017">72%</text>
  <rect x="708" y="448" width="120" height="7" rx="3.5" fill="#F5E6DB"/>
  <rect x="708" y="448" width="86" height="7" rx="3.5" fill="#22C55E"/>
  <text x="878" y="456" font-size="12" fill="#2C2017">Aujourd'hui, 10:24</text>
  <text x="878" y="472" font-size="11" fill="#A0927E">il y a 2 heures</text>
  <rect x="1098" y="448" width="54" height="24" rx="12" fill="#ECFDF5"/>
  <text x="1125" y="464" font-size="11" font-weight="600" fill="#22C55E" text-anchor="middle">Actif</text>
  <text x="1188" y="465" font-size="12" font-weight="600" fill="#2A7FD4">Voir le dossier →</text>

  <!-- Row 2: Thomas Leroy -->
  <line x1="284" y1="490" x2="1372" y2="490" stroke="#F5E6DB" stroke-width="1"/>
  <circle cx="300" cy="518" r="17" fill="#7BADD4"/>
  <text x="300" y="523" font-size="10" font-weight="700" fill="#FFFFFF" text-anchor="middle">TL</text>
  <text x="328" y="512" font-size="14" font-weight="600" fill="#2C2017">Thomas Leroy</text>
  <text x="328" y="528" font-size="11" fill="#A0927E">thomas.leroy@email.fr</text>
  <text x="480" y="512" font-size="13" fill="#2C2017">Isabelle Morel</text>
  <text x="480" y="528" font-size="11" fill="#A0927E">Consultante</text>
  <text x="678" y="510" font-size="13" font-weight="700" fill="#2C2017">45%</text>
  <rect x="708" y="504" width="120" height="7" rx="3.5" fill="#F5E6DB"/>
  <rect x="708" y="504" width="54" height="7" rx="3.5" fill="#F28C5A"/>
  <text x="878" y="512" font-size="12" fill="#2C2017">Hier, 15:47</text>
  <text x="878" y="528" font-size="11" fill="#A0927E">il y a 1 jour</text>
  <rect x="1098" y="504" width="54" height="24" rx="12" fill="#ECFDF5"/>
  <text x="1125" y="520" font-size="11" font-weight="600" fill="#22C55E" text-anchor="middle">Actif</text>
  <text x="1188" y="521" font-size="12" font-weight="600" fill="#2A7FD4">Voir le dossier →</text>

  <!-- Row 3: Marie Blanc (ALERT) -->
  <line x1="284" y1="546" x2="1372" y2="546" stroke="#F5E6DB" stroke-width="1"/>
  <rect x="260" y="546" width="1136" height="58" fill="#FFF0E8" rx="0"/>
  <rect x="260" y="546" width="4" height="58" fill="#F28C5A" rx="2"/>
  <circle cx="300" cy="574" r="17" fill="#F2855A"/>
  <text x="300" y="579" font-size="10" font-weight="700" fill="#FFFFFF" text-anchor="middle">MB</text>
  <text x="328" y="568" font-size="14" font-weight="600" fill="#2C2017">Marie Blanc</text>
  <text x="328" y="584" font-size="11" fill="#A0927E">marie.blanc@email.fr</text>
  <text x="480" y="568" font-size="13" fill="#2C2017">Claire Dupont</text>
  <text x="480" y="584" font-size="11" fill="#A0927E">Consultante senior</text>
  <text x="678" y="566" font-size="13" font-weight="700" fill="#2C2017">28%</text>
  <rect x="708" y="560" width="120" height="7" rx="3.5" fill="#F5E6DB"/>
  <rect x="708" y="560" width="34" height="7" rx="3.5" fill="#E8553D"/>
  <text x="878" y="568" font-size="12" fill="#E8553D" font-weight="600">05 mars 2026</text>
  <text x="878" y="584" font-size="11" fill="#E8553D">il y a 18 jours ⚠</text>
  <rect x="1098" y="560" width="58" height="24" rx="12" fill="#FEF2F2"/>
  <text x="1127" y="576" font-size="11" font-weight="600" fill="#E8553D" text-anchor="middle">Inactif</text>
  <circle cx="1172" cy="572" r="11" fill="#F28C5A"/>
  <text x="1172" y="577" font-size="14" font-weight="800" fill="#FFFFFF" text-anchor="middle">!</text>
  <text x="1192" y="577" font-size="12" font-weight="600" fill="#2A7FD4">Voir le dossier →</text>

  <!-- Row 4: Julien Petit -->
  <line x1="284" y1="604" x2="1372" y2="604" stroke="#F5E6DB" stroke-width="1"/>
  <circle cx="300" cy="632" r="17" fill="#2A7FD4"/>
  <text x="300" y="637" font-size="10" font-weight="700" fill="#FFFFFF" text-anchor="middle">JP</text>
  <text x="328" y="626" font-size="14" font-weight="600" fill="#2C2017">Julien Petit</text>
  <text x="328" y="642" font-size="11" fill="#A0927E">julien.petit@email.fr</text>
  <text x="480" y="626" font-size="13" fill="#2C2017">Isabelle Morel</text>
  <text x="480" y="642" font-size="11" fill="#A0927E">Consultante</text>
  <text x="678" y="624" font-size="13" font-weight="700" fill="#2C2017">61%</text>
  <rect x="708" y="618" width="120" height="7" rx="3.5" fill="#F5E6DB"/>
  <rect x="708" y="618" width="73" height="7" rx="3.5" fill="#2A7FD4"/>
  <text x="878" y="626" font-size="12" fill="#2C2017">Aujourd'hui, 08:15</text>
  <text x="878" y="642" font-size="11" fill="#A0927E">il y a 4 heures</text>
  <rect x="1098" y="618" width="54" height="24" rx="12" fill="#ECFDF5"/>
  <text x="1125" y="634" font-size="11" font-weight="600" fill="#22C55E" text-anchor="middle">Actif</text>
  <text x="1188" y="635" font-size="12" font-weight="600" fill="#2A7FD4">Voir le dossier →</text>

  <!-- Pagination -->
  <line x1="284" y1="662" x2="1372" y2="662" stroke="#F5E6DB" stroke-width="1"/>
  <text x="284" y="692" font-size="12" fill="#A0927E">Affichage de 1 à 4 sur 12 bénéficiaires</text>
  <rect x="1282" y="676" width="30" height="30" rx="15" fill="#F28C5A"/>
  <text x="1297" y="695" font-size="12" font-weight="700" fill="#FFFFFF" text-anchor="middle">1</text>
  <rect x="1318" y="676" width="30" height="30" rx="15" fill="#FFF0E8" stroke="#F2D5C4" stroke-width="1"/>
  <text x="1333" y="695" font-size="12" fill="#8B7B6B" text-anchor="middle">2</text>
  <rect x="1354" y="676" width="30" height="30" rx="15" fill="#FFF0E8" stroke="#F2D5C4" stroke-width="1"/>
  <text x="1369" y="695" font-size="12" fill="#8B7B6B" text-anchor="middle">3</text>

  </g>

  <!-- ==================== STATUS BAR ==================== -->
  <rect x="220" y="872" width="1220" height="28" fill="#FFFFFF"/>
  <line x1="220" y1="872" x2="1440" y2="872" stroke="#F2D5C4" stroke-width="1"/>
  <circle cx="240" cy="886" r="4" fill="#22C55E"/>
  <text x="250" y="890" font-size="10" fill="#8B7B6B">Supabase connecté</text>
  <line x1="362" y1="878" x2="362" y2="894" stroke="#F2D5C4" stroke-width="1"/>
  <text x="376" y="890" font-size="10" fill="#A0927E">Dernier refresh : 23 mars 2026, 10:24:07</text>
  <line x1="594" y1="878" x2="594" y2="894" stroke="#F2D5C4" stroke-width="1"/>
  <circle cx="608" cy="886" r="4" fill="#F28C5A"/>
  <text x="618" y="890" font-size="10" fill="#F28C5A">1 alerte active (inactivité &gt; 14j)</text>
  <text x="1420" y="890" font-size="10" fill="#A0927E" text-anchor="end">Link's Accompagnement © 2026 — Unanima Platform v1.0</text>

</svg>
