<!-- MAQ-05 | Fiche Bénéficiaire Consultant | Link's Accompagnement | v3.0 | chaleureux | 2026-03-26 -->
<svg xmlns="http://www.w3.org/2000/svg" viewBox="0 0 1440 900" width="1440" height="900" font-family="Inter, system-ui, sans-serif">
  <defs>
    <clipPath id="viewport"><rect width="1440" height="900" rx="0"/></clipPath>
    <filter id="shadow1" x="-4%" y="-4%" width="108%" height="112%">
      <feDropShadow dx="0" dy="2" stdDeviation="6" flood-opacity="0.06"/>
    </filter>
    <filter id="shadow2" x="-4%" y="-4%" width="108%" height="116%">
      <feDropShadow dx="0" dy="4" stdDeviation="10" flood-opacity="0.08"/>
    </filter>
  </defs>
  <g clip-path="url(#viewport)">
    <!-- Background -->
    <rect width="1440" height="900" fill="#FFF8F5"/>

    <!-- ==================== SIDEBAR (220px) ==================== -->
    <rect width="220" height="900" fill="#0D3B6E" rx="0"/>
    <!-- Logo area -->
    <text x="28" y="42" font-size="22" font-weight="700" fill="#FFFFFF">Link's</text>
    <text x="28" y="62" font-size="12" fill="#A3C4E0" letter-spacing="0.5">Accompagnement</text>
    <!-- Orange accent polygon -->
    <polygon points="178,26 202,38 178,50" fill="#F28C5A"/>
    <!-- Divider -->
    <line x1="24" y1="80" x2="196" y2="80" stroke="#1A4F82" stroke-width="1"/>

    <!-- Nav items -->
    <!-- Dashboard -->
    <g opacity="0.65">
      <rect x="14" y="96" width="192" height="44" rx="16" fill="transparent"/>
      <circle cx="38" cy="118" r="8" fill="none" stroke="#A3C4E0" stroke-width="1.5"/>
      <rect x="34" y="115" width="8" height="1.5" rx="0.75" fill="#A3C4E0"/>
      <rect x="34" y="119" width="8" height="1.5" rx="0.75" fill="#A3C4E0"/>
      <text x="54" y="123" font-size="13" fill="#B8D0E8">Dashboard</text>
    </g>
    <!-- Mes bénéficiaires (active) -->
    <g>
      <rect x="14" y="144" width="192" height="44" rx="16" fill="rgba(255,255,255,0.12)"/>
      <circle cx="38" cy="166" r="8" fill="none" stroke="#FFFFFF" stroke-width="1.5"/>
      <circle cx="38" cy="164" r="3" fill="#FFFFFF"/>
      <ellipse cx="38" cy="171" rx="5" ry="3" fill="none" stroke="#FFFFFF" stroke-width="1"/>
      <text x="54" y="171" font-size="13" font-weight="600" fill="#FFFFFF">Mes bénéficiaires</text>
    </g>
    <!-- Agenda -->
    <g opacity="0.65">
      <rect x="14" y="196" width="192" height="44" rx="16" fill="transparent"/>
      <text x="54" y="223" font-size="13" fill="#B8D0E8">Agenda</text>
    </g>
    <!-- Documents -->
    <g opacity="0.65">
      <rect x="14" y="248" width="192" height="44" rx="16" fill="transparent"/>
      <text x="54" y="275" font-size="13" fill="#B8D0E8">Documents</text>
    </g>
    <!-- Rapports -->
    <g opacity="0.65">
      <rect x="14" y="300" width="192" height="44" rx="16" fill="transparent"/>
      <text x="54" y="327" font-size="13" fill="#B8D0E8">Rapports</text>
    </g>
    <!-- Profil -->
    <g opacity="0.65">
      <rect x="14" y="352" width="192" height="44" rx="16" fill="transparent"/>
      <text x="54" y="379" font-size="13" fill="#B8D0E8">Profil</text>
    </g>

    <!-- ==================== HEADER (64px) ==================== -->
    <rect x="220" y="0" width="1220" height="64" fill="#FFFFFF"/>
    <line x1="220" y1="64" x2="1440" y2="64" stroke="#F0E6DF" stroke-width="1"/>
    <!-- Breadcrumb -->
    <text x="256" y="37" font-size="13" fill="#A09088">Mes bénéficiaires</text>
    <text x="374" y="37" font-size="13" fill="#A09088"> &gt; </text>
    <text x="394" y="37" font-size="14" font-weight="600" fill="#2D2017">Marie Dupont</text>
    <!-- User area (right) -->
    <circle cx="1326" cy="32" r="18" fill="#FDE8D8"/>
    <text x="1320" y="37" font-size="10" font-weight="600" fill="#0D3B6E">SM</text>
    <text x="1352" y="28" font-size="12" font-weight="600" fill="#2D2017">Sophie Martin</text>
    <text x="1352" y="42" font-size="11" fill="#A09088">Consultante</text>

    <!-- ==================== MAIN CONTENT ==================== -->
    <!-- Profile card -->
    <rect x="256" y="84" width="628" height="132" rx="20" fill="#FFFFFF" filter="url(#shadow2)" stroke="#F0E6DF" stroke-width="1"/>
    <!-- Avatar -->
    <circle cx="320" cy="150" r="36" fill="#2A7FD4"/>
    <text x="305" y="157" font-size="20" font-weight="700" fill="#FFFFFF">MD</text>
    <!-- Name and info -->
    <text x="370" y="118" font-size="20" font-weight="700" fill="#2D2017">Marie Dupont</text>
    <!-- Status badge -->
    <rect x="530" y="102" width="118" height="28" rx="14" fill="#FFF0E3" stroke="#FDDCBF" stroke-width="1"/>
    <text x="549" y="121" font-size="11" font-weight="600" fill="#D97706">Bilan en cours</text>
    <!-- Contact info -->
    <text x="370" y="142" font-size="12.5" fill="#6D6057">marie.dupont@email.com</text>
    <circle cx="523" cy="138" r="2" fill="#D4C8BF"/>
    <text x="534" y="142" font-size="12.5" fill="#6D6057">06 12 34 56 78</text>
    <!-- Meta row -->
    <text x="370" y="166" font-size="11" fill="#A09088">Inscription : 15/03/2026</text>
    <circle cx="518" cy="162" r="2" fill="#D4C8BF"/>
    <text x="528" y="166" font-size="11" fill="#A09088">Consultant : Sophie Martin</text>

    <!-- ==================== RIGHT PANEL (300px) ==================== -->
    <!-- Prochaine séance -->
    <rect x="908" y="84" width="308" height="132" rx="20" fill="#FFFFFF" filter="url(#shadow2)" stroke="#F0E6DF" stroke-width="1"/>
    <text x="932" y="116" font-size="14" font-weight="700" fill="#2D2017">Prochaine séance</text>
    <line x1="932" y1="128" x2="1192" y2="128" stroke="#F5EDE7" stroke-width="1"/>
    <text x="932" y="152" font-size="14" font-weight="600" fill="#3D3027">Séance 3</text>
    <text x="932" y="172" font-size="12.5" fill="#6D6057">29/04/2026 à 14h00</text>
    <rect x="932" y="184" width="132" height="32" rx="16" fill="#2A7FD4"/>
    <text x="957" y="204" font-size="12" font-weight="600" fill="#FFFFFF">Rejoindre visio</text>

    <!-- Actions rapides -->
    <rect x="908" y="232" width="308" height="188" rx="20" fill="#FFFFFF" filter="url(#shadow2)" stroke="#F0E6DF" stroke-width="1"/>
    <text x="932" y="264" font-size="14" font-weight="700" fill="#2D2017">Actions rapides</text>
    <line x1="932" y1="278" x2="1192" y2="278" stroke="#F5EDE7" stroke-width="1"/>
    <!-- Action 1 -->
    <rect x="932" y="292" width="260" height="40" rx="16" fill="#FFF8F5" stroke="#F0E6DF" stroke-width="1"/>
    <text x="952" y="317" font-size="12.5" fill="#3D3027">Planifier une séance</text>
    <text x="1172" y="317" font-size="16" fill="#A09088">&#x203A;</text>
    <!-- Action 2 -->
    <rect x="932" y="340" width="260" height="40" rx="16" fill="#FFF8F5" stroke="#F0E6DF" stroke-width="1"/>
    <text x="952" y="365" font-size="12.5" fill="#3D3027">Saisir un compte-rendu</text>
    <text x="1172" y="365" font-size="16" fill="#A09088">&#x203A;</text>
    <!-- Action 3 -->
    <rect x="932" y="388" width="260" height="40" rx="16" fill="#FFF8F5" stroke="#F0E6DF" stroke-width="1"/>
    <text x="952" y="413" font-size="12.5" fill="#3D3027">Voir les documents</text>
    <text x="1172" y="413" font-size="16" fill="#A09088">&#x203A;</text>

    <!-- ==================== TAB NAVIGATION ==================== -->
    <rect x="256" y="228" width="628" height="44" rx="0" fill="transparent"/>
    <line x1="256" y1="272" x2="884" y2="272" stroke="#F0E6DF" stroke-width="1"/>
    <!-- Parcours (active) -->
    <text x="280" y="256" font-size="14" font-weight="600" fill="#2A7FD4">Parcours</text>
    <rect x="280" y="268" width="64" height="4" rx="2" fill="#2A7FD4"/>
    <!-- Comptes-rendus -->
    <text x="378" y="256" font-size="14" fill="#A09088">Comptes-rendus</text>
    <!-- Planification -->
    <text x="500" y="256" font-size="14" fill="#A09088">Planification</text>
    <!-- Documents -->
    <text x="610" y="256" font-size="14" fill="#A09088">Documents</text>

    <!-- ==================== PROGRESS OVERVIEW ==================== -->
    <rect x="256" y="288" width="628" height="76" rx="18" fill="#FFFFFF" filter="url(#shadow1)" stroke="#F0E6DF" stroke-width="1"/>
    <text x="280" y="316" font-size="14" font-weight="700" fill="#2D2017">Progression globale</text>
    <text x="700" y="316" font-size="13" font-weight="600" fill="#2A7FD4">33%</text>
    <!-- Progress bar bg -->
    <rect x="280" y="328" width="580" height="10" rx="5" fill="#F0E6DF"/>
    <!-- Progress bar fill 33% -->
    <rect x="280" y="328" width="191" height="10" rx="5" fill="#2A7FD4"/>
    <text x="280" y="354" font-size="11.5" fill="#A09088">2 phases validées · 1 en cours · 3 à compléter</text>

    <!-- ==================== PHASE CARDS ==================== -->
    <!-- Phase 1: Validated -->
    <rect x="256" y="378" width="628" height="80" rx="18" fill="#FFFFFF" filter="url(#shadow1)" stroke="#F0E6DF" stroke-width="1"/>
    <rect x="256" y="378" width="5" height="80" rx="2.5" fill="#22C55E"/>
    <circle cx="292" cy="418" r="18" fill="#ECFDF5" stroke="#22C55E" stroke-width="1.5"/>
    <text x="288" y="423" font-size="13" font-weight="700" fill="#22C55E">1</text>
    <text x="322" y="406" font-size="14" font-weight="600" fill="#2D2017">Définir mon projet</text>
    <rect x="478" y="392" width="148" height="24" rx="12" fill="#ECFDF5" stroke="#A7F3D0" stroke-width="1"/>
    <text x="492" y="408" font-size="10.5" font-weight="600" fill="#16A34A">&#x2713; Validé le 28/03/2026</text>
    <text x="322" y="430" font-size="11.5" fill="#A09088">5 réponses complétées</text>
    <text x="770" y="418" font-size="12.5" font-weight="500" fill="#2A7FD4">Voir les réponses &#x203A;</text>

    <!-- Phase 2: In Progress -->
    <rect x="256" y="466" width="628" height="80" rx="18" fill="#FFFFFF" filter="url(#shadow1)" stroke="#F0E6DF" stroke-width="1"/>
    <rect x="256" y="466" width="5" height="80" rx="2.5" fill="#F28C5A"/>
    <circle cx="292" cy="506" r="18" fill="#FFF7ED" stroke="#F28C5A" stroke-width="1.5"/>
    <text x="288" y="511" font-size="13" font-weight="700" fill="#F28C5A">2</text>
    <text x="322" y="494" font-size="14" font-weight="600" fill="#2D2017">Explorer mes compétences</text>
    <rect x="498" y="480" width="76" height="24" rx="12" fill="#FFF7ED" stroke="#FED7AA" stroke-width="1"/>
    <text x="514" y="496" font-size="10.5" font-weight="600" fill="#EA780E">En cours</text>
    <text x="322" y="518" font-size="11.5" fill="#A09088">3/5 réponses</text>
    <!-- Mini progress bar -->
    <rect x="420" y="511" width="90" height="6" rx="3" fill="#F0E6DF"/>
    <rect x="420" y="511" width="54" height="6" rx="3" fill="#F28C5A"/>
    <text x="770" y="506" font-size="12.5" font-weight="500" fill="#2A7FD4">Voir les réponses &#x203A;</text>

    <!-- Phase 3: Not started -->
    <rect x="256" y="554" width="628" height="80" rx="18" fill="#FFFFFF" filter="url(#shadow1)" stroke="#F0E6DF" stroke-width="1"/>
    <rect x="256" y="554" width="5" height="80" rx="2.5" fill="#D4C8BF"/>
    <circle cx="292" cy="594" r="18" fill="#F9F5F2" stroke="#D4C8BF" stroke-width="1.5"/>
    <text x="288" y="599" font-size="13" font-weight="700" fill="#A09088">3</text>
    <text x="322" y="582" font-size="14" font-weight="600" fill="#7D7068">Analyser mon marché</text>
    <rect x="478" y="568" width="112" height="24" rx="12" fill="#F9F5F2" stroke="#E8DDD5" stroke-width="1"/>
    <text x="492" y="584" font-size="10.5" font-weight="600" fill="#A09088">Non commencée</text>
    <text x="322" y="610" font-size="11.5" fill="#B8ADA5">0/4 réponses</text>
    <text x="770" y="594" font-size="12.5" font-weight="500" fill="#D4C8BF">Voir les réponses &#x203A;</text>

    <!-- Phase 4: Not started -->
    <rect x="256" y="642" width="628" height="80" rx="18" fill="#FFFFFF" filter="url(#shadow1)" stroke="#F0E6DF" stroke-width="1"/>
    <rect x="256" y="642" width="5" height="80" rx="2.5" fill="#D4C8BF"/>
    <circle cx="292" cy="682" r="18" fill="#F9F5F2" stroke="#D4C8BF" stroke-width="1.5"/>
    <text x="288" y="687" font-size="13" font-weight="700" fill="#A09088">4</text>
    <text x="322" y="670" font-size="14" font-weight="600" fill="#7D7068">Construire mon plan</text>
    <rect x="478" y="656" width="112" height="24" rx="12" fill="#F9F5F2" stroke="#E8DDD5" stroke-width="1"/>
    <text x="492" y="672" font-size="10.5" font-weight="600" fill="#A09088">Non commencée</text>
    <text x="322" y="698" font-size="11.5" fill="#B8ADA5">0/4 réponses</text>
    <text x="770" y="682" font-size="12.5" font-weight="500" fill="#D4C8BF">Voir les réponses &#x203A;</text>

    <!-- Phase 5: Not started -->
    <rect x="256" y="730" width="628" height="80" rx="18" fill="#FFFFFF" filter="url(#shadow1)" stroke="#F0E6DF" stroke-width="1"/>
    <rect x="256" y="730" width="5" height="80" rx="2.5" fill="#D4C8BF"/>
    <circle cx="292" cy="770" r="18" fill="#F9F5F2" stroke="#D4C8BF" stroke-width="1.5"/>
    <text x="288" y="775" font-size="13" font-weight="700" fill="#A09088">5</text>
    <text x="322" y="758" font-size="14" font-weight="600" fill="#7D7068">Préparer mon entretien</text>
    <rect x="498" y="744" width="112" height="24" rx="12" fill="#F9F5F2" stroke="#E8DDD5" stroke-width="1"/>
    <text x="512" y="760" font-size="10.5" font-weight="600" fill="#A09088">Non commencée</text>
    <text x="322" y="786" font-size="11.5" fill="#B8ADA5">0/3 réponses</text>
    <text x="770" y="770" font-size="12.5" font-weight="500" fill="#D4C8BF">Voir les réponses &#x203A;</text>

    <!-- Phase 6: Not started -->
    <rect x="256" y="818" width="628" height="80" rx="18" fill="#FFFFFF" filter="url(#shadow1)" stroke="#F0E6DF" stroke-width="1"/>
    <rect x="256" y="818" width="5" height="80" rx="2.5" fill="#D4C8BF"/>
    <circle cx="292" cy="858" r="18" fill="#F9F5F2" stroke="#D4C8BF" stroke-width="1.5"/>
    <text x="288" y="863" font-size="13" font-weight="700" fill="#A09088">6</text>
    <text x="322" y="846" font-size="14" font-weight="600" fill="#7D7068">Finaliser mon bilan</text>
    <rect x="478" y="832" width="112" height="24" rx="12" fill="#F9F5F2" stroke="#E8DDD5" stroke-width="1"/>
    <text x="492" y="848" font-size="10.5" font-weight="600" fill="#A09088">Non commencée</text>
    <text x="322" y="874" font-size="11.5" fill="#B8ADA5">0/3 réponses</text>
    <text x="770" y="858" font-size="12.5" font-weight="500" fill="#D4C8BF">Voir les réponses &#x203A;</text>

  </g>
</svg>
