<!-- MAQ-13 | Gestion Documents Admin | Link's Accompagnement | v3.0 | chaleureux | 2026-03-26 -->
<svg xmlns="http://www.w3.org/2000/svg" viewBox="0 0 1440 900" width="1440" height="900" font-family="Inter, system-ui, sans-serif">
  <defs>
    <filter id="shadowSoft" x="-3%" y="-3%" width="106%" height="106%">
      <feDropShadow dx="0" dy="3" stdDeviation="8" flood-opacity="0.07"/>
    </filter>
    <filter id="shadowCard" x="-2%" y="-2%" width="104%" height="104%">
      <feDropShadow dx="0" dy="2" stdDeviation="5" flood-opacity="0.06"/>
    </filter>
    <linearGradient id="warmGrad" x1="0" y1="0" x2="0" y2="1">
      <stop offset="0%" stop-color="#FFF8F5"/>
      <stop offset="100%" stop-color="#FFF1EB"/>
    </linearGradient>
    <linearGradient id="uploadGrad" x1="0" y1="0" x2="1" y2="1">
      <stop offset="0%" stop-color="#FFF8F5"/>
      <stop offset="100%" stop-color="#EFF6FF"/>
    </linearGradient>
  </defs>

  <!-- Background -->
  <rect width="1440" height="900" fill="#FFF8F5"/>

  <!-- Sidebar -->
  <rect width="220" height="900" rx="0" fill="#0D3B6E"/>
  <rect x="210" y="20" width="10" height="860" rx="5" fill="#0D3B6E"/>

  <!-- Logo -->
  <polygon points="32,28 52,16 52,44 32,56" fill="#F28C5A" opacity="0.95"/>
  <text x="60" y="34" font-size="17" font-weight="700" fill="#FFFFFF">Link's</text>
  <text x="60" y="52" font-size="11" fill="#A8C8E8">Accompagnement</text>

  <line x1="24" y1="72" x2="196" y2="72" stroke="#1A4F80" stroke-width="1" opacity="0.5"/>

  <!-- Nav: Dashboard -->
  <rect x="14" y="88" width="192" height="44" rx="16" fill="transparent"/>
  <rect x="30" y="100" width="16" height="14" rx="4" fill="none" stroke="#8BAFC9" stroke-width="1.5"/>
  <rect x="34" y="104" width="4" height="6" rx="1" fill="#8BAFC9"/>
  <rect x="40" y="107" width="4" height="3" rx="1" fill="#8BAFC9"/>
  <text x="56" y="112" font-size="13" fill="#8BAFC9">Dashboard</text>

  <!-- Nav: Utilisateurs -->
  <rect x="14" y="138" width="192" height="44" rx="16" fill="transparent"/>
  <circle cx="40" cy="155" r="5" fill="none" stroke="#8BAFC9" stroke-width="1.5"/>
  <path d="M32,166 Q36,160 40,160 Q44,160 48,166" fill="none" stroke="#8BAFC9" stroke-width="1.5"/>
  <text x="56" y="161" font-size="13" fill="#8BAFC9">Utilisateurs</text>

  <!-- Nav: Documents (active) -->
  <rect x="14" y="188" width="192" height="44" rx="16" fill="#F28C5A" opacity="0.15"/>
  <rect x="14" y="188" width="192" height="44" rx="16" fill="none" stroke="#F28C5A" stroke-width="1.5" opacity="0.4"/>
  <rect x="30" y="200" width="14" height="18" rx="3" fill="none" stroke="#FFFFFF" stroke-width="1.5"/>
  <path d="M34,207 L40,207 M34,211 L38,211" stroke="#FFFFFF" stroke-width="1.2"/>
  <text x="56" y="215" font-size="13" font-weight="600" fill="#FFFFFF">Documents</text>
  <!-- Active indicator dot -->
  <circle cx="198" cy="210" r="4" fill="#F28C5A"/>

  <!-- Header -->
  <rect x="220" y="0" width="1220" height="64" fill="#FFFFFF" filter="url(#shadowCard)"/>

  <!-- Breadcrumb -->
  <text x="256" y="37" font-size="13" fill="#9CA3AF">Administration</text>
  <text x="353" y="37" font-size="14" fill="#CBD5E1">›</text>
  <text x="368" y="37" font-size="13" font-weight="600" fill="#2A7FD4">Documents</text>

  <!-- User info -->
  <circle cx="1334" cy="32" r="18" fill="#FFF1EB"/>
  <text x="1328" y="37" font-size="13" font-weight="600" fill="#F28C5A">A</text>
  <text x="1282" y="27" font-size="12" font-weight="500" fill="#1E293B" text-anchor="end">Administrateur</text>
  <text x="1282" y="43" font-size="11" fill="#9CA3AF" text-anchor="end">super_admin</text>
  <!-- Logout -->
  <g transform="translate(1370,24)">
    <path d="M0,0 L10,0 L10,16 L0,16" fill="none" stroke="#9CA3AF" stroke-width="1.5" stroke-linecap="round"/>
    <path d="M4,8 L14,8 M11,5 L14,8 L11,11" fill="none" stroke="#9CA3AF" stroke-width="1.5" stroke-linecap="round" stroke-linejoin="round"/>
  </g>

  <!-- Title -->
  <text x="256" y="108" font-size="20" font-weight="700" fill="#1E293B">Gestion des documents par phase</text>
  <text x="256" y="130" font-size="13" fill="#6B7280">Ajoutez, organisez et supprimez les documents mis à disposition des bénéficiaires.</text>

  <!-- Phase tabs (warm rounded pills) -->
  <g transform="translate(256,148)">
    <!-- Active: Phase 1 -->
    <rect x="0" y="0" width="106" height="40" rx="20" fill="#2A7FD4"/>
    <text x="53" y="26" font-size="13" font-weight="600" fill="#FFFFFF" text-anchor="middle">Phase 1</text>

    <rect x="114" y="0" width="106" height="40" rx="20" fill="#FFFFFF" stroke="#E5E7EB" stroke-width="1.2"/>
    <text x="167" y="26" font-size="13" fill="#6B7280" text-anchor="middle">Phase 2</text>

    <rect x="228" y="0" width="106" height="40" rx="20" fill="#FFFFFF" stroke="#E5E7EB" stroke-width="1.2"/>
    <text x="281" y="26" font-size="13" fill="#6B7280" text-anchor="middle">Phase 3</text>

    <rect x="342" y="0" width="106" height="40" rx="20" fill="#FFFFFF" stroke="#E5E7EB" stroke-width="1.2"/>
    <text x="395" y="26" font-size="13" fill="#6B7280" text-anchor="middle">Phase 4</text>

    <rect x="456" y="0" width="106" height="40" rx="20" fill="#FFFFFF" stroke="#E5E7EB" stroke-width="1.2"/>
    <text x="509" y="26" font-size="13" fill="#6B7280" text-anchor="middle">Phase 5</text>

    <rect x="570" y="0" width="106" height="40" rx="20" fill="#FFFFFF" stroke="#E5E7EB" stroke-width="1.2"/>
    <text x="623" y="26" font-size="13" fill="#6B7280" text-anchor="middle">Phase 6</text>
  </g>

  <!-- Upload zone (warm style with illustration feel) -->
  <rect x="256" y="206" width="696" height="140" rx="20" fill="url(#uploadGrad)" stroke="#F28C5A" stroke-width="1.5" stroke-dasharray="10,5" opacity="0.85"/>
  <rect x="256" y="206" width="696" height="140" rx="20" fill="url(#uploadGrad)" stroke="#2A7FD4" stroke-width="1" stroke-dasharray="10,5" opacity="0.3"/>

  <!-- Cloud upload icon with warm feel -->
  <g transform="translate(564,220)">
    <ellipse cx="16" cy="30" rx="24" ry="6" fill="#F28C5A" opacity="0.1"/>
    <path d="M4,24 Q0,24 0,20 Q0,14 6,14 Q7,8 14,8 Q20,8 22,12 Q28,12 28,18 Q28,24 22,24" fill="none" stroke="#2A7FD4" stroke-width="2" stroke-linecap="round"/>
    <path d="M14,28 L14,16" stroke="#F28C5A" stroke-width="2" stroke-linecap="round"/>
    <path d="M9,20 L14,15 L19,20" fill="none" stroke="#F28C5A" stroke-width="2" stroke-linecap="round" stroke-linejoin="round"/>
  </g>
  <text x="604" y="275" font-size="14" fill="#4B5563" text-anchor="middle">Glissez vos fichiers ici ou </text>
  <text x="716" y="275" font-size="14" fill="#2A7FD4" font-weight="600" text-decoration="underline">Parcourir</text>
  <text x="604" y="296" font-size="11" fill="#9CA3AF" text-anchor="middle">PDF ou DOCX · Max 10 Mo · 3 documents max par phase</text>
  <!-- Warm counter badge -->
  <rect x="536" y="308" width="210" height="26" rx="13" fill="#FFF1EB"/>
  <text x="641" y="326" font-size="12" font-weight="600" fill="#F28C5A" text-anchor="middle">2/3 documents pour cette phase</text>

  <!-- Document list card -->
  <rect x="256" y="364" width="696" height="170" rx="18" fill="#FFFFFF" filter="url(#shadowSoft)"/>

  <!-- Table header -->
  <rect x="256" y="364" width="696" height="42" rx="18" fill="#FAFBFC"/>
  <rect x="256" y="388" width="696" height="18" fill="#FAFBFC"/>
  <text x="300" y="391" font-size="11" font-weight="600" fill="#9CA3AF" letter-spacing="0.5">DOCUMENT</text>
  <text x="556" y="391" font-size="11" font-weight="600" fill="#9CA3AF" letter-spacing="0.5">TYPE</text>
  <text x="632" y="391" font-size="11" font-weight="600" fill="#9CA3AF" letter-spacing="0.5">TAILLE</text>
  <text x="720" y="391" font-size="11" font-weight="600" fill="#9CA3AF" letter-spacing="0.5">AJOUTÉ LE</text>
  <text x="832" y="391" font-size="11" font-weight="600" fill="#9CA3AF" letter-spacing="0.5">ORDRE</text>
  <text x="896" y="391" font-size="11" font-weight="600" fill="#9CA3AF" letter-spacing="0.5">ACTIONS</text>

  <!-- Row 1 -->
  <line x1="272" y1="412" x2="936" y2="412" stroke="#F3F4F6" stroke-width="1"/>
  <!-- Drag handle -->
  <g transform="translate(270,424)">
    <line x1="0" y1="2" x2="12" y2="2" stroke="#D1D5DB" stroke-width="2" stroke-linecap="round"/>
    <line x1="0" y1="7" x2="12" y2="7" stroke="#D1D5DB" stroke-width="2" stroke-linecap="round"/>
    <line x1="0" y1="12" x2="12" y2="12" stroke="#D1D5DB" stroke-width="2" stroke-linecap="round"/>
  </g>
  <text x="300" y="437" font-size="13" fill="#1E293B">Guide de définition de projet.pdf</text>
  <!-- PDF badge warm red -->
  <rect x="550" y="422" width="44" height="24" rx="12" fill="#FEE2E2"/>
  <text x="572" y="438" font-size="10" font-weight="700" fill="#DC2626" text-anchor="middle">PDF</text>
  <text x="632" y="438" font-size="12" fill="#6B7280">245 Ko</text>
  <text x="720" y="438" font-size="12" fill="#6B7280">20/03/2026</text>
  <!-- Order badge -->
  <rect x="836" y="422" width="28" height="24" rx="12" fill="#EFF6FF"/>
  <text x="850" y="438" font-size="12" font-weight="600" fill="#2A7FD4" text-anchor="middle">1</text>
  <!-- Actions -->
  <g transform="translate(896,424)">
    <rect x="0" y="0" width="30" height="24" rx="12" fill="#F9FAFB" stroke="#E5E7EB" stroke-width="1"/>
    <path d="M11,6 L11,16 M9,6 L15,6 L13,16 L9,16 Z" fill="none" stroke="#6B7280" stroke-width="1.2" stroke-linecap="round" transform="scale(0.8) translate(3,1)"/>
    <rect x="38" y="0" width="30" height="24" rx="12" fill="#FEF2F2" stroke="#FECACA" stroke-width="1"/>
    <path d="M49,6 L49,16 M46,6 L52,6 M47,6 L47,4 L51,4 L51,6 M45,6 L53,6" fill="none" stroke="#DC2626" stroke-width="1.1" stroke-linecap="round"/>
  </g>

  <!-- Row 2 -->
  <line x1="272" y1="456" x2="936" y2="456" stroke="#F3F4F6" stroke-width="1"/>
  <g transform="translate(270,468)">
    <line x1="0" y1="2" x2="12" y2="2" stroke="#D1D5DB" stroke-width="2" stroke-linecap="round"/>
    <line x1="0" y1="7" x2="12" y2="7" stroke="#D1D5DB" stroke-width="2" stroke-linecap="round"/>
    <line x1="0" y1="12" x2="12" y2="12" stroke="#D1D5DB" stroke-width="2" stroke-linecap="round"/>
  </g>
  <text x="300" y="481" font-size="13" fill="#1E293B">Fiche d'auto-évaluation.docx</text>
  <!-- DOCX badge blue -->
  <rect x="546" y="466" width="52" height="24" rx="12" fill="#DBEAFE"/>
  <text x="572" y="482" font-size="10" font-weight="700" fill="#2563EB" text-anchor="middle">DOCX</text>
  <text x="632" y="482" font-size="12" fill="#6B7280">128 Ko</text>
  <text x="720" y="482" font-size="12" fill="#6B7280">20/03/2026</text>
  <rect x="836" y="466" width="28" height="24" rx="12" fill="#EFF6FF"/>
  <text x="850" y="482" font-size="12" font-weight="600" fill="#2A7FD4" text-anchor="middle">2</text>
  <g transform="translate(896,468)">
    <rect x="0" y="0" width="30" height="24" rx="12" fill="#F9FAFB" stroke="#E5E7EB" stroke-width="1"/>
    <path d="M11,6 L11,16 M9,6 L15,6 L13,16 L9,16 Z" fill="none" stroke="#6B7280" stroke-width="1.2" stroke-linecap="round" transform="scale(0.8) translate(3,1)"/>
    <rect x="38" y="0" width="30" height="24" rx="12" fill="#FEF2F2" stroke="#FECACA" stroke-width="1"/>
    <path d="M49,6 L49,16 M46,6 L52,6 M47,6 L47,4 L51,4 L51,6 M45,6 L53,6" fill="none" stroke="#DC2626" stroke-width="1.1" stroke-linecap="round"/>
  </g>

  <!-- Phase summary panel -->
  <rect x="976" y="206" width="432" height="328" rx="20" fill="#FFFFFF" filter="url(#shadowSoft)"/>
  <!-- Warm accent bar -->
  <rect x="976" y="206" width="432" height="6" rx="3" fill="#F28C5A" opacity="0.5"/>

  <text x="1004" y="242" font-size="15" font-weight="700" fill="#1E293B">Résumé par phase</text>
  <line x1="1004" y1="256" x2="1388" y2="256" stroke="#F3F4F6" stroke-width="1"/>

  <g transform="translate(1004,268)">
    <!-- Phase 1 (active/highlighted) -->
    <rect x="0" y="0" width="384" height="36" rx="16" fill="#EFF6FF"/>
    <circle cx="18" cy="18" r="10" fill="#2A7FD4"/>
    <text x="18" y="22" font-size="10" font-weight="700" fill="#FFFFFF" text-anchor="middle">1</text>
    <text x="38" y="23" font-size="12" font-weight="600" fill="#1E293B">Phase 1</text>
    <rect x="326" y="8" width="48" height="22" rx="11" fill="#2A7FD4"/>
    <text x="350" y="23" font-size="11" font-weight="600" fill="#FFFFFF" text-anchor="middle">2 docs</text>

    <!-- Phase 2 -->
    <rect x="0" y="42" width="384" height="36" rx="16" fill="transparent"/>
    <circle cx="18" cy="60" r="10" fill="#F3F4F6"/>
    <text x="18" y="64" font-size="10" font-weight="600" fill="#6B7280" text-anchor="middle">2</text>
    <text x="38" y="65" font-size="12" fill="#4B5563">Phase 2</text>
    <rect x="330" y="50" width="40" height="22" rx="11" fill="#F3F4F6"/>
    <text x="350" y="65" font-size="11" fill="#6B7280" text-anchor="middle">1 doc</text>

    <!-- Phase 3 -->
    <rect x="0" y="84" width="384" height="36" rx="16" fill="transparent"/>
    <circle cx="18" cy="102" r="10" fill="#F3F4F6"/>
    <text x="18" y="106" font-size="10" font-weight="600" fill="#9CA3AF" text-anchor="middle">3</text>
    <text x="38" y="107" font-size="12" fill="#9CA3AF">Phase 3</text>
    <rect x="326" y="92" width="48" height="22" rx="11" fill="#F3F4F6"/>
    <text x="350" y="107" font-size="11" fill="#9CA3AF" text-anchor="middle">0 docs</text>

    <!-- Phase 4 -->
    <rect x="0" y="126" width="384" height="36" rx="16" fill="transparent"/>
    <circle cx="18" cy="144" r="10" fill="#F3F4F6"/>
    <text x="18" y="148" font-size="10" font-weight="600" fill="#9CA3AF" text-anchor="middle">4</text>
    <text x="38" y="149" font-size="12" fill="#9CA3AF">Phase 4</text>
    <rect x="326" y="134" width="48" height="22" rx="11" fill="#F3F4F6"/>
    <text x="350" y="149" font-size="11" fill="#9CA3AF" text-anchor="middle">0 docs</text>

    <!-- Phase 5 -->
    <rect x="0" y="168" width="384" height="36" rx="16" fill="transparent"/>
    <circle cx="18" cy="186" r="10" fill="#F3F4F6"/>
    <text x="18" y="190" font-size="10" font-weight="600" fill="#9CA3AF" text-anchor="middle">5</text>
    <text x="38" y="191" font-size="12" fill="#9CA3AF">Phase 5</text>
    <rect x="326" y="176" width="48" height="22" rx="11" fill="#F3F4F6"/>
    <text x="350" y="191" font-size="11" fill="#9CA3AF" text-anchor="middle">0 docs</text>

    <!-- Phase 6 -->
    <rect x="0" y="210" width="384" height="36" rx="16" fill="transparent"/>
    <circle cx="18" cy="228" r="10" fill="#F3F4F6"/>
    <text x="18" y="232" font-size="10" font-weight="600" fill="#9CA3AF" text-anchor="middle">6</text>
    <text x="38" y="233" font-size="12" fill="#9CA3AF">Phase 6</text>
    <rect x="326" y="218" width="48" height="22" rx="11" fill="#F3F4F6"/>
    <text x="350" y="233" font-size="11" fill="#9CA3AF" text-anchor="middle">0 docs</text>
  </g>

  <!-- Total -->
  <line x1="1004" y1="520" x2="1388" y2="520" stroke="#F3F4F6" stroke-width="1"/>
  <text x="1004" y="546" font-size="13" font-weight="700" fill="#1E293B">Total</text>
  <text x="1388" y="546" font-size="13" font-weight="600" fill="#F28C5A" text-anchor="end">3 documents · 885 Ko</text>

  <!-- Sidebar footer -->
  <line x1="24" y1="858" x2="196" y2="858" stroke="#1A4F80" stroke-width="1" opacity="0.4"/>
  <text x="110" y="880" font-size="10" fill="#6B96BE" text-anchor="middle">v3.0 · Unanima Platform</text>
</svg>
