<!-- MAQ-05 | Fiche Bénéficiaire Consultant | Link's Accompagnement | v3.0 | saas-moderne | 2026-03-26 -->
<svg xmlns="http://www.w3.org/2000/svg" viewBox="0 0 1440 900" width="1440" height="900" font-family="Inter, system-ui, sans-serif">
  <defs>
    <clipPath id="viewport"><rect width="1440" height="900" rx="0"/></clipPath>
    <filter id="shadow1" x="-4%" y="-4%" width="108%" height="112%">
      <feDropShadow dx="0" dy="1" stdDeviation="3" flood-opacity="0.06"/>
    </filter>
    <filter id="shadow2" x="-4%" y="-4%" width="108%" height="116%">
      <feDropShadow dx="0" dy="2" stdDeviation="6" flood-opacity="0.08"/>
    </filter>
  </defs>
  <g clip-path="url(#viewport)">
    <!-- Background -->
    <rect width="1440" height="900" fill="#FAFBFC"/>

    <!-- ==================== SIDEBAR (220px) ==================== -->
    <rect width="220" height="900" fill="#0D3B6E"/>
    <!-- Logo area -->
    <text x="24" y="38" font-size="20" font-weight="700" fill="#FFFFFF">Link's</text>
    <text x="24" y="56" font-size="12" fill="#8BAFD4">Accompagnement</text>
    <!-- Orange accent polygon -->
    <polygon points="180,24 200,34 180,44" fill="#FF6B35"/>
    <!-- Divider -->
    <line x1="20" y1="72" x2="200" y2="72" stroke="#1A4F82" stroke-width="1"/>

    <!-- Nav items -->
    <!-- Dashboard -->
    <g opacity="0.7">
      <rect x="12" y="88" width="196" height="40" rx="8" fill="transparent"/>
      <rect x="24" y="100" width="16" height="16" rx="3" fill="none" stroke="#8BAFD4" stroke-width="1.5"/>
      <rect x="28" y="104" width="8" height="3" rx="1" fill="#8BAFD4"/>
      <rect x="28" y="109" width="8" height="3" rx="1" fill="#8BAFD4"/>
      <text x="48" y="113" font-size="13" fill="#B8D0E8">Dashboard</text>
    </g>
    <!-- Mes bénéficiaires (active) -->
    <g>
      <rect x="12" y="132" width="196" height="40" rx="8" fill="#1A4F82"/>
      <rect x="24" y="144" width="16" height="16" rx="3" fill="none" stroke="#FFFFFF" stroke-width="1.5"/>
      <circle cx="32" cy="149" r="3" fill="#FFFFFF"/>
      <circle cx="32" cy="155" r="4" fill="none" stroke="#FFFFFF" stroke-width="1"/>
      <text x="48" y="157" font-size="13" font-weight="600" fill="#FFFFFF">Mes bénéficiaires</text>
    </g>
    <!-- Agenda -->
    <g opacity="0.7">
      <rect x="12" y="176" width="196" height="40" rx="8" fill="transparent"/>
      <rect x="24" y="188" width="16" height="16" rx="3" fill="none" stroke="#8BAFD4" stroke-width="1.5"/>
      <text x="48" y="201" font-size="13" fill="#B8D0E8">Agenda</text>
    </g>
    <!-- Documents -->
    <g opacity="0.7">
      <rect x="12" y="220" width="196" height="40" rx="8" fill="transparent"/>
      <rect x="24" y="232" width="16" height="16" rx="3" fill="none" stroke="#8BAFD4" stroke-width="1.5"/>
      <text x="48" y="245" font-size="13" fill="#B8D0E8">Documents</text>
    </g>
    <!-- Rapports -->
    <g opacity="0.7">
      <rect x="12" y="264" width="196" height="40" rx="8" fill="transparent"/>
      <rect x="24" y="276" width="16" height="16" rx="3" fill="none" stroke="#8BAFD4" stroke-width="1.5"/>
      <text x="48" y="289" font-size="13" fill="#B8D0E8">Rapports</text>
    </g>
    <!-- Profil -->
    <g opacity="0.7">
      <rect x="12" y="308" width="196" height="40" rx="8" fill="transparent"/>
      <rect x="24" y="320" width="16" height="16" rx="3" fill="none" stroke="#8BAFD4" stroke-width="1.5"/>
      <text x="48" y="333" font-size="13" fill="#B8D0E8">Profil</text>
    </g>

    <!-- ==================== HEADER (64px) ==================== -->
    <rect x="220" y="0" width="1220" height="64" fill="#FFFFFF"/>
    <line x1="220" y1="64" x2="1440" y2="64" stroke="#E8ECF1" stroke-width="1"/>
    <!-- Breadcrumb -->
    <text x="248" y="37" font-size="13" fill="#8894A6">Mes bénéficiaires</text>
    <text x="366" y="37" font-size="13" fill="#8894A6"> &gt; </text>
    <text x="384" y="37" font-size="14" font-weight="600" fill="#1E293B">Marie Dupont</text>
    <!-- User area (right) -->
    <circle cx="1330" cy="32" r="16" fill="#E8ECF1"/>
    <text x="1325" y="36" font-size="10" font-weight="600" fill="#0D3B6E">SM</text>
    <text x="1352" y="28" font-size="12" font-weight="600" fill="#1E293B">Sophie Martin</text>
    <text x="1352" y="42" font-size="11" fill="#8894A6">Consultante</text>

    <!-- ==================== MAIN CONTENT ==================== -->
    <!-- Profile card -->
    <rect x="248" y="80" width="640" height="120" rx="10" fill="#FFFFFF" filter="url(#shadow1)" stroke="#E8ECF1" stroke-width="1"/>
    <!-- Avatar -->
    <circle cx="308" cy="140" r="32" fill="#1E6FC0"/>
    <text x="296" y="146" font-size="18" font-weight="700" fill="#FFFFFF">MD</text>
    <!-- Name and info -->
    <text x="352" y="112" font-size="18" font-weight="700" fill="#1E293B">Marie Dupont</text>
    <!-- Status badge -->
    <rect x="500" y="98" width="110" height="24" rx="12" fill="#FFF3E8" stroke="#FFD4AD" stroke-width="1"/>
    <text x="517" y="114" font-size="11" font-weight="600" fill="#D97706">Bilan en cours</text>
    <!-- Contact info -->
    <text x="352" y="133" font-size="12" fill="#6B7280">marie.dupont@email.com</text>
    <text x="530" y="133" font-size="12" fill="#6B7280">06 12 34 56 78</text>
    <!-- Meta row -->
    <text x="352" y="155" font-size="11" fill="#9CA3AF">Inscription : 15/03/2026</text>
    <text x="520" y="155" font-size="11" fill="#9CA3AF">Consultant : Sophie Martin</text>
    <text x="700" y="155" font-size="11" fill="#9CA3AF">Phase 2/6</text>
    <!-- Dots row -->
    <text x="352" y="175" font-size="11" fill="#9CA3AF">Inscrite le 15/03/2026</text>
    <text x="520" y="175" font-size="11" fill="#9CA3AF">Consultante : Sophie Martin</text>

    <!-- ==================== RIGHT PANEL (300px) ==================== -->
    <!-- Prochaine séance -->
    <rect x="912" y="80" width="300" height="120" rx="10" fill="#FFFFFF" filter="url(#shadow1)" stroke="#E8ECF1" stroke-width="1"/>
    <text x="932" y="108" font-size="13" font-weight="700" fill="#1E293B">Prochaine séance</text>
    <line x1="932" y1="118" x2="1192" y2="118" stroke="#F0F2F5" stroke-width="1"/>
    <text x="932" y="140" font-size="13" font-weight="600" fill="#374151">Séance 3</text>
    <text x="932" y="158" font-size="12" fill="#6B7280">29/04/2026 à 14h00</text>
    <rect x="932" y="168" width="120" height="28" rx="8" fill="#1E6FC0"/>
    <text x="953" y="186" font-size="11" font-weight="600" fill="#FFFFFF">Rejoindre visio</text>

    <!-- Actions rapides -->
    <rect x="912" y="216" width="300" height="170" rx="10" fill="#FFFFFF" filter="url(#shadow1)" stroke="#E8ECF1" stroke-width="1"/>
    <text x="932" y="244" font-size="13" font-weight="700" fill="#1E293B">Actions rapides</text>
    <line x1="932" y1="256" x2="1192" y2="256" stroke="#F0F2F5" stroke-width="1"/>
    <!-- Action 1 -->
    <rect x="932" y="268" width="260" height="36" rx="8" fill="#F5F7FA" stroke="#E8ECF1" stroke-width="1"/>
    <text x="948" y="291" font-size="12" fill="#374151">Planifier une séance</text>
    <text x="1172" y="291" font-size="14" fill="#9CA3AF">&#x203A;</text>
    <!-- Action 2 -->
    <rect x="932" y="312" width="260" height="36" rx="8" fill="#F5F7FA" stroke="#E8ECF1" stroke-width="1"/>
    <text x="948" y="335" font-size="12" fill="#374151">Saisir un compte-rendu</text>
    <text x="1172" y="335" font-size="14" fill="#9CA3AF">&#x203A;</text>
    <!-- Action 3 -->
    <rect x="932" y="356" width="260" height="36" rx="8" fill="#F5F7FA" stroke="#E8ECF1" stroke-width="1"/>
    <text x="948" y="379" font-size="12" fill="#374151">Voir les documents</text>
    <text x="1172" y="379" font-size="14" fill="#9CA3AF">&#x203A;</text>

    <!-- ==================== TAB NAVIGATION ==================== -->
    <rect x="248" y="212" width="640" height="40" rx="0" fill="#FFFFFF"/>
    <line x1="248" y1="252" x2="888" y2="252" stroke="#E8ECF1" stroke-width="1"/>
    <!-- Parcours (active) -->
    <text x="268" y="238" font-size="13" font-weight="600" fill="#1E6FC0">Parcours</text>
    <rect x="268" y="249" width="60" height="3" rx="1.5" fill="#1E6FC0"/>
    <!-- Comptes-rendus -->
    <text x="360" y="238" font-size="13" fill="#8894A6">Comptes-rendus</text>
    <!-- Planification -->
    <text x="476" y="238" font-size="13" fill="#8894A6">Planification</text>
    <!-- Documents -->
    <text x="580" y="238" font-size="13" fill="#8894A6">Documents</text>

    <!-- ==================== PROGRESS OVERVIEW ==================== -->
    <rect x="248" y="264" width="640" height="68" rx="10" fill="#FFFFFF" filter="url(#shadow1)" stroke="#E8ECF1" stroke-width="1"/>
    <text x="268" y="290" font-size="13" font-weight="700" fill="#1E293B">Progression globale</text>
    <!-- Progress bar bg -->
    <rect x="268" y="300" width="400" height="8" rx="4" fill="#E8ECF1"/>
    <!-- Progress bar fill 33% -->
    <rect x="268" y="300" width="132" height="8" rx="4" fill="#1E6FC0"/>
    <text x="680" y="310" font-size="12" font-weight="600" fill="#1E6FC0">33%</text>
    <text x="268" y="324" font-size="11" fill="#8894A6">2 phases validées · 1 en cours · 3 à compléter</text>

    <!-- ==================== PHASE CARDS (vertical list) ==================== -->
    <!-- Phase 1: Validated -->
    <rect x="248" y="344" width="640" height="72" rx="10" fill="#FFFFFF" filter="url(#shadow1)" stroke="#E8ECF1" stroke-width="1"/>
    <rect x="248" y="344" width="4" height="72" rx="2" fill="#22C55E"/>
    <!-- Phase number circle -->
    <circle cx="280" cy="380" r="16" fill="#F0FDF4" stroke="#22C55E" stroke-width="1.5"/>
    <text x="276" y="385" font-size="12" font-weight="700" fill="#22C55E">1</text>
    <!-- Phase title -->
    <text x="308" y="370" font-size="13" font-weight="600" fill="#1E293B">Définir mon projet</text>
    <!-- Status badge -->
    <rect x="460" y="357" width="140" height="22" rx="8" fill="#F0FDF4" stroke="#BBF7D0" stroke-width="1"/>
    <text x="472" y="372" font-size="10" font-weight="600" fill="#16A34A">&#x2713; Validé le 28/03/2026</text>
    <!-- Response count -->
    <text x="308" y="392" font-size="11" fill="#8894A6">5 réponses complétées</text>
    <!-- Action -->
    <text x="780" y="380" font-size="12" font-weight="500" fill="#1E6FC0">Voir les réponses &#x203A;</text>

    <!-- Phase 2: In Progress -->
    <rect x="248" y="424" width="640" height="72" rx="10" fill="#FFFFFF" filter="url(#shadow1)" stroke="#E8ECF1" stroke-width="1"/>
    <rect x="248" y="424" width="4" height="72" rx="2" fill="#F59E0B"/>
    <circle cx="280" cy="460" r="16" fill="#FFFBEB" stroke="#F59E0B" stroke-width="1.5"/>
    <text x="276" y="465" font-size="12" font-weight="700" fill="#F59E0B">2</text>
    <text x="308" y="450" font-size="13" font-weight="600" fill="#1E293B">Explorer mes compétences</text>
    <rect x="478" y="437" width="72" height="22" rx="8" fill="#FFFBEB" stroke="#FDE68A" stroke-width="1"/>
    <text x="492" y="452" font-size="10" font-weight="600" fill="#D97706">En cours</text>
    <text x="308" y="470" font-size="11" fill="#8894A6">3/5 réponses</text>
    <!-- Mini progress bar -->
    <rect x="400" y="464" width="80" height="5" rx="2.5" fill="#E8ECF1"/>
    <rect x="400" y="464" width="48" height="5" rx="2.5" fill="#F59E0B"/>
    <text x="780" y="460" font-size="12" font-weight="500" fill="#1E6FC0">Voir les réponses &#x203A;</text>

    <!-- Phase 3: Not started -->
    <rect x="248" y="504" width="640" height="72" rx="10" fill="#FFFFFF" filter="url(#shadow1)" stroke="#E8ECF1" stroke-width="1"/>
    <rect x="248" y="504" width="4" height="72" rx="2" fill="#D1D5DB"/>
    <circle cx="280" cy="540" r="16" fill="#F3F4F6" stroke="#D1D5DB" stroke-width="1.5"/>
    <text x="276" y="545" font-size="12" font-weight="700" fill="#9CA3AF">3</text>
    <text x="308" y="530" font-size="13" font-weight="600" fill="#6B7280">Analyser mon marché</text>
    <rect x="460" y="517" width="106" height="22" rx="8" fill="#F3F4F6" stroke="#E5E7EB" stroke-width="1"/>
    <text x="472" y="532" font-size="10" font-weight="600" fill="#9CA3AF">Non commencée</text>
    <text x="308" y="552" font-size="11" fill="#9CA3AF">0/4 réponses</text>
    <text x="780" y="540" font-size="12" font-weight="500" fill="#CBD5E1">Voir les réponses &#x203A;</text>

    <!-- Phase 4: Not started -->
    <rect x="248" y="584" width="640" height="72" rx="10" fill="#FFFFFF" filter="url(#shadow1)" stroke="#E8ECF1" stroke-width="1"/>
    <rect x="248" y="584" width="4" height="72" rx="2" fill="#D1D5DB"/>
    <circle cx="280" cy="620" r="16" fill="#F3F4F6" stroke="#D1D5DB" stroke-width="1.5"/>
    <text x="276" y="625" font-size="12" font-weight="700" fill="#9CA3AF">4</text>
    <text x="308" y="610" font-size="13" font-weight="600" fill="#6B7280">Construire mon plan</text>
    <rect x="460" y="597" width="106" height="22" rx="8" fill="#F3F4F6" stroke="#E5E7EB" stroke-width="1"/>
    <text x="472" y="612" font-size="10" font-weight="600" fill="#9CA3AF">Non commencée</text>
    <text x="308" y="632" font-size="11" fill="#9CA3AF">0/4 réponses</text>
    <text x="780" y="620" font-size="12" font-weight="500" fill="#CBD5E1">Voir les réponses &#x203A;</text>

    <!-- Phase 5: Not started -->
    <rect x="248" y="664" width="640" height="72" rx="10" fill="#FFFFFF" filter="url(#shadow1)" stroke="#E8ECF1" stroke-width="1"/>
    <rect x="248" y="664" width="4" height="72" rx="2" fill="#D1D5DB"/>
    <circle cx="280" cy="700" r="16" fill="#F3F4F6" stroke="#D1D5DB" stroke-width="1.5"/>
    <text x="276" y="705" font-size="12" font-weight="700" fill="#9CA3AF">5</text>
    <text x="308" y="690" font-size="13" font-weight="600" fill="#6B7280">Préparer mon entretien</text>
    <rect x="478" y="677" width="106" height="22" rx="8" fill="#F3F4F6" stroke="#E5E7EB" stroke-width="1"/>
    <text x="490" y="692" font-size="10" font-weight="600" fill="#9CA3AF">Non commencée</text>
    <text x="308" y="712" font-size="11" fill="#9CA3AF">0/3 réponses</text>
    <text x="780" y="700" font-size="12" font-weight="500" fill="#CBD5E1">Voir les réponses &#x203A;</text>

    <!-- Phase 6: Not started -->
    <rect x="248" y="744" width="640" height="72" rx="10" fill="#FFFFFF" filter="url(#shadow1)" stroke="#E8ECF1" stroke-width="1"/>
    <rect x="248" y="744" width="4" height="72" rx="2" fill="#D1D5DB"/>
    <circle cx="280" cy="780" r="16" fill="#F3F4F6" stroke="#D1D5DB" stroke-width="1.5"/>
    <text x="276" y="785" font-size="12" font-weight="700" fill="#9CA3AF">6</text>
    <text x="308" y="770" font-size="13" font-weight="600" fill="#6B7280">Finaliser mon bilan</text>
    <rect x="460" y="757" width="106" height="22" rx="8" fill="#F3F4F6" stroke="#E5E7EB" stroke-width="1"/>
    <text x="472" y="772" font-size="10" font-weight="600" fill="#9CA3AF">Non commencée</text>
    <text x="308" y="792" font-size="11" fill="#9CA3AF">0/3 réponses</text>
    <text x="780" y="780" font-size="12" font-weight="500" fill="#CBD5E1">Voir les réponses &#x203A;</text>

  </g>
</svg>
