<!-- MAQ-13 | Gestion Documents Admin | Link's Accompagnement | v3.0 | saas-moderne | 2026-03-26 -->
<svg xmlns="http://www.w3.org/2000/svg" viewBox="0 0 1440 900" width="1440" height="900" font-family="Inter, system-ui, sans-serif">
  <defs>
    <filter id="shadow1" x="-2%" y="-2%" width="104%" height="104%">
      <feDropShadow dx="0" dy="1" stdDeviation="3" flood-opacity="0.08"/>
    </filter>
    <filter id="shadow2" x="-2%" y="-2%" width="104%" height="104%">
      <feDropShadow dx="0" dy="2" stdDeviation="6" flood-opacity="0.06"/>
    </filter>
    <clipPath id="avatarClip"><circle cx="12" cy="12" r="12"/></clipPath>
  </defs>

  <!-- Background -->
  <rect width="1440" height="900" fill="#FAFBFC"/>

  <!-- Sidebar -->
  <rect width="220" height="900" fill="#0D3B6E"/>

  <!-- Logo area -->
  <polygon points="32,28 50,18 50,42 32,52" fill="#FF6B35" opacity="0.9"/>
  <text x="58" y="34" font-size="16" font-weight="700" fill="#FFFFFF">Link's</text>
  <text x="58" y="50" font-size="11" fill="#94B8DB">Accompagnement</text>

  <!-- Sidebar divider -->
  <line x1="20" y1="70" x2="200" y2="70" stroke="#1A4F80" stroke-width="1"/>

  <!-- Nav items -->
  <!-- Dashboard -->
  <rect x="12" y="86" width="196" height="40" rx="8" fill="transparent"/>
  <rect x="24" y="98" width="16" height="16" rx="3" fill="none" stroke="#7BA3C9" stroke-width="1.5"/>
  <rect x="28" y="102" width="4" height="8" rx="1" fill="#7BA3C9"/>
  <rect x="34" y="105" width="4" height="5" rx="1" fill="#7BA3C9"/>
  <text x="50" y="111" font-size="13" fill="#7BA3C9">Dashboard</text>

  <!-- Utilisateurs -->
  <rect x="12" y="130" width="196" height="40" rx="8" fill="transparent"/>
  <circle cx="34" cy="145" r="5" fill="none" stroke="#7BA3C9" stroke-width="1.5"/>
  <path d="M26,155 Q30,150 34,150 Q38,150 42,155" fill="none" stroke="#7BA3C9" stroke-width="1.5"/>
  <text x="50" y="150" font-size="13" fill="#7BA3C9">Utilisateurs</text>

  <!-- Documents (active) -->
  <rect x="12" y="174" width="196" height="40" rx="8" fill="#1A4F80"/>
  <rect x="26" y="186" width="14" height="18" rx="2" fill="none" stroke="#FFFFFF" stroke-width="1.5"/>
  <path d="M30,192 L36,192 M30,196 L34,196" stroke="#FFFFFF" stroke-width="1.2"/>
  <text x="50" y="199" font-size="13" font-weight="600" fill="#FFFFFF">Documents</text>

  <!-- Header -->
  <rect x="220" y="0" width="1220" height="60" fill="#FFFFFF" filter="url(#shadow1)"/>

  <!-- Breadcrumb -->
  <text x="252" y="35" font-size="13" fill="#8C99A8">Administration</text>
  <text x="347" y="35" font-size="13" fill="#8C99A8">›</text>
  <text x="360" y="35" font-size="13" font-weight="600" fill="#1E293B">Documents</text>

  <!-- User info (right) -->
  <circle cx="1330" cy="30" r="16" fill="#E8EEF4"/>
  <text x="1322" y="35" font-size="12" font-weight="600" fill="#0D3B6E">A</text>
  <text x="1280" y="26" font-size="12" font-weight="500" fill="#1E293B" text-anchor="end">Administrateur</text>
  <text x="1280" y="40" font-size="11" fill="#8C99A8" text-anchor="end">super_admin</text>
  <!-- Logout icon -->
  <g transform="translate(1365,22)">
    <path d="M0,0 L10,0 L10,16 L0,16" fill="none" stroke="#8C99A8" stroke-width="1.5" stroke-linecap="round"/>
    <path d="M4,8 L14,8 M11,5 L14,8 L11,11" fill="none" stroke="#8C99A8" stroke-width="1.5" stroke-linecap="round" stroke-linejoin="round"/>
  </g>

  <!-- Main content area -->
  <!-- Title section -->
  <text x="252" y="104" font-size="20" font-weight="700" fill="#1E293B">Gestion des documents par phase</text>
  <text x="252" y="124" font-size="13" fill="#64748B">Ajoutez, organisez et supprimez les documents mis à disposition des bénéficiaires.</text>

  <!-- Phase tabs -->
  <g transform="translate(252,144)">
    <!-- Active tab: Phase 1 -->
    <rect x="0" y="0" width="100" height="38" rx="10" fill="#0D3B6E"/>
    <text x="50" y="24" font-size="13" font-weight="600" fill="#FFFFFF" text-anchor="middle">Phase 1</text>
    <!-- Phase 2 -->
    <rect x="108" y="0" width="100" height="38" rx="10" fill="#FFFFFF" stroke="#DCE1EB" stroke-width="1"/>
    <text x="158" y="24" font-size="13" fill="#64748B" text-anchor="middle">Phase 2</text>
    <!-- Phase 3 -->
    <rect x="216" y="0" width="100" height="38" rx="10" fill="#FFFFFF" stroke="#DCE1EB" stroke-width="1"/>
    <text x="266" y="24" font-size="13" fill="#64748B" text-anchor="middle">Phase 3</text>
    <!-- Phase 4 -->
    <rect x="324" y="0" width="100" height="38" rx="10" fill="#FFFFFF" stroke="#DCE1EB" stroke-width="1"/>
    <text x="374" y="24" font-size="13" fill="#64748B" text-anchor="middle">Phase 4</text>
    <!-- Phase 5 -->
    <rect x="432" y="0" width="100" height="38" rx="10" fill="#FFFFFF" stroke="#DCE1EB" stroke-width="1"/>
    <text x="482" y="24" font-size="13" fill="#64748B" text-anchor="middle">Phase 5</text>
    <!-- Phase 6 -->
    <rect x="540" y="0" width="100" height="38" rx="10" fill="#FFFFFF" stroke="#DCE1EB" stroke-width="1"/>
    <text x="590" y="24" font-size="13" fill="#64748B" text-anchor="middle">Phase 6</text>
  </g>

  <!-- Upload zone -->
  <rect x="252" y="200" width="700" height="130" rx="12" fill="#FFFFFF" stroke="#C8D4E0" stroke-width="1.5" stroke-dasharray="8,4" filter="url(#shadow2)"/>
  <!-- Cloud icon -->
  <g transform="translate(565,222)">
    <path d="M12,28 L12,12" stroke="#94A3B8" stroke-width="2" stroke-linecap="round"/>
    <path d="M6,18 L12,12 L18,18" fill="none" stroke="#94A3B8" stroke-width="2" stroke-linecap="round" stroke-linejoin="round"/>
    <path d="M4,24 Q0,24 0,20 Q0,14 6,14 Q7,8 14,8 Q20,8 22,12 Q28,12 28,18 Q28,24 22,24" fill="none" stroke="#94A3B8" stroke-width="2" stroke-linecap="round"/>
  </g>
  <text x="602" y="268" font-size="13" fill="#64748B" text-anchor="middle">Glissez vos fichiers ici ou </text>
  <text x="712" y="268" font-size="13" fill="#1E6FC0" font-weight="500" text-decoration="underline">Parcourir</text>
  <text x="602" y="288" font-size="11" fill="#94A3B8" text-anchor="middle">PDF ou DOCX · Max 10 Mo · 3 documents max par phase</text>
  <text x="602" y="310" font-size="12" font-weight="600" fill="#0D3B6E" text-anchor="middle">2/3 documents pour cette phase</text>

  <!-- Document table -->
  <rect x="252" y="350" width="700" height="42" rx="10" fill="#F1F5F9"/>
  <text x="290" y="376" font-size="11" font-weight="600" fill="#64748B" letter-spacing="0.5">DOCUMENT</text>
  <text x="560" y="376" font-size="11" font-weight="600" fill="#64748B" letter-spacing="0.5">TYPE</text>
  <text x="640" y="376" font-size="11" font-weight="600" fill="#64748B" letter-spacing="0.5">TAILLE</text>
  <text x="730" y="376" font-size="11" font-weight="600" fill="#64748B" letter-spacing="0.5">AJOUTÉ LE</text>
  <text x="840" y="376" font-size="11" font-weight="600" fill="#64748B" letter-spacing="0.5">ORDRE</text>
  <text x="910" y="376" font-size="11" font-weight="600" fill="#64748B" letter-spacing="0.5">ACTIONS</text>

  <!-- Row 1 -->
  <rect x="252" y="394" width="700" height="52" rx="0" fill="#FFFFFF"/>
  <line x1="252" y1="446" x2="952" y2="446" stroke="#F1F5F9" stroke-width="1"/>
  <!-- Drag handle -->
  <g transform="translate(264,412)">
    <line x1="0" y1="2" x2="10" y2="2" stroke="#C8D4E0" stroke-width="1.5" stroke-linecap="round"/>
    <line x1="0" y1="6" x2="10" y2="6" stroke="#C8D4E0" stroke-width="1.5" stroke-linecap="round"/>
    <line x1="0" y1="10" x2="10" y2="10" stroke="#C8D4E0" stroke-width="1.5" stroke-linecap="round"/>
  </g>
  <text x="290" y="425" font-size="13" fill="#1E293B">Guide de définition de projet.pdf</text>
  <!-- PDF badge -->
  <rect x="556" y="410" width="40" height="22" rx="11" fill="#FEE2E2"/>
  <text x="576" y="425" font-size="10" font-weight="600" fill="#DC2626" text-anchor="middle">PDF</text>
  <!-- Size -->
  <text x="640" y="425" font-size="12" fill="#64748B">245 Ko</text>
  <!-- Date -->
  <text x="730" y="425" font-size="12" fill="#64748B">20/03/2026</text>
  <!-- Order -->
  <rect x="840" y="410" width="26" height="22" rx="8" fill="#EEF2FF"/>
  <text x="853" y="425" font-size="11" font-weight="600" fill="#4F46E5" text-anchor="middle">1</text>
  <!-- Actions -->
  <g transform="translate(910,412)">
    <!-- Edit -->
    <rect x="0" y="0" width="28" height="22" rx="6" fill="#F1F5F9"/>
    <path d="M8,14 L6,16 L8,15 Z M8,14 L16,6 L18,8 L10,16 Z" fill="#64748B" transform="scale(0.7) translate(4,0)"/>
    <!-- Delete -->
    <rect x="34" y="0" width="28" height="22" rx="6" fill="#FEF2F2"/>
    <path d="M44,5 L44,17 M41,5 L47,5 M42,5 L42,3 L46,3 L46,5 M40,5 L48,5" fill="none" stroke="#DC2626" stroke-width="1.2" stroke-linecap="round"/>
  </g>

  <!-- Row 2 -->
  <rect x="252" y="448" width="700" height="52" rx="0" fill="#FFFFFF"/>
  <line x1="252" y1="500" x2="952" y2="500" stroke="#F1F5F9" stroke-width="1"/>
  <!-- Drag handle -->
  <g transform="translate(264,466)">
    <line x1="0" y1="2" x2="10" y2="2" stroke="#C8D4E0" stroke-width="1.5" stroke-linecap="round"/>
    <line x1="0" y1="6" x2="10" y2="6" stroke="#C8D4E0" stroke-width="1.5" stroke-linecap="round"/>
    <line x1="0" y1="10" x2="10" y2="10" stroke="#C8D4E0" stroke-width="1.5" stroke-linecap="round"/>
  </g>
  <text x="290" y="479" font-size="13" fill="#1E293B">Fiche d'auto-évaluation.docx</text>
  <!-- DOCX badge -->
  <rect x="556" y="464" width="48" height="22" rx="11" fill="#DBEAFE"/>
  <text x="580" y="479" font-size="10" font-weight="600" fill="#2563EB" text-anchor="middle">DOCX</text>
  <!-- Size -->
  <text x="640" y="479" font-size="12" fill="#64748B">128 Ko</text>
  <!-- Date -->
  <text x="730" y="479" font-size="12" fill="#64748B">20/03/2026</text>
  <!-- Order -->
  <rect x="840" y="464" width="26" height="22" rx="8" fill="#EEF2FF"/>
  <text x="853" y="479" font-size="11" font-weight="600" fill="#4F46E5" text-anchor="middle">2</text>
  <!-- Actions -->
  <g transform="translate(910,466)">
    <rect x="0" y="0" width="28" height="22" rx="6" fill="#F1F5F9"/>
    <path d="M8,14 L6,16 L8,15 Z M8,14 L16,6 L18,8 L10,16 Z" fill="#64748B" transform="scale(0.7) translate(4,0)"/>
    <rect x="34" y="0" width="28" height="22" rx="6" fill="#FEF2F2"/>
    <path d="M44,5 L44,17 M41,5 L47,5 M42,5 L42,3 L46,3 L46,5 M40,5 L48,5" fill="none" stroke="#DC2626" stroke-width="1.2" stroke-linecap="round"/>
  </g>

  <!-- Bottom round for table -->
  <rect x="252" y="498" width="700" height="8" rx="0" fill="#FFFFFF"/>
  <rect x="252" y="500" width="700" height="4" rx="0" fill="#FFFFFF" rx="10"/>

  <!-- Phase summary panel (right side) -->
  <rect x="976" y="200" width="432" height="310" rx="12" fill="#FFFFFF" filter="url(#shadow2)"/>
  <text x="1000" y="232" font-size="14" font-weight="700" fill="#1E293B">Résumé par phase</text>
  <line x1="1000" y1="244" x2="1384" y2="244" stroke="#F1F5F9" stroke-width="1"/>

  <!-- Phase rows -->
  <g transform="translate(1000,260)">
    <!-- Phase 1 -->
    <rect x="0" y="0" width="384" height="34" rx="8" fill="#EEF6FF"/>
    <text x="14" y="22" font-size="12" font-weight="600" fill="#0D3B6E">Phase 1</text>
    <rect x="310" y="8" width="52" height="20" rx="10" fill="#0D3B6E"/>
    <text x="336" y="22" font-size="11" font-weight="600" fill="#FFFFFF" text-anchor="middle">2 docs</text>

    <!-- Phase 2 -->
    <rect x="0" y="40" width="384" height="34" rx="8" fill="#FAFBFC"/>
    <text x="14" y="62" font-size="12" fill="#475569">Phase 2</text>
    <rect x="314" y="48" width="44" height="20" rx="10" fill="#E2E8F0"/>
    <text x="336" y="62" font-size="11" fill="#64748B" text-anchor="middle">1 doc</text>

    <!-- Phase 3 -->
    <rect x="0" y="80" width="384" height="34" rx="8" fill="#FAFBFC"/>
    <text x="14" y="102" font-size="12" fill="#475569">Phase 3</text>
    <rect x="310" y="88" width="52" height="20" rx="10" fill="#E2E8F0"/>
    <text x="336" y="102" font-size="11" fill="#94A3B8" text-anchor="middle">0 docs</text>

    <!-- Phase 4 -->
    <rect x="0" y="120" width="384" height="34" rx="8" fill="#FAFBFC"/>
    <text x="14" y="142" font-size="12" fill="#475569">Phase 4</text>
    <rect x="310" y="128" width="52" height="20" rx="10" fill="#E2E8F0"/>
    <text x="336" y="142" font-size="11" fill="#94A3B8" text-anchor="middle">0 docs</text>

    <!-- Phase 5 -->
    <rect x="0" y="160" width="384" height="34" rx="8" fill="#FAFBFC"/>
    <text x="14" y="182" font-size="12" fill="#475569">Phase 5</text>
    <rect x="310" y="168" width="52" height="20" rx="10" fill="#E2E8F0"/>
    <text x="336" y="182" font-size="11" fill="#94A3B8" text-anchor="middle">0 docs</text>

    <!-- Phase 6 -->
    <rect x="0" y="200" width="384" height="34" rx="8" fill="#FAFBFC"/>
    <text x="14" y="222" font-size="12" fill="#475569">Phase 6</text>
    <rect x="310" y="208" width="52" height="20" rx="10" fill="#E2E8F0"/>
    <text x="336" y="222" font-size="11" fill="#94A3B8" text-anchor="middle">0 docs</text>
  </g>

  <!-- Total -->
  <line x1="1000" y1="506" x2="1384" y2="506" stroke="#E2E8F0" stroke-width="1"/>
  <text x="1000" y="528" font-size="13" font-weight="600" fill="#1E293B">Total</text>
  <text x="1384" y="528" font-size="13" font-weight="600" fill="#0D3B6E" text-anchor="end">3 documents · 885 Ko</text>

  <!-- Sidebar bottom info -->
  <line x1="20" y1="860" x2="200" y2="860" stroke="#1A4F80" stroke-width="1"/>
  <text x="110" y="882" font-size="10" fill="#5A8BB8" text-anchor="middle">v3.0 · Unanima Platform</text>
</svg>
