<!-- MAQ-02 | Dashboard Bénéficiaire | Link's Accompagnement | v3.0 | saas-moderne | 2026-03-26 -->
<svg xmlns="http://www.w3.org/2000/svg" viewBox="0 0 1440 900" width="1440" height="900" font-family="Inter, system-ui, sans-serif">
  <defs>
    <filter id="shadow-sm" x="-2%" y="-2%" width="104%" height="104%">
      <feDropShadow dx="0" dy="1" stdDeviation="2" flood-color="#000" flood-opacity="0.06"/>
    </filter>
    <filter id="shadow-md" x="-3%" y="-3%" width="106%" height="106%">
      <feDropShadow dx="0" dy="2" stdDeviation="4" flood-color="#000" flood-opacity="0.08"/>
    </filter>
    <clipPath id="clip-main"><rect x="220" y="0" width="1220" height="900"/></clipPath>
  </defs>

  <!-- Background -->
  <rect width="1440" height="900" fill="#FAFBFC"/>

  <!-- ==================== SIDEBAR ==================== -->
  <rect x="0" y="0" width="220" height="900" fill="#0D3B6E"/>

  <!-- Logo area -->
  <text x="24" y="38" font-size="15" font-weight="700" fill="white">Link's</text>
  <text x="24" y="54" font-size="11" font-weight="400" fill="#A8C4E0">Accompagnement</text>
  <polygon points="90,28 96,28 94,38 88,38" fill="#FF6B35"/>

  <!-- Separator -->
  <line x1="20" y1="72" x2="200" y2="72" stroke="#1A4F80" stroke-width="1"/>

  <!-- Nav items -->
  <!-- Dashboard (active) -->
  <rect x="8" y="86" width="204" height="40" rx="8" fill="#1E6FC0" opacity="0.25"/>
  <rect x="8" y="86" width="3" height="40" rx="1.5" fill="#fff"/>
  <!-- Dashboard icon (grid) -->
  <rect x="28" y="98" width="7" height="7" rx="1.5" fill="white" opacity="0.9"/>
  <rect x="37" y="98" width="7" height="7" rx="1.5" fill="white" opacity="0.9"/>
  <rect x="28" y="107" width="7" height="7" rx="1.5" fill="white" opacity="0.9"/>
  <rect x="37" y="107" width="7" height="7" rx="1.5" fill="white" opacity="0.9"/>
  <text x="54" y="111" font-size="13" font-weight="600" fill="white">Dashboard</text>

  <!-- Mon bilan -->
  <rect x="8" y="132" width="204" height="40" rx="8" fill="transparent"/>
  <!-- Bilan icon (clipboard) -->
  <rect x="30" y="144" width="12" height="14" rx="2" fill="none" stroke="#A8C4E0" stroke-width="1.3"/>
  <line x1="34" y1="149" x2="40" y2="149" stroke="#A8C4E0" stroke-width="1.2"/>
  <line x1="34" y1="153" x2="38" y2="153" stroke="#A8C4E0" stroke-width="1.2"/>
  <text x="54" y="157" font-size="13" font-weight="400" fill="#A8C4E0">Mon bilan</text>

  <!-- Documents -->
  <rect x="8" y="178" width="204" height="40" rx="8" fill="transparent"/>
  <!-- Doc icon -->
  <rect x="30" y="190" width="12" height="14" rx="2" fill="none" stroke="#A8C4E0" stroke-width="1.3"/>
  <line x1="34" y1="195" x2="40" y2="195" stroke="#A8C4E0" stroke-width="1.2"/>
  <line x1="34" y1="199" x2="40" y2="199" stroke="#A8C4E0" stroke-width="1.2"/>
  <text x="54" y="203" font-size="13" font-weight="400" fill="#A8C4E0">Documents</text>

  <!-- Profil -->
  <rect x="8" y="224" width="204" height="40" rx="8" fill="transparent"/>
  <!-- User icon -->
  <circle cx="36" cy="238" r="5" fill="none" stroke="#A8C4E0" stroke-width="1.3"/>
  <path d="M28,250 Q36,244 44,250" fill="none" stroke="#A8C4E0" stroke-width="1.3"/>
  <text x="54" y="249" font-size="13" font-weight="400" fill="#A8C4E0">Profil</text>

  <!-- Sidebar footer -->
  <line x1="20" y1="840" x2="200" y2="840" stroke="#1A4F80" stroke-width="1"/>
  <text x="24" y="862" font-size="11" font-weight="400" fill="#A8C4E0">Mes données</text>
  <text x="24" y="882" font-size="10" fill="#5E7FA0">v3.0.0</text>

  <!-- ==================== MAIN CONTENT ==================== -->
  <g clip-path="url(#clip-main)">

  <!-- Header bar -->
  <rect x="220" y="0" width="1220" height="60" fill="white" filter="url(#shadow-sm)"/>
  <!-- Breadcrumb -->
  <text x="252" y="35" font-size="13" fill="#A0AAB9">Bénéficiaire</text>
  <text x="335" y="35" font-size="13" fill="#A0AAB9">›</text>
  <text x="348" y="35" font-size="13" font-weight="600" fill="#4A4A4A">Dashboard</text>

  <!-- User area (right) -->
  <!-- Avatar circle -->
  <circle cx="1350" cy="30" r="18" fill="#1E6FC0"/>
  <text x="1350" y="35" font-size="12" font-weight="600" fill="white" text-anchor="middle">MD</text>
  <!-- User info -->
  <text x="1320" y="25" font-size="12" font-weight="600" fill="#4A4A4A" text-anchor="end">Marie Dupont</text>
  <text x="1320" y="40" font-size="11" fill="#A0AAB9" text-anchor="end">Bénéficiaire</text>
  <!-- Logout button -->
  <rect x="1384" y="18" width="32" height="24" rx="6" fill="#F5F7FA" stroke="#DCE1EB" stroke-width="1"/>
  <path d="M1394,26 h8 M1400,23 l3,3 -3,3" fill="none" stroke="#A0AAB9" stroke-width="1.5" stroke-linecap="round"/>

  <!-- ==================== WELCOME SECTION ==================== -->
  <rect x="252" y="80" width="1176" height="110" rx="10" fill="white" filter="url(#shadow-sm)"/>
  <!-- Accent line -->
  <rect x="252" y="80" width="5" height="110" rx="2.5" fill="#1E6FC0"/>
  <text x="280" y="114" font-size="24" font-weight="700" fill="#4A4A4A">Bonjour, Marie</text>
  <text x="280" y="138" font-size="14" fill="#A0AAB9">Retrouvez ici le suivi de votre bilan de compétences.</text>
  <!-- Primary button -->
  <rect x="280" y="150" width="180" height="32" rx="8" fill="#1E6FC0"/>
  <text x="310" y="171" font-size="13" font-weight="600" fill="white">Continuer le bilan →</text>

  <!-- ==================== VOS SÉANCES ==================== -->
  <text x="252" y="224" font-size="18" font-weight="700" fill="#4A4A4A">Vos séances</text>

  <rect x="252" y="238" width="1176" height="268" rx="10" fill="white" filter="url(#shadow-sm)"/>

  <!-- Table header -->
  <rect x="252" y="238" width="1176" height="38" rx="10" fill="#F5F7FA"/>
  <rect x="252" y="266" width="1176" height="10" fill="#F5F7FA"/>
  <text x="280" y="263" font-size="12" font-weight="600" fill="#A0AAB9">Séance</text>
  <text x="750" y="263" font-size="12" font-weight="600" fill="#A0AAB9">Date</text>
  <text x="890" y="263" font-size="12" font-weight="600" fill="#A0AAB9">Heure</text>
  <text x="1020" y="263" font-size="12" font-weight="600" fill="#A0AAB9">Action</text>

  <!-- Row 1 -->
  <line x1="270" y1="278" x2="1410" y2="278" stroke="#F0F2F5" stroke-width="1"/>
  <circle cx="292" cy="298" r="12" fill="#1E6FC0"/>
  <text x="292" y="303" font-size="11" font-weight="700" fill="white" text-anchor="middle">1</text>
  <text x="314" y="303" font-size="13" font-weight="500" fill="#4A4A4A">Séance 1 — Entretien préliminaire</text>
  <text x="750" y="303" font-size="13" fill="#4A4A4A">15/04/2026</text>
  <text x="890" y="303" font-size="13" fill="#4A4A4A">14h00</text>
  <rect x="1020" y="285" width="150" height="28" rx="8" fill="#1E6FC0"/>
  <!-- Camera icon -->
  <rect x="1032" y="294" width="14" height="10" rx="2" fill="none" stroke="white" stroke-width="1.2"/>
  <polygon points="1048,295 1054,299 1048,303" fill="none" stroke="white" stroke-width="1.2"/>
  <text x="1060" y="304" font-size="12" font-weight="500" fill="white">Rejoindre la visio</text>

  <!-- Row 2 -->
  <line x1="270" y1="318" x2="1410" y2="318" stroke="#F0F2F5" stroke-width="1"/>
  <circle cx="292" cy="338" r="12" fill="#1E6FC0"/>
  <text x="292" y="343" font-size="11" font-weight="700" fill="white" text-anchor="middle">2</text>
  <text x="314" y="343" font-size="13" font-weight="500" fill="#4A4A4A">Séance 2 — Investigation phase 1</text>
  <text x="750" y="343" font-size="13" fill="#4A4A4A">29/04/2026</text>
  <text x="890" y="343" font-size="13" fill="#4A4A4A">14h00</text>
  <rect x="1020" y="325" width="150" height="28" rx="8" fill="#1E6FC0"/>
  <rect x="1032" y="334" width="14" height="10" rx="2" fill="none" stroke="white" stroke-width="1.2"/>
  <polygon points="1048,335 1054,339 1048,343" fill="none" stroke="white" stroke-width="1.2"/>
  <text x="1060" y="344" font-size="12" font-weight="500" fill="white">Rejoindre la visio</text>

  <!-- Row 3 -->
  <line x1="270" y1="358" x2="1410" y2="358" stroke="#F0F2F5" stroke-width="1"/>
  <circle cx="292" cy="378" r="12" fill="#DCE1EB"/>
  <text x="292" y="383" font-size="11" font-weight="700" fill="#A0AAB9" text-anchor="middle">3</text>
  <text x="314" y="383" font-size="13" font-weight="500" fill="#A0AAB9">Séance 3</text>
  <text x="750" y="383" font-size="13" fill="#A0AAB9">À planifier</text>
  <text x="890" y="383" font-size="13" fill="#A0AAB9">—</text>
  <rect x="1020" y="365" width="100" height="28" rx="8" fill="transparent" stroke="#DCE1EB" stroke-width="1"/>
  <text x="1045" y="384" font-size="12" font-weight="500" fill="#A0AAB9">Planifier</text>

  <!-- Row 4 -->
  <line x1="270" y1="398" x2="1410" y2="398" stroke="#F0F2F5" stroke-width="1"/>
  <circle cx="292" cy="418" r="12" fill="#DCE1EB"/>
  <text x="292" y="423" font-size="11" font-weight="700" fill="#A0AAB9" text-anchor="middle">4</text>
  <text x="314" y="423" font-size="13" font-weight="500" fill="#A0AAB9">Séance 4</text>
  <text x="750" y="423" font-size="13" fill="#A0AAB9">À planifier</text>
  <text x="890" y="423" font-size="13" fill="#A0AAB9">—</text>
  <rect x="1020" y="405" width="100" height="28" rx="8" fill="transparent" stroke="#DCE1EB" stroke-width="1"/>
  <text x="1045" y="424" font-size="12" font-weight="500" fill="#A0AAB9">Planifier</text>

  <!-- Row 5 -->
  <line x1="270" y1="438" x2="1410" y2="438" stroke="#F0F2F5" stroke-width="1"/>
  <circle cx="292" cy="458" r="12" fill="#DCE1EB"/>
  <text x="292" y="463" font-size="11" font-weight="700" fill="#A0AAB9" text-anchor="middle">5</text>
  <text x="314" y="463" font-size="13" font-weight="500" fill="#A0AAB9">Séance 5</text>
  <text x="750" y="463" font-size="13" fill="#A0AAB9">À planifier</text>
  <text x="890" y="463" font-size="13" fill="#A0AAB9">—</text>
  <rect x="1020" y="445" width="100" height="28" rx="8" fill="transparent" stroke="#DCE1EB" stroke-width="1"/>
  <text x="1045" y="464" font-size="12" font-weight="500" fill="#A0AAB9">Planifier</text>

  <!-- Row 6 -->
  <line x1="270" y1="478" x2="1410" y2="478" stroke="#F0F2F5" stroke-width="1"/>
  <circle cx="292" cy="493" r="12" fill="#DCE1EB"/>
  <text x="292" y="498" font-size="11" font-weight="700" fill="#A0AAB9" text-anchor="middle">6</text>
  <text x="314" y="498" font-size="13" font-weight="500" fill="#A0AAB9">Séance 6</text>
  <text x="750" y="498" font-size="13" fill="#A0AAB9">À planifier</text>
  <text x="890" y="498" font-size="13" fill="#A0AAB9">—</text>
  <rect x="1020" y="480" width="100" height="28" rx="8" fill="transparent" stroke="#DCE1EB" stroke-width="1"/>
  <text x="1045" y="499" font-size="12" font-weight="500" fill="#A0AAB9">Planifier</text>

  <!-- ==================== VOTRE PARCOURS ==================== -->
  <text x="252" y="540" font-size="18" font-weight="700" fill="#4A4A4A">Votre parcours</text>
  <text x="252" y="560" font-size="13" fill="#A0AAB9">1 phase validée · 1 en cours · 4 à compléter</text>

  <!-- Progress bar -->
  <rect x="252" y="572" width="1176" height="8" rx="4" fill="#E8ECF1"/>
  <rect x="252" y="572" width="196" height="8" rx="4" fill="#28A745"/>

  <!-- ==================== PHASE CARDS ==================== -->
  <!-- Row 1 -->
  <!-- Phase 1 - Validated -->
  <rect x="252" y="596" width="380" height="110" rx="10" fill="white" stroke="#28A745" stroke-width="1" filter="url(#shadow-sm)"/>
  <rect x="252" y="596" width="5" height="110" rx="2.5" fill="#28A745"/>
  <circle cx="282" cy="630" r="16" fill="#E6F4EA"/>
  <text x="282" y="635" font-size="13" font-weight="700" fill="#28A745" text-anchor="middle">1</text>
  <text x="308" y="626" font-size="14" font-weight="600" fill="#4A4A4A">Définir mon projet</text>
  <!-- Badge -->
  <rect x="308" y="634" width="72" height="22" rx="11" fill="#E6F4EA"/>
  <text x="320" y="649" font-size="11" font-weight="600" fill="#28A745">✓ Validé</text>
  <!-- Button -->
  <rect x="308" y="668" width="100" height="28" rx="8" fill="#1E6FC0"/>
  <text x="328" y="687" font-size="12" font-weight="600" fill="white">Accéder →</text>

  <!-- Phase 2 - In progress -->
  <rect x="650" y="596" width="380" height="110" rx="10" fill="white" stroke="#FF6B35" stroke-width="1" filter="url(#shadow-sm)"/>
  <rect x="650" y="596" width="5" height="110" rx="2.5" fill="#FF6B35"/>
  <circle cx="680" cy="630" r="16" fill="#FFF0E8"/>
  <text x="680" y="635" font-size="13" font-weight="700" fill="#FF6B35" text-anchor="middle">2</text>
  <text x="706" y="626" font-size="14" font-weight="600" fill="#4A4A4A">Explorer mes compétences</text>
  <!-- Badge with pulsing dot -->
  <rect x="706" y="634" width="82" height="22" rx="11" fill="#FFF0E8"/>
  <circle cx="718" cy="645" r="4" fill="#FF6B35"/>
  <text x="726" y="649" font-size="11" font-weight="600" fill="#FF6B35">En cours</text>
  <!-- Button -->
  <rect x="706" y="668" width="100" height="28" rx="8" fill="#1E6FC0"/>
  <text x="726" y="687" font-size="12" font-weight="600" fill="white">Accéder →</text>

  <!-- Phase 3 - To complete -->
  <rect x="1048" y="596" width="380" height="110" rx="10" fill="white" stroke="#DCE1EB" stroke-width="1" filter="url(#shadow-sm)"/>
  <rect x="1048" y="596" width="5" height="110" rx="2.5" fill="#DCE1EB"/>
  <circle cx="1078" cy="630" r="16" fill="#F0F2F5"/>
  <text x="1078" y="635" font-size="13" font-weight="700" fill="#A0AAB9" text-anchor="middle">3</text>
  <text x="1104" y="626" font-size="14" font-weight="600" fill="#A0AAB9">Analyser mon marché</text>
  <rect x="1104" y="634" width="92" height="22" rx="11" fill="#F0F2F5"/>
  <text x="1116" y="649" font-size="11" font-weight="600" fill="#A0AAB9">À compléter</text>
  <rect x="1104" y="668" width="100" height="28" rx="8" fill="#F0F2F5"/>
  <text x="1130" y="687" font-size="12" font-weight="500" fill="#A0AAB9">Accéder</text>

  <!-- Row 2 -->
  <!-- Phase 4 -->
  <rect x="252" y="720" width="380" height="110" rx="10" fill="white" stroke="#DCE1EB" stroke-width="1" filter="url(#shadow-sm)"/>
  <rect x="252" y="720" width="5" height="110" rx="2.5" fill="#DCE1EB"/>
  <circle cx="282" cy="754" r="16" fill="#F0F2F5"/>
  <text x="282" y="759" font-size="13" font-weight="700" fill="#A0AAB9" text-anchor="middle">4</text>
  <text x="308" y="750" font-size="14" font-weight="600" fill="#A0AAB9">Construire mon plan</text>
  <rect x="308" y="758" width="92" height="22" rx="11" fill="#F0F2F5"/>
  <text x="320" y="773" font-size="11" font-weight="600" fill="#A0AAB9">À compléter</text>
  <rect x="308" y="792" width="100" height="28" rx="8" fill="#F0F2F5"/>
  <text x="334" y="811" font-size="12" font-weight="500" fill="#A0AAB9">Accéder</text>

  <!-- Phase 5 -->
  <rect x="650" y="720" width="380" height="110" rx="10" fill="white" stroke="#DCE1EB" stroke-width="1" filter="url(#shadow-sm)"/>
  <rect x="650" y="720" width="5" height="110" rx="2.5" fill="#DCE1EB"/>
  <circle cx="680" cy="754" r="16" fill="#F0F2F5"/>
  <text x="680" y="759" font-size="13" font-weight="700" fill="#A0AAB9" text-anchor="middle">5</text>
  <text x="706" y="750" font-size="14" font-weight="600" fill="#A0AAB9">Préparer mon entretien</text>
  <rect x="706" y="758" width="92" height="22" rx="11" fill="#F0F2F5"/>
  <text x="718" y="773" font-size="11" font-weight="600" fill="#A0AAB9">À compléter</text>
  <rect x="706" y="792" width="100" height="28" rx="8" fill="#F0F2F5"/>
  <text x="732" y="811" font-size="12" font-weight="500" fill="#A0AAB9">Accéder</text>

  <!-- Phase 6 -->
  <rect x="1048" y="720" width="380" height="110" rx="10" fill="white" stroke="#DCE1EB" stroke-width="1" filter="url(#shadow-sm)"/>
  <rect x="1048" y="720" width="5" height="110" rx="2.5" fill="#DCE1EB"/>
  <circle cx="1078" cy="754" r="16" fill="#F0F2F5"/>
  <text x="1078" y="759" font-size="13" font-weight="700" fill="#A0AAB9" text-anchor="middle">6</text>
  <text x="1104" y="750" font-size="14" font-weight="600" fill="#A0AAB9">Finaliser mon bilan</text>
  <rect x="1104" y="758" width="92" height="22" rx="11" fill="#F0F2F5"/>
  <text x="1116" y="773" font-size="11" font-weight="600" fill="#A0AAB9">À compléter</text>
  <rect x="1104" y="792" width="100" height="28" rx="8" fill="#F0F2F5"/>
  <text x="1130" y="811" font-size="12" font-weight="500" fill="#A0AAB9">Accéder</text>

  <!-- ==================== FOOTER ==================== -->
  <rect x="220" y="860" width="1220" height="40" fill="#FAFBFC"/>
  <line x1="220" y1="860" x2="1440" y2="860" stroke="#E8ECF1" stroke-width="1"/>
  <text x="830" y="885" font-size="12" fill="#A0AAB9" text-anchor="middle">Link's Accompagnement — © 2026 Unanima</text>

  </g>
</svg>
