<svg xmlns="http://www.w3.org/2000/svg" viewBox="0 0 1440 900" width="1440" height="900" font-family="Inter, system-ui, sans-serif">
  <defs>
    <filter id="shadow1" x="-2%" y="-2%" width="104%" height="104%">
      <feDropShadow dx="0" dy="1" stdDeviation="3" flood-opacity="0.08"/>
    </filter>
    <filter id="shadow2" x="-2%" y="-2%" width="104%" height="104%">
      <feDropShadow dx="0" dy="2" stdDeviation="6" flood-opacity="0.06"/>
    </filter>
    <clipPath id="avatarClip"><circle cx="40" cy="40" r="40"/></clipPath>
  </defs>

  <!-- Background -->
  <rect width="1440" height="900" fill="#FAFBFC"/>

  <!-- Sidebar -->
  <rect width="220" height="900" fill="#0D3B6E"/>
  <!-- Logo area -->
  <text x="110" y="38" text-anchor="middle" fill="#FFFFFF" font-size="20" font-weight="700">Link's</text>
  <text x="110" y="56" text-anchor="middle" fill="#B0C8E8" font-size="11" font-weight="400">Accompagnement</text>
  <polygon points="95,62 115,62 105,74" fill="#FF6B35"/>
  <line x1="20" y1="85" x2="200" y2="85" stroke="#1A4F8A" stroke-width="1"/>

  <!-- Nav items -->
  <!-- Dashboard -->
  <rect x="12" y="100" width="196" height="40" rx="8" fill="transparent"/>
  <rect x="22" y="112" width="16" height="16" rx="3" fill="none" stroke="#7BA5D4" stroke-width="1.5"/>
  <rect x="25" y="115" width="4" height="4" rx="1" fill="#7BA5D4"/>
  <rect x="31" y="115" width="4" height="4" rx="1" fill="#7BA5D4"/>
  <rect x="25" y="121" width="4" height="4" rx="1" fill="#7BA5D4"/>
  <rect x="31" y="121" width="4" height="4" rx="1" fill="#7BA5D4"/>
  <text x="48" y="125" fill="#7BA5D4" font-size="13" font-weight="500">Dashboard</text>

  <!-- Mon bilan -->
  <rect x="12" y="144" width="196" height="40" rx="8" fill="transparent"/>
  <circle cx="30" cy="164" r="8" fill="none" stroke="#7BA5D4" stroke-width="1.5"/>
  <text x="48" y="169" fill="#7BA5D4" font-size="13" font-weight="500">Mon bilan</text>

  <!-- Documents -->
  <rect x="12" y="188" width="196" height="40" rx="8" fill="transparent"/>
  <rect x="23" y="156" width="14" height="16" rx="2" fill="none" stroke="#7BA5D4" stroke-width="1.5" transform="translate(0,52)"/>
  <text x="48" y="213" fill="#7BA5D4" font-size="13" font-weight="500">Documents</text>

  <!-- Profil (active) -->
  <rect x="12" y="232" width="196" height="40" rx="8" fill="rgba(255,255,255,0.12)"/>
  <rect x="12" y="232" width="3" height="40" rx="1.5" fill="#FF6B35"/>
  <circle cx="30" cy="252" r="8" fill="none" stroke="#FFFFFF" stroke-width="1.5"/>
  <circle cx="30" cy="249" r="3" fill="#FFFFFF"/>
  <path d="M24,257 Q24,253 30,253 Q36,253 36,257" fill="none" stroke="#FFFFFF" stroke-width="1.5"/>
  <text x="48" y="257" fill="#FFFFFF" font-size="13" font-weight="600">Profil</text>

  <!-- Header -->
  <rect x="220" y="0" width="1220" height="64" fill="#FFFFFF" filter="url(#shadow1)"/>
  <text x="252" y="37" fill="#6B7280" font-size="13">Profil</text>

  <!-- Header right: avatar + name + logout -->
  <circle cx="1310" cy="32" r="16" fill="#1E6FC0"/>
  <text x="1310" y="37" text-anchor="middle" fill="#FFFFFF" font-size="11" font-weight="600">MD</text>
  <text x="1335" y="28" fill="#1F2937" font-size="13" font-weight="500">Marie Dupont</text>
  <text x="1335" y="43" fill="#6B7280" font-size="11">Bénéficiaire</text>

  <!-- Main content area -->
  <!-- Profile Card -->
  <rect x="500" y="90" width="700" height="320" rx="10" fill="#FFFFFF" filter="url(#shadow2)"/>

  <!-- Avatar -->
  <circle cx="850" cy="145" r="40" fill="#1E6FC0"/>
  <text x="850" y="155" text-anchor="middle" fill="#FFFFFF" font-size="28" font-weight="700">MD</text>

  <!-- Name -->
  <text x="850" y="210" text-anchor="middle" fill="#111827" font-size="24" font-weight="700">Marie Dupont</text>

  <!-- Role badge -->
  <rect x="800" y="220" width="100" height="26" rx="13" fill="#EBF5FF"/>
  <text x="850" y="237" text-anchor="middle" fill="#1E6FC0" font-size="12" font-weight="500">Bénéficiaire</text>

  <!-- Info rows -->
  <!-- Email -->
  <rect x="555" y="260" width="390" height="20" fill="none"/>
  <text x="575" y="275" fill="#6B7280" font-size="13">&#x2709;</text>
  <text x="595" y="275" fill="#4B5563" font-size="13">marie.dupont@email.com</text>

  <!-- Phone -->
  <text x="575" y="298" fill="#6B7280" font-size="13">&#x260E;</text>
  <text x="595" y="298" fill="#4B5563" font-size="13">06 12 34 56 78</text>

  <!-- Membre depuis -->
  <text x="575" y="321" fill="#6B7280" font-size="13">&#x1F4C5;</text>
  <text x="595" y="321" fill="#4B5563" font-size="13">Membre depuis le 15 mars 2026</text>

  <!-- Consultant -->
  <text x="575" y="344" fill="#6B7280" font-size="13">&#x1F464;</text>
  <text x="595" y="344" fill="#4B5563" font-size="13">Consultante assignée : </text>
  <text x="755" y="344" fill="#1E6FC0" font-size="13" font-weight="500">Sophie Martin</text>

  <!-- Right side info -->
  <text x="980" y="275" fill="#6B7280" font-size="13">&#x260E;</text>
  <text x="1000" y="275" fill="#4B5563" font-size="13">06 12 34 56 78</text>

  <!-- Section: Informations personnelles -->
  <rect x="500" y="430" width="700" height="170" rx="10" fill="#FFFFFF" filter="url(#shadow2)"/>
  <text x="530" y="462" fill="#111827" font-size="16" font-weight="600">Informations personnelles</text>
  <line x1="530" y1="475" x2="1170" y2="475" stroke="#E5E7EB" stroke-width="1"/>

  <!-- Fields -->
  <text x="530" y="500" fill="#6B7280" font-size="12" font-weight="500">Nom</text>
  <rect x="530" y="506" width="200" height="36" rx="8" fill="#F9FAFB"/>
  <text x="544" y="529" fill="#374151" font-size="13">Dupont</text>

  <text x="750" y="500" fill="#6B7280" font-size="12" font-weight="500">Prénom</text>
  <rect x="750" y="506" width="200" height="36" rx="8" fill="#F9FAFB"/>
  <text x="764" y="529" fill="#374151" font-size="13">Marie</text>

  <text x="970" y="500" fill="#6B7280" font-size="12" font-weight="500">Email</text>
  <rect x="970" y="506" width="200" height="36" rx="8" fill="#F9FAFB"/>
  <text x="984" y="529" fill="#374151" font-size="13">marie.dupont@email.com</text>

  <text x="530" y="565" fill="#9CA3AF" font-size="11" font-style="italic">Ces champs sont en lecture seule.</text>

  <!-- Section: Sécurité -->
  <rect x="500" y="618" width="700" height="110" rx="10" fill="#FFFFFF" filter="url(#shadow2)"/>
  <text x="530" y="650" fill="#111827" font-size="16" font-weight="600">Sécurité</text>
  <line x1="530" y1="663" x2="1170" y2="663" stroke="#E5E7EB" stroke-width="1"/>

  <rect x="530" y="675" width="220" height="36" rx="8" fill="#FFFFFF" stroke="#D1D5DB" stroke-width="1.5"/>
  <text x="555" y="698" fill="#374151" font-size="13" font-weight="500">Modifier mon mot de passe</text>
  <text x="770" y="698" fill="#9CA3AF" font-size="12">Dernière modification il y a 12 jours</text>

  <!-- Section: Mes données personnelles -->
  <rect x="500" y="746" width="700" height="70" rx="10" fill="#FFFFFF" filter="url(#shadow2)" stroke="#E5E7EB" stroke-width="1"/>
  <text x="530" y="775" fill="#111827" font-size="14" font-weight="600">Gérer mes données (RGPD)</text>
  <text x="530" y="795" fill="#6B7280" font-size="12">Exportez ou supprimez vos données personnelles</text>
  <text x="1160" y="785" fill="#6B7280" font-size="18" text-anchor="end">&#x2192;</text>

  <!-- Footer note -->
  <text x="850" y="845" text-anchor="middle" fill="#9CA3AF" font-size="11" font-style="italic">Pour toute modification de vos informations, contactez votre consultante ou l'administrateur.</text>
</svg>