<!-- MAQ-08 | Gestion Utilisateurs | Link's Accompagnement | v3.0 | saas-moderne | 2026-03-26 -->
<svg xmlns="http://www.w3.org/2000/svg" viewBox="0 0 1440 900" width="1440" height="900" font-family="Inter, system-ui, sans-serif">
  <defs>
    <filter id="shadow1" x="-2%" y="-2%" width="104%" height="108%">
      <feDropShadow dx="0" dy="1" stdDeviation="3" flood-opacity="0.08"/>
    </filter>
    <filter id="shadow2" x="-2%" y="-2%" width="104%" height="110%">
      <feDropShadow dx="0" dy="4" stdDeviation="12" flood-opacity="0.12"/>
    </filter>
    <filter id="modalShadow" x="-5%" y="-5%" width="110%" height="115%">
      <feDropShadow dx="0" dy="8" stdDeviation="24" flood-opacity="0.2"/>
    </filter>
    <clipPath id="avatarClip"><circle cx="16" cy="16" r="16"/></clipPath>
  </defs>

  <!-- Background -->
  <rect width="1440" height="900" fill="#FAFBFC"/>

  <!-- Sidebar -->
  <rect width="220" height="900" fill="#0D3B6E"/>
  <!-- Logo area -->
  <text x="52" y="42" font-size="18" font-weight="700" fill="#FFFFFF">Link's</text>
  <text x="52" y="60" font-size="11" fill="rgba(255,255,255,0.7)">Accompagnement</text>
  <polygon points="30,30 42,50 30,50" fill="#FF6B35"/>
  <!-- Nav separator -->
  <line x1="20" y1="80" x2="200" y2="80" stroke="rgba(255,255,255,0.1)" stroke-width="1"/>
  <!-- Nav items -->
  <rect x="12" y="96" width="196" height="40" rx="8" fill="transparent"/>
  <text x="52" y="121" font-size="13" fill="rgba(255,255,255,0.6)">Dashboard</text>
  <rect x="16" y="104" width="18" height="18" rx="3" fill="none" stroke="rgba(255,255,255,0.5)" stroke-width="1.5"/>
  <line x1="20" y1="113" x2="30" y2="113" stroke="rgba(255,255,255,0.5)" stroke-width="1.5"/>
  <line x1="20" y1="117" x2="27" y2="117" stroke="rgba(255,255,255,0.5)" stroke-width="1.5"/>

  <!-- Active nav item -->
  <rect x="12" y="142" width="196" height="40" rx="8" fill="rgba(255,255,255,0.12)"/>
  <rect x="12" y="142" width="3" height="40" rx="1.5" fill="#FF6B35"/>
  <text x="52" y="167" font-size="13" font-weight="600" fill="#FFFFFF">Utilisateurs</text>
  <circle cx="30" cy="162" r="8" fill="none" stroke="#FFFFFF" stroke-width="1.5"/>
  <circle cx="30" cy="160" r="3" fill="none" stroke="#FFFFFF" stroke-width="1.5"/>
  <path d="M23,168 Q30,164 37,168" fill="none" stroke="#FFFFFF" stroke-width="1.5"/>

  <rect x="12" y="188" width="196" height="40" rx="8" fill="transparent"/>
  <text x="52" y="213" font-size="13" fill="rgba(255,255,255,0.6)">Documents</text>
  <rect x="20" y="200" width="16" height="20" rx="2" fill="none" stroke="rgba(255,255,255,0.5)" stroke-width="1.5"/>
  <path d="M24,200 L24,196 L32,196 L36,200" fill="none" stroke="rgba(255,255,255,0.5)" stroke-width="1.5"/>

  <!-- Header -->
  <rect x="220" y="0" width="1220" height="64" fill="#FFFFFF" filter="url(#shadow1)"/>
  <!-- Breadcrumb -->
  <text x="252" y="37" font-size="13" fill="#9CA3AF">Administration</text>
  <text x="350" y="37" font-size="13" fill="#9CA3AF">›</text>
  <text x="362" y="37" font-size="13" font-weight="500" fill="#374151">Utilisateurs</text>
  <!-- User info -->
  <circle cx="1340" cy="32" r="16" fill="#1E6FC0"/>
  <text x="1334" y="37" font-size="10" font-weight="600" fill="#FFFFFF">AD</text>
  <text x="1280" y="28" font-size="12" font-weight="500" fill="#374151" text-anchor="end">Administrateur</text>
  <text x="1280" y="42" font-size="10" fill="#9CA3AF" text-anchor="end">super_admin</text>
  <!-- Logout -->
  <text x="1380" y="37" font-size="12" fill="#9CA3AF">↗</text>

  <!-- Content area -->
  <!-- Title -->
  <text x="252" y="108" font-size="20" font-weight="700" fill="#111827">Gestion des utilisateurs</text>
  <text x="252" y="128" font-size="13" fill="#6B7280">8 utilisateurs · 3 rôles</text>

  <!-- Action bar -->
  <!-- Filter pills -->
  <rect x="252" y="148" width="80" height="34" rx="17" fill="#1E6FC0"/>
  <text x="292" y="170" font-size="12" font-weight="500" fill="#FFFFFF" text-anchor="middle">Tous (8)</text>

  <rect x="340" y="148" width="120" height="34" rx="17" fill="#FFFFFF" stroke="#E5E7EB" stroke-width="1"/>
  <text x="400" y="170" font-size="12" fill="#6B7280" text-anchor="middle">Bénéficiaires (5)</text>

  <rect x="468" y="148" width="120" height="34" rx="17" fill="#FFFFFF" stroke="#E5E7EB" stroke-width="1"/>
  <text x="528" y="170" font-size="12" fill="#6B7280" text-anchor="middle">Consultantes (2)</text>

  <rect x="596" y="148" width="82" height="34" rx="17" fill="#FFFFFF" stroke="#E5E7EB" stroke-width="1"/>
  <text x="637" y="170" font-size="12" fill="#6B7280" text-anchor="middle">Admin (1)</text>

  <!-- Search -->
  <rect x="900" y="148" width="240" height="34" rx="10" fill="#FFFFFF" stroke="#E5E7EB" stroke-width="1"/>
  <text x="922" y="170" font-size="12" fill="#9CA3AF">🔍 Rechercher un utilisateur…</text>

  <!-- Create button -->
  <rect x="1152" y="148" width="180" height="34" rx="10" fill="#1E6FC0"/>
  <text x="1242" y="170" font-size="12" font-weight="600" fill="#FFFFFF" text-anchor="middle">+ Créer un utilisateur</text>

  <!-- Data table card -->
  <rect x="252" y="200" width="1156" height="460" rx="12" fill="#FFFFFF" filter="url(#shadow1)"/>

  <!-- Table header -->
  <rect x="252" y="200" width="1156" height="44" rx="12" fill="#F9FAFB"/>
  <rect x="252" y="232" width="1156" height="12" fill="#F9FAFB"/>
  <text x="284" y="227" font-size="11" font-weight="600" fill="#6B7280" letter-spacing="0.5">UTILISATEUR</text>
  <text x="520" y="227" font-size="11" font-weight="600" fill="#6B7280" letter-spacing="0.5">RÔLE</text>
  <text x="680" y="227" font-size="11" font-weight="600" fill="#6B7280" letter-spacing="0.5">CONSULTANT ASSIGNÉ</text>
  <text x="880" y="227" font-size="11" font-weight="600" fill="#6B7280" letter-spacing="0.5">STATUT</text>
  <text x="1000" y="227" font-size="11" font-weight="600" fill="#6B7280" letter-spacing="0.5">DERNIÈRE CONNEXION</text>
  <text x="1180" y="227" font-size="11" font-weight="600" fill="#6B7280" letter-spacing="0.5">ACTIONS</text>

  <!-- Row 1 -->
  <rect x="252" y="244" width="1156" height="64" fill="#FFFFFF"/>
  <line x1="272" y1="308" x2="1388" y2="308" stroke="#F3F4F6" stroke-width="1"/>
  <circle cx="296" cy="276" r="16" fill="#DBEAFE"/>
  <text x="289" y="280" font-size="10" font-weight="600" fill="#1E6FC0">MD</text>
  <text x="320" y="271" font-size="13" font-weight="500" fill="#111827">Marie Dupont</text>
  <text x="320" y="287" font-size="11" fill="#9CA3AF">marie.dupont@email.com</text>
  <rect x="520" y="263" width="90" height="24" rx="12" fill="#EFF6FF"/>
  <text x="565" y="280" font-size="11" font-weight="500" fill="#1E6FC0" text-anchor="middle">Bénéficiaire</text>
  <text x="680" y="280" font-size="12" fill="#374151">Sophie Martin</text>
  <rect x="880" y="265" width="50" height="22" rx="11" fill="#ECFDF5"/>
  <text x="905" y="280" font-size="11" font-weight="500" fill="#059669" text-anchor="middle">Actif</text>
  <text x="1000" y="280" font-size="12" fill="#6B7280">Aujourd'hui</text>
  <!-- Actions -->
  <circle cx="1190" cy="276" r="14" fill="#F9FAFB"/>
  <text x="1186" y="280" font-size="12" fill="#6B7280">✏</text>
  <circle cx="1224" cy="276" r="14" fill="#F9FAFB"/>
  <text x="1220" y="280" font-size="12" fill="#6B7280">🔑</text>
  <circle cx="1258" cy="276" r="14" fill="#FEF2F2"/>
  <text x="1254" y="280" font-size="12" fill="#DC2626">🗑</text>

  <!-- Row 2 -->
  <rect x="252" y="308" width="1156" height="64" fill="#F9FAFB"/>
  <line x1="272" y1="372" x2="1388" y2="372" stroke="#F3F4F6" stroke-width="1"/>
  <circle cx="296" cy="340" r="16" fill="#DBEAFE"/>
  <text x="290" y="344" font-size="10" font-weight="600" fill="#1E6FC0">JM</text>
  <text x="320" y="335" font-size="13" font-weight="500" fill="#111827">Jean Martin</text>
  <text x="320" y="351" font-size="11" fill="#9CA3AF">jean.martin@email.com</text>
  <rect x="520" y="327" width="90" height="24" rx="12" fill="#EFF6FF"/>
  <text x="565" y="344" font-size="11" font-weight="500" fill="#1E6FC0" text-anchor="middle">Bénéficiaire</text>
  <text x="680" y="344" font-size="12" fill="#374151">Sophie Martin</text>
  <rect x="880" y="329" width="50" height="22" rx="11" fill="#ECFDF5"/>
  <text x="905" y="344" font-size="11" font-weight="500" fill="#059669" text-anchor="middle">Actif</text>
  <text x="1000" y="344" font-size="12" fill="#6B7280">Hier</text>
  <circle cx="1190" cy="340" r="14" fill="#F3F4F6"/>
  <text x="1186" y="344" font-size="12" fill="#6B7280">✏</text>
  <circle cx="1224" cy="340" r="14" fill="#F3F4F6"/>
  <text x="1220" y="344" font-size="12" fill="#6B7280">🔑</text>
  <circle cx="1258" cy="340" r="14" fill="#FEF2F2"/>
  <text x="1254" y="344" font-size="12" fill="#DC2626">🗑</text>

  <!-- Row 3 -->
  <rect x="252" y="372" width="1156" height="64" fill="#FFFFFF"/>
  <line x1="272" y1="436" x2="1388" y2="436" stroke="#F3F4F6" stroke-width="1"/>
  <circle cx="296" cy="404" r="16" fill="#E5E7EB"/>
  <text x="290" y="408" font-size="10" font-weight="600" fill="#6B7280">CB</text>
  <text x="320" y="399" font-size="13" font-weight="500" fill="#111827">Claire Bernard</text>
  <text x="320" y="415" font-size="11" fill="#9CA3AF">claire.bernard@email.com</text>
  <rect x="520" y="391" width="90" height="24" rx="12" fill="#EFF6FF"/>
  <text x="565" y="408" font-size="11" font-weight="500" fill="#1E6FC0" text-anchor="middle">Bénéficiaire</text>
  <text x="680" y="408" font-size="12" fill="#374151">Isabelle Morel</text>
  <rect x="880" y="393" width="56" height="22" rx="11" fill="#FFF7ED"/>
  <text x="908" y="408" font-size="11" font-weight="500" fill="#D97706" text-anchor="middle">Inactif</text>
  <text x="1000" y="408" font-size="12" fill="#6B7280">il y a 12j</text>
  <circle cx="1190" cy="404" r="14" fill="#F9FAFB"/>
  <text x="1186" y="408" font-size="12" fill="#6B7280">✏</text>
  <circle cx="1224" cy="404" r="14" fill="#F9FAFB"/>
  <text x="1220" y="408" font-size="12" fill="#6B7280">🔑</text>
  <circle cx="1258" cy="404" r="14" fill="#FEF2F2"/>
  <text x="1254" y="408" font-size="12" fill="#DC2626">🗑</text>

  <!-- Row 4 -->
  <rect x="252" y="436" width="1156" height="64" fill="#F9FAFB"/>
  <line x1="272" y1="500" x2="1388" y2="500" stroke="#F3F4F6" stroke-width="1"/>
  <circle cx="296" cy="468" r="16" fill="#D1FAE5"/>
  <text x="289" y="472" font-size="10" font-weight="600" fill="#059669">SM</text>
  <text x="320" y="463" font-size="13" font-weight="500" fill="#111827">Sophie Martin</text>
  <text x="320" y="479" font-size="11" fill="#9CA3AF">sophie.martin@email.com</text>
  <rect x="520" y="455" width="90" height="24" rx="12" fill="#ECFDF5"/>
  <text x="565" y="472" font-size="11" font-weight="500" fill="#059669" text-anchor="middle">Consultante</text>
  <text x="680" y="472" font-size="12" fill="#9CA3AF">—</text>
  <rect x="880" y="457" width="50" height="22" rx="11" fill="#ECFDF5"/>
  <text x="905" y="472" font-size="11" font-weight="500" fill="#059669" text-anchor="middle">Actif</text>
  <text x="1000" y="472" font-size="12" fill="#6B7280">Aujourd'hui</text>
  <circle cx="1190" cy="468" r="14" fill="#F3F4F6"/>
  <text x="1186" y="472" font-size="12" fill="#6B7280">✏</text>
  <circle cx="1224" cy="468" r="14" fill="#F3F4F6"/>
  <text x="1220" y="472" font-size="12" fill="#6B7280">🔑</text>

  <!-- Row 5 -->
  <rect x="252" y="500" width="1156" height="64" fill="#FFFFFF"/>
  <line x1="272" y1="564" x2="1388" y2="564" stroke="#F3F4F6" stroke-width="1"/>
  <circle cx="296" cy="532" r="16" fill="#D1FAE5"/>
  <text x="291" y="536" font-size="10" font-weight="600" fill="#059669">IM</text>
  <text x="320" y="527" font-size="13" font-weight="500" fill="#111827">Isabelle Morel</text>
  <text x="320" y="543" font-size="11" fill="#9CA3AF">isabelle.morel@email.com</text>
  <rect x="520" y="519" width="90" height="24" rx="12" fill="#ECFDF5"/>
  <text x="565" y="536" font-size="11" font-weight="500" fill="#059669" text-anchor="middle">Consultante</text>
  <text x="680" y="536" font-size="12" fill="#9CA3AF">—</text>
  <rect x="880" y="521" width="50" height="22" rx="11" fill="#ECFDF5"/>
  <text x="905" y="536" font-size="11" font-weight="500" fill="#059669" text-anchor="middle">Actif</text>
  <text x="1000" y="536" font-size="12" fill="#6B7280">Hier</text>
  <circle cx="1190" cy="532" r="14" fill="#F9FAFB"/>
  <text x="1186" y="536" font-size="12" fill="#6B7280">✏</text>
  <circle cx="1224" cy="532" r="14" fill="#F9FAFB"/>
  <text x="1220" y="536" font-size="12" fill="#6B7280">🔑</text>

  <!-- Pagination -->
  <rect x="252" y="580" width="1156" height="48" rx="0" fill="#FFFFFF"/>
  <rect x="252" y="616" width="1156" height="12" rx="12" fill="#FFFFFF"/>
  <text x="284" y="610" font-size="12" fill="#6B7280">1 à 5 sur 8</text>
  <rect x="1300" y="592" width="32" height="28" rx="8" fill="#F3F4F6"/>
  <text x="1316" y="610" font-size="12" fill="#374151" text-anchor="middle">1</text>
  <rect x="1338" y="592" width="32" height="28" rx="8" fill="#FFFFFF" stroke="#E5E7EB" stroke-width="1"/>
  <text x="1354" y="610" font-size="12" fill="#6B7280" text-anchor="middle">2</text>

  <!-- Modal overlay -->
  <rect width="1440" height="900" fill="rgba(0,0,0,0.4)"/>
  <!-- Backdrop blur effect simulated -->
  <rect width="1440" height="900" fill="rgba(255,255,255,0.05)"/>

  <!-- Modal -->
  <rect x="440" y="140" width="560" height="580" rx="12" fill="#FFFFFF" filter="url(#modalShadow)"/>
  <!-- Modal header -->
  <text x="472" y="180" font-size="18" font-weight="700" fill="#111827">Créer un utilisateur</text>
  <line x1="440" y1="200" x2="1000" y2="200" stroke="#F3F4F6" stroke-width="1"/>

  <!-- Form fields -->
  <!-- Prénom -->
  <text x="472" y="236" font-size="12" font-weight="500" fill="#374151">Prénom</text>
  <rect x="472" y="244" width="236" height="40" rx="10" fill="#FFFFFF" stroke="#D1D5DB" stroke-width="1"/>
  <text x="488" y="269" font-size="13" fill="#9CA3AF">ex: Marie</text>

  <!-- Nom -->
  <text x="724" y="236" font-size="12" font-weight="500" fill="#374151">Nom</text>
  <rect x="724" y="244" width="244" height="40" rx="10" fill="#FFFFFF" stroke="#D1D5DB" stroke-width="1"/>
  <text x="740" y="269" font-size="13" fill="#9CA3AF">ex: Dupont</text>

  <!-- Email -->
  <text x="472" y="312" font-size="12" font-weight="500" fill="#374151">Email</text>
  <rect x="472" y="320" width="496" height="40" rx="10" fill="#FFFFFF" stroke="#D1D5DB" stroke-width="1"/>
  <text x="488" y="345" font-size="13" fill="#9CA3AF">ex: marie.dupont@email.com</text>

  <!-- Rôle -->
  <text x="472" y="388" font-size="12" font-weight="500" fill="#374151">Rôle</text>
  <rect x="472" y="396" width="496" height="40" rx="10" fill="#FFFFFF" stroke="#D1D5DB" stroke-width="1"/>
  <text x="488" y="421" font-size="13" fill="#374151">Bénéficiaire</text>
  <text x="948" y="421" font-size="14" fill="#9CA3AF">▾</text>

  <!-- Consultant assigné -->
  <text x="472" y="464" font-size="12" font-weight="500" fill="#374151">Consultant assigné</text>
  <rect x="472" y="472" width="496" height="40" rx="10" fill="#FFFFFF" stroke="#D1D5DB" stroke-width="1"/>
  <text x="488" y="497" font-size="13" fill="#9CA3AF">Sélectionner un consultant…</text>
  <text x="948" y="497" font-size="14" fill="#9CA3AF">▾</text>

  <!-- Note -->
  <rect x="472" y="532" width="496" height="36" rx="8" fill="#F0F9FF"/>
  <text x="492" y="555" font-size="11" fill="#1E6FC0">ℹ Un mot de passe temporaire sera envoyé par email.</text>

  <!-- Buttons -->
  <rect x="472" y="588" width="120" height="40" rx="10" fill="#FFFFFF" stroke="#D1D5DB" stroke-width="1"/>
  <text x="532" y="613" font-size="13" font-weight="500" fill="#374151" text-anchor="middle">Annuler</text>
  <rect x="848" y="588" width="120" height="40" rx="10" fill="#1E6FC0"/>
  <text x="908" y="613" font-size="13" font-weight="600" fill="#FFFFFF" text-anchor="middle">Créer le compte</text>

  <!-- Close button -->
  <circle cx="952" cy="172" r="14" fill="#F3F4F6"/>
  <text x="948" y="177" font-size="14" fill="#6B7280">✕</text>
</svg>