<!-- MAQ-05 | Fiche Bénéficiaire Consultant | Link's Accompagnement | v3.0 | corporate | 2026-03-26 -->
<svg xmlns="http://www.w3.org/2000/svg" viewBox="0 0 1440 900" width="1440" height="900" font-family="Inter, system-ui, sans-serif">
  <defs>
    <clipPath id="viewport"><rect width="1440" height="900" rx="0"/></clipPath>
    <filter id="shadow1" x="-2%" y="-2%" width="104%" height="108%">
      <feDropShadow dx="0" dy="1" stdDeviation="2" flood-opacity="0.08"/>
    </filter>
  </defs>
  <g clip-path="url(#viewport)">
    <!-- Background -->
    <rect width="1440" height="900" fill="#F2F4F7"/>

    <!-- ==================== SIDEBAR (220px) ==================== -->
    <rect width="220" height="900" fill="#0D3B6E"/>
    <!-- Logo area -->
    <text x="20" y="36" font-size="19" font-weight="700" fill="#FFFFFF">Link's</text>
    <text x="20" y="52" font-size="11" fill="#8BAFD4" letter-spacing="1">ACCOMPAGNEMENT</text>
    <!-- Orange accent polygon -->
    <polygon points="176,22 198,33 176,44" fill="#E5622E"/>
    <!-- Divider -->
    <line x1="16" y1="66" x2="204" y2="66" stroke="#1A4F82" stroke-width="1"/>

    <!-- Nav items -->
    <!-- Dashboard -->
    <g opacity="0.7">
      <rect x="8" y="78" width="204" height="38" rx="4" fill="transparent"/>
      <rect x="20" y="90" width="14" height="14" rx="2" fill="none" stroke="#8BAFD4" stroke-width="1.5"/>
      <text x="42" y="102" font-size="12.5" fill="#B8D0E8">Dashboard</text>
    </g>
    <!-- Mes bénéficiaires (active) -->
    <g>
      <rect x="8" y="118" width="204" height="38" rx="4" fill="#1A4F82"/>
      <rect x="4" y="118" width="4" height="38" rx="0" fill="#E5622E"/>
      <rect x="20" y="130" width="14" height="14" rx="2" fill="none" stroke="#FFFFFF" stroke-width="1.5"/>
      <text x="42" y="142" font-size="12.5" font-weight="600" fill="#FFFFFF">Mes bénéficiaires</text>
    </g>
    <!-- Agenda -->
    <g opacity="0.7">
      <rect x="8" y="158" width="204" height="38" rx="4" fill="transparent"/>
      <text x="42" y="182" font-size="12.5" fill="#B8D0E8">Agenda</text>
    </g>
    <!-- Documents -->
    <g opacity="0.7">
      <rect x="8" y="198" width="204" height="38" rx="4" fill="transparent"/>
      <text x="42" y="222" font-size="12.5" fill="#B8D0E8">Documents</text>
    </g>
    <!-- Rapports -->
    <g opacity="0.7">
      <rect x="8" y="238" width="204" height="38" rx="4" fill="transparent"/>
      <text x="42" y="262" font-size="12.5" fill="#B8D0E8">Rapports</text>
    </g>
    <!-- Profil -->
    <g opacity="0.7">
      <rect x="8" y="278" width="204" height="38" rx="4" fill="transparent"/>
      <text x="42" y="302" font-size="12.5" fill="#B8D0E8">Profil</text>
    </g>

    <!-- ==================== HEADER (64px) ==================== -->
    <rect x="220" y="0" width="1220" height="64" fill="#FFFFFF"/>
    <line x1="220" y1="64" x2="1440" y2="64" stroke="#D5DAE3" stroke-width="1"/>
    <!-- Breadcrumb -->
    <text x="240" y="36" font-size="12.5" fill="#6B7A8D">Mes bénéficiaires</text>
    <text x="356" y="36" font-size="12.5" fill="#6B7A8D"> / </text>
    <text x="370" y="36" font-size="13" font-weight="600" fill="#1A2332">Marie Dupont</text>
    <!-- User area (right) -->
    <rect x="1300" y="16" width="32" height="32" rx="4" fill="#E3E8EF"/>
    <text x="1307" y="37" font-size="10" font-weight="700" fill="#0D3B6E">SM</text>
    <text x="1340" y="28" font-size="12" font-weight="600" fill="#1A2332">Sophie Martin</text>
    <text x="1340" y="42" font-size="11" fill="#6B7A8D">Consultante</text>

    <!-- ==================== MAIN CONTENT ==================== -->
    <!-- Profile card -->
    <rect x="240" y="78" width="644" height="108" rx="6" fill="#FFFFFF" filter="url(#shadow1)" stroke="#D5DAE3" stroke-width="1"/>
    <!-- Avatar -->
    <rect x="256" y="92" width="56" height="56" rx="6" fill="#1A5BA0"/>
    <text x="269" y="126" font-size="18" font-weight="700" fill="#FFFFFF">MD</text>
    <!-- Name and info -->
    <text x="328" y="108" font-size="17" font-weight="700" fill="#1A2332">Marie Dupont</text>
    <!-- Status badge -->
    <rect x="480" y="94" width="106" height="22" rx="4" fill="#FFF3E0" stroke="#FFCC80" stroke-width="1"/>
    <text x="496" y="109" font-size="10" font-weight="700" fill="#E65100" text-transform="uppercase">BILAN EN COURS</text>
    <!-- Contact info row -->
    <text x="328" y="128" font-size="12" fill="#4A5568">marie.dupont@email.com</text>
    <text x="500" y="128" font-size="12" fill="#4A5568">06 12 34 56 78</text>
    <!-- Meta row -->
    <text x="328" y="148" font-size="11" fill="#8896A6">Inscription : 15/03/2026</text>
    <text x="500" y="148" font-size="11" fill="#8896A6">Consultant : Sophie Martin</text>
    <text x="672" y="148" font-size="11" fill="#8896A6">Phase 2/6</text>

    <!-- ==================== RIGHT PANEL (300px) ==================== -->
    <!-- Prochaine séance -->
    <rect x="904" y="78" width="308" height="108" rx="6" fill="#FFFFFF" filter="url(#shadow1)" stroke="#D5DAE3" stroke-width="1"/>
    <rect x="904" y="78" width="308" height="32" rx="6" fill="#F7F8FA"/>
    <rect x="904" y="104" width="308" height="6" fill="#FFFFFF"/>
    <text x="920" y="100" font-size="12" font-weight="700" fill="#1A2332" text-transform="uppercase" letter-spacing="0.5">PROCHAINE SEANCE</text>
    <text x="920" y="128" font-size="13" font-weight="600" fill="#1A2332">Séance 3</text>
    <text x="1010" y="128" font-size="12" fill="#4A5568">29/04/2026 à 14h00</text>
    <rect x="920" y="140" width="110" height="28" rx="4" fill="#1A5BA0"/>
    <text x="937" y="158" font-size="11" font-weight="600" fill="#FFFFFF">Rejoindre visio</text>

    <!-- Actions rapides -->
    <rect x="904" y="198" width="308" height="168" rx="6" fill="#FFFFFF" filter="url(#shadow1)" stroke="#D5DAE3" stroke-width="1"/>
    <rect x="904" y="198" width="308" height="32" rx="6" fill="#F7F8FA"/>
    <rect x="904" y="224" width="308" height="6" fill="#FFFFFF"/>
    <text x="920" y="220" font-size="12" font-weight="700" fill="#1A2332" letter-spacing="0.5">ACTIONS RAPIDES</text>
    <!-- Action 1 -->
    <rect x="920" y="244" width="276" height="34" rx="4" fill="#F2F4F7" stroke="#D5DAE3" stroke-width="1"/>
    <text x="934" y="266" font-size="12" fill="#1A2332">Planifier une séance</text>
    <text x="1180" y="266" font-size="13" fill="#6B7A8D">&#x203A;</text>
    <!-- Action 2 -->
    <rect x="920" y="284" width="276" height="34" rx="4" fill="#F2F4F7" stroke="#D5DAE3" stroke-width="1"/>
    <text x="934" y="306" font-size="12" fill="#1A2332">Saisir un compte-rendu</text>
    <text x="1180" y="306" font-size="13" fill="#6B7A8D">&#x203A;</text>
    <!-- Action 3 -->
    <rect x="920" y="324" width="276" height="34" rx="4" fill="#F2F4F7" stroke="#D5DAE3" stroke-width="1"/>
    <text x="934" y="346" font-size="12" fill="#1A2332">Voir les documents</text>
    <text x="1180" y="346" font-size="13" fill="#6B7A8D">&#x203A;</text>

    <!-- ==================== TAB NAVIGATION ==================== -->
    <rect x="240" y="196" width="644" height="38" rx="0" fill="#FFFFFF" stroke="#D5DAE3" stroke-width="1"/>
    <!-- Parcours (active) -->
    <rect x="240" y="196" width="100" height="38" fill="#1A5BA0"/>
    <text x="265" y="220" font-size="12" font-weight="600" fill="#FFFFFF">Parcours</text>
    <!-- Comptes-rendus -->
    <text x="362" y="220" font-size="12" fill="#4A5568">Comptes-rendus</text>
    <!-- Planification -->
    <text x="472" y="220" font-size="12" fill="#4A5568">Planification</text>
    <!-- Documents -->
    <text x="574" y="220" font-size="12" fill="#4A5568">Documents</text>

    <!-- ==================== PROGRESS OVERVIEW ==================== -->
    <rect x="240" y="246" width="644" height="62" rx="6" fill="#FFFFFF" filter="url(#shadow1)" stroke="#D5DAE3" stroke-width="1"/>
    <text x="258" y="270" font-size="12" font-weight="700" fill="#1A2332">PROGRESSION GLOBALE</text>
    <text x="690" y="270" font-size="12" font-weight="700" fill="#1A5BA0">33%</text>
    <!-- Progress bar bg -->
    <rect x="258" y="280" width="610" height="6" rx="3" fill="#D5DAE3"/>
    <!-- Progress bar fill 33% -->
    <rect x="258" y="280" width="201" height="6" rx="3" fill="#1A5BA0"/>
    <text x="258" y="300" font-size="10.5" fill="#6B7A8D">2 phases validées · 1 en cours · 3 à compléter</text>

    <!-- ==================== PHASE CARDS (dense) ==================== -->
    <!-- Phase 1: Validated -->
    <rect x="240" y="318" width="644" height="64" rx="5" fill="#FFFFFF" filter="url(#shadow1)" stroke="#D5DAE3" stroke-width="1"/>
    <rect x="240" y="318" width="4" height="64" rx="0" fill="#22C55E"/>
    <rect x="258" y="334" width="28" height="28" rx="4" fill="#E8F5E9" stroke="#22C55E" stroke-width="1"/>
    <text x="268" y="353" font-size="12" font-weight="700" fill="#22C55E">1</text>
    <text x="298" y="344" font-size="12.5" font-weight="600" fill="#1A2332">Définir mon projet</text>
    <rect x="446" y="333" width="140" height="20" rx="4" fill="#E8F5E9" stroke="#A5D6A7" stroke-width="1"/>
    <text x="456" y="347" font-size="9.5" font-weight="700" fill="#2E7D32">&#x2713; VALIDE LE 28/03/2026</text>
    <text x="298" y="366" font-size="10.5" fill="#6B7A8D">5 réponses complétées</text>
    <rect x="770" y="336" width="100" height="26" rx="4" fill="transparent" stroke="#1A5BA0" stroke-width="1"/>
    <text x="782" y="354" font-size="10.5" font-weight="600" fill="#1A5BA0">Voir réponses</text>

    <!-- Phase 2: In Progress -->
    <rect x="240" y="390" width="644" height="64" rx="5" fill="#FFFFFF" filter="url(#shadow1)" stroke="#D5DAE3" stroke-width="1"/>
    <rect x="240" y="390" width="4" height="64" rx="0" fill="#E5622E"/>
    <rect x="258" y="406" width="28" height="28" rx="4" fill="#FFF3E0" stroke="#E5622E" stroke-width="1"/>
    <text x="268" y="425" font-size="12" font-weight="700" fill="#E5622E">2</text>
    <text x="298" y="416" font-size="12.5" font-weight="600" fill="#1A2332">Explorer mes compétences</text>
    <rect x="470" y="405" width="64" height="20" rx="4" fill="#FFF3E0" stroke="#FFCC80" stroke-width="1"/>
    <text x="480" y="419" font-size="9.5" font-weight="700" fill="#E65100">EN COURS</text>
    <text x="298" y="438" font-size="10.5" fill="#6B7A8D">3/5 réponses</text>
    <!-- Mini progress bar -->
    <rect x="390" y="432" width="70" height="4" rx="2" fill="#D5DAE3"/>
    <rect x="390" y="432" width="42" height="4" rx="2" fill="#E5622E"/>
    <rect x="770" y="408" width="100" height="26" rx="4" fill="transparent" stroke="#1A5BA0" stroke-width="1"/>
    <text x="782" y="426" font-size="10.5" font-weight="600" fill="#1A5BA0">Voir réponses</text>

    <!-- Phase 3: Not started -->
    <rect x="240" y="462" width="644" height="64" rx="5" fill="#FFFFFF" filter="url(#shadow1)" stroke="#D5DAE3" stroke-width="1"/>
    <rect x="240" y="462" width="4" height="64" rx="0" fill="#C5CCD6"/>
    <rect x="258" y="478" width="28" height="28" rx="4" fill="#F2F4F7" stroke="#C5CCD6" stroke-width="1"/>
    <text x="268" y="497" font-size="12" font-weight="700" fill="#8896A6">3</text>
    <text x="298" y="488" font-size="12.5" font-weight="600" fill="#6B7A8D">Analyser mon marché</text>
    <rect x="450" y="477" width="100" height="20" rx="4" fill="#F2F4F7" stroke="#D5DAE3" stroke-width="1"/>
    <text x="460" y="491" font-size="9.5" font-weight="700" fill="#8896A6">NON COMMENCEE</text>
    <text x="298" y="510" font-size="10.5" fill="#8896A6">0/4 réponses</text>
    <rect x="770" y="480" width="100" height="26" rx="4" fill="transparent" stroke="#C5CCD6" stroke-width="1"/>
    <text x="782" y="498" font-size="10.5" font-weight="600" fill="#C5CCD6">Voir réponses</text>

    <!-- Phase 4: Not started -->
    <rect x="240" y="534" width="644" height="64" rx="5" fill="#FFFFFF" filter="url(#shadow1)" stroke="#D5DAE3" stroke-width="1"/>
    <rect x="240" y="534" width="4" height="64" rx="0" fill="#C5CCD6"/>
    <rect x="258" y="550" width="28" height="28" rx="4" fill="#F2F4F7" stroke="#C5CCD6" stroke-width="1"/>
    <text x="268" y="569" font-size="12" font-weight="700" fill="#8896A6">4</text>
    <text x="298" y="560" font-size="12.5" font-weight="600" fill="#6B7A8D">Construire mon plan</text>
    <rect x="450" y="549" width="100" height="20" rx="4" fill="#F2F4F7" stroke="#D5DAE3" stroke-width="1"/>
    <text x="460" y="563" font-size="9.5" font-weight="700" fill="#8896A6">NON COMMENCEE</text>
    <text x="298" y="582" font-size="10.5" fill="#8896A6">0/4 réponses</text>
    <rect x="770" y="552" width="100" height="26" rx="4" fill="transparent" stroke="#C5CCD6" stroke-width="1"/>
    <text x="782" y="570" font-size="10.5" font-weight="600" fill="#C5CCD6">Voir réponses</text>

    <!-- Phase 5: Not started -->
    <rect x="240" y="606" width="644" height="64" rx="5" fill="#FFFFFF" filter="url(#shadow1)" stroke="#D5DAE3" stroke-width="1"/>
    <rect x="240" y="606" width="4" height="64" rx="0" fill="#C5CCD6"/>
    <rect x="258" y="622" width="28" height="28" rx="4" fill="#F2F4F7" stroke="#C5CCD6" stroke-width="1"/>
    <text x="268" y="641" font-size="12" font-weight="700" fill="#8896A6">5</text>
    <text x="298" y="632" font-size="12.5" font-weight="600" fill="#6B7A8D">Préparer mon entretien</text>
    <rect x="468" y="621" width="100" height="20" rx="4" fill="#F2F4F7" stroke="#D5DAE3" stroke-width="1"/>
    <text x="478" y="635" font-size="9.5" font-weight="700" fill="#8896A6">NON COMMENCEE</text>
    <text x="298" y="654" font-size="10.5" fill="#8896A6">0/3 réponses</text>
    <rect x="770" y="624" width="100" height="26" rx="4" fill="transparent" stroke="#C5CCD6" stroke-width="1"/>
    <text x="782" y="642" font-size="10.5" font-weight="600" fill="#C5CCD6">Voir réponses</text>

    <!-- Phase 6: Not started -->
    <rect x="240" y="678" width="644" height="64" rx="5" fill="#FFFFFF" filter="url(#shadow1)" stroke="#D5DAE3" stroke-width="1"/>
    <rect x="240" y="678" width="4" height="64" rx="0" fill="#C5CCD6"/>
    <rect x="258" y="694" width="28" height="28" rx="4" fill="#F2F4F7" stroke="#C5CCD6" stroke-width="1"/>
    <text x="268" y="713" font-size="12" font-weight="700" fill="#8896A6">6</text>
    <text x="298" y="704" font-size="12.5" font-weight="600" fill="#6B7A8D">Finaliser mon bilan</text>
    <rect x="450" y="693" width="100" height="20" rx="4" fill="#F2F4F7" stroke="#D5DAE3" stroke-width="1"/>
    <text x="460" y="707" font-size="9.5" font-weight="700" fill="#8896A6">NON COMMENCEE</text>
    <text x="298" y="726" font-size="10.5" fill="#8896A6">0/3 réponses</text>
    <rect x="770" y="696" width="100" height="26" rx="4" fill="transparent" stroke="#C5CCD6" stroke-width="1"/>
    <text x="782" y="714" font-size="10.5" font-weight="600" fill="#C5CCD6">Voir réponses</text>

  </g>
</svg>
