<!-- MAQ-13 | Gestion Documents Admin | Link's Accompagnement | v3.0 | corporate | 2026-03-26 -->
<svg xmlns="http://www.w3.org/2000/svg" viewBox="0 0 1440 900" width="1440" height="900" font-family="Inter, system-ui, sans-serif">
  <defs>
    <filter id="corpShadow" x="-1%" y="-1%" width="102%" height="102%">
      <feDropShadow dx="0" dy="1" stdDeviation="2" flood-opacity="0.08"/>
    </filter>
  </defs>

  <!-- Background -->
  <rect width="1440" height="900" fill="#F2F4F7"/>

  <!-- Sidebar -->
  <rect width="220" height="900" fill="#0D3B6E"/>

  <!-- Logo -->
  <polygon points="30,26 48,16 48,40 30,50" fill="#E5622E"/>
  <text x="56" y="32" font-size="15" font-weight="700" fill="#FFFFFF">Link's</text>
  <text x="56" y="47" font-size="10" fill="#8BAFC9" letter-spacing="0.5">ACCOMPAGNEMENT</text>

  <line x1="16" y1="64" x2="204" y2="64" stroke="#1A4F80" stroke-width="1"/>

  <!-- Nav: Dashboard -->
  <rect x="8" y="76" width="204" height="38" rx="4" fill="transparent"/>
  <rect x="24" y="86" width="14" height="14" rx="2" fill="none" stroke="#7BA3C9" stroke-width="1.5"/>
  <rect x="28" y="90" width="3" height="6" rx="1" fill="#7BA3C9"/>
  <rect x="33" y="93" width="3" height="3" rx="1" fill="#7BA3C9"/>
  <text x="48" y="98" font-size="12" fill="#7BA3C9">Dashboard</text>

  <!-- Nav: Utilisateurs -->
  <rect x="8" y="118" width="204" height="38" rx="4" fill="transparent"/>
  <circle cx="32" cy="133" r="4.5" fill="none" stroke="#7BA3C9" stroke-width="1.5"/>
  <path d="M25,141 Q28,136 32,136 Q36,136 39,141" fill="none" stroke="#7BA3C9" stroke-width="1.5"/>
  <text x="48" y="138" font-size="12" fill="#7BA3C9">Utilisateurs</text>

  <!-- Nav: Documents (active) -->
  <rect x="8" y="160" width="204" height="38" rx="4" fill="#1A4F80"/>
  <rect x="4" y="160" width="4" height="38" rx="2" fill="#E5622E"/>
  <rect x="24" y="170" width="12" height="16" rx="2" fill="none" stroke="#FFFFFF" stroke-width="1.5"/>
  <path d="M28,177 L34,177 M28,181 L32,181" stroke="#FFFFFF" stroke-width="1"/>
  <text x="48" y="183" font-size="12" font-weight="600" fill="#FFFFFF">Documents</text>

  <!-- Header -->
  <rect x="220" y="0" width="1220" height="56" fill="#FFFFFF" filter="url(#corpShadow)"/>
  <line x1="220" y1="56" x2="1440" y2="56" stroke="#E2E5EA" stroke-width="1"/>

  <!-- Breadcrumb -->
  <text x="248" y="33" font-size="12" fill="#6B7280">Administration</text>
  <text x="336" y="33" font-size="12" fill="#CBD5E1">|</text>
  <text x="348" y="33" font-size="12" font-weight="600" fill="#1A5BA0">Documents</text>

  <!-- User info -->
  <rect x="1270" y="14" width="1" height="28" fill="#E2E5EA"/>
  <circle cx="1296" cy="28" r="14" fill="#E8EEF4"/>
  <text x="1291" y="33" font-size="11" font-weight="700" fill="#1A5BA0">A</text>
  <text x="1320" y="24" font-size="11" font-weight="500" fill="#1E293B">Administrateur</text>
  <text x="1320" y="38" font-size="10" fill="#6B7280">super_admin</text>
  <!-- Logout -->
  <g transform="translate(1400,20)">
    <path d="M0,0 L8,0 L8,16 L0,16" fill="none" stroke="#6B7280" stroke-width="1.5"/>
    <path d="M3,8 L13,8 M10,5 L13,8 L10,11" fill="none" stroke="#6B7280" stroke-width="1.5" stroke-linecap="round" stroke-linejoin="round"/>
  </g>

  <!-- Title -->
  <text x="248" y="96" font-size="20" font-weight="700" fill="#111827">Gestion des documents par phase</text>
  <text x="248" y="114" font-size="12" fill="#6B7280">Ajoutez, organisez et supprimez les documents mis à disposition des bénéficiaires.</text>

  <!-- Phase tabs (corporate: compact, underline style) -->
  <rect x="248" y="130" width="700" height="36" rx="4" fill="#FFFFFF" filter="url(#corpShadow)"/>
  <g transform="translate(248,130)">
    <rect x="0" y="0" width="116" height="36" rx="4" fill="#1A5BA0"/>
    <text x="58" y="23" font-size="12" font-weight="600" fill="#FFFFFF" text-anchor="middle">Phase 1</text>

    <text x="174" y="23" font-size="12" fill="#6B7280" text-anchor="middle">Phase 2</text>
    <line x1="117" y1="8" x2="117" y2="28" stroke="#E2E5EA" stroke-width="1"/>

    <text x="291" y="23" font-size="12" fill="#6B7280" text-anchor="middle">Phase 3</text>
    <line x1="234" y1="8" x2="234" y2="28" stroke="#E2E5EA" stroke-width="1"/>

    <text x="408" y="23" font-size="12" fill="#6B7280" text-anchor="middle">Phase 4</text>
    <line x1="351" y1="8" x2="351" y2="28" stroke="#E2E5EA" stroke-width="1"/>

    <text x="525" y="23" font-size="12" fill="#6B7280" text-anchor="middle">Phase 5</text>
    <line x1="468" y1="8" x2="468" y2="28" stroke="#E2E5EA" stroke-width="1"/>

    <text x="642" y="23" font-size="12" fill="#6B7280" text-anchor="middle">Phase 6</text>
    <line x1="585" y1="8" x2="585" y2="28" stroke="#E2E5EA" stroke-width="1"/>
  </g>

  <!-- Upload zone (corporate: clean, structured) -->
  <rect x="248" y="182" width="700" height="110" rx="6" fill="#FFFFFF" stroke="#C8D0DB" stroke-width="1" stroke-dasharray="6,3"/>
  <g transform="translate(560,196)">
    <path d="M12,24 L12,8" stroke="#1A5BA0" stroke-width="1.8" stroke-linecap="round"/>
    <path d="M7,13 L12,8 L17,13" fill="none" stroke="#1A5BA0" stroke-width="1.8" stroke-linecap="round" stroke-linejoin="round"/>
    <path d="M4,20 Q0,20 0,16 Q0,12 4,12 Q5,7 12,7 Q18,7 20,10 Q24,10 24,15 Q24,20 19,20" fill="none" stroke="#9CA3AF" stroke-width="1.5"/>
  </g>
  <text x="598" y="234" font-size="12" fill="#4B5563" text-anchor="middle">Glissez vos fichiers ici ou</text>
  <text x="693" y="234" font-size="12" fill="#1A5BA0" font-weight="600" text-decoration="underline">Parcourir</text>
  <text x="598" y="252" font-size="10" fill="#9CA3AF" text-anchor="middle">PDF ou DOCX · Max 10 Mo · 3 documents max par phase</text>
  <rect x="548" y="262" width="180" height="22" rx="4" fill="#EFF3F8"/>
  <text x="638" y="277" font-size="11" font-weight="600" fill="#1A5BA0" text-anchor="middle">2/3 documents pour cette phase</text>

  <!-- Document table (corporate: structured, tight spacing) -->
  <rect x="248" y="308" width="700" height="182" rx="6" fill="#FFFFFF" filter="url(#corpShadow)"/>

  <!-- Table header -->
  <rect x="248" y="308" width="700" height="36" rx="6" fill="#F7F8FA"/>
  <rect x="248" y="338" width="700" height="6" fill="#F7F8FA"/>
  <line x1="248" y1="344" x2="948" y2="344" stroke="#E2E5EA" stroke-width="1"/>
  <text x="280" y="331" font-size="10" font-weight="700" fill="#6B7280" letter-spacing="0.8">DOCUMENT</text>
  <text x="540" y="331" font-size="10" font-weight="700" fill="#6B7280" letter-spacing="0.8">TYPE</text>
  <text x="616" y="331" font-size="10" font-weight="700" fill="#6B7280" letter-spacing="0.8">TAILLE</text>
  <text x="700" y="331" font-size="10" font-weight="700" fill="#6B7280" letter-spacing="0.8">AJOUTÉ LE</text>
  <text x="812" y="331" font-size="10" font-weight="700" fill="#6B7280" letter-spacing="0.8">ORDRE</text>
  <text x="876" y="331" font-size="10" font-weight="700" fill="#6B7280" letter-spacing="0.8">ACTIONS</text>

  <!-- Row 1 -->
  <g transform="translate(258,352)">
    <!-- Drag handle -->
    <line x1="4" y1="10" x2="14" y2="10" stroke="#C8D0DB" stroke-width="1.5" stroke-linecap="round"/>
    <line x1="4" y1="14" x2="14" y2="14" stroke="#C8D0DB" stroke-width="1.5" stroke-linecap="round"/>
    <line x1="4" y1="18" x2="14" y2="18" stroke="#C8D0DB" stroke-width="1.5" stroke-linecap="round"/>
    <text x="22" y="18" font-size="12" fill="#111827">Guide de définition de projet.pdf</text>
    <!-- PDF badge -->
    <rect x="280" y="4" width="36" height="20" rx="4" fill="#FEE2E2"/>
    <text x="298" y="18" font-size="9" font-weight="700" fill="#DC2626" text-anchor="middle">PDF</text>
    <text x="358" y="18" font-size="11" fill="#6B7280">245 Ko</text>
    <text x="442" y="18" font-size="11" fill="#6B7280">20/03/2026</text>
    <!-- Order -->
    <rect x="554" y="4" width="24" height="20" rx="4" fill="#EFF3F8"/>
    <text x="566" y="18" font-size="11" font-weight="700" fill="#1A5BA0" text-anchor="middle">1</text>
    <!-- Edit button -->
    <rect x="616" y="2" width="28" height="22" rx="4" fill="#F7F8FA" stroke="#E2E5EA" stroke-width="1"/>
    <path d="M624,8 L624,20 M622,8 L628,8" fill="none" stroke="#6B7280" stroke-width="1.2" stroke-linecap="round" transform="rotate(-45,626,14) translate(2,-2)"/>
    <!-- Delete button -->
    <rect x="650" y="2" width="28" height="22" rx="4" fill="#FEF2F2" stroke="#FECACA" stroke-width="1"/>
    <path d="M660,8 L660,18 M657,8 L663,8 M658,8 L658,6 L662,6 L662,8 M656,8 L664,8" fill="none" stroke="#DC2626" stroke-width="1" stroke-linecap="round"/>
  </g>
  <line x1="258" y1="382" x2="938" y2="382" stroke="#F2F4F7" stroke-width="1"/>

  <!-- Row 2 -->
  <g transform="translate(258,390)">
    <line x1="4" y1="10" x2="14" y2="10" stroke="#C8D0DB" stroke-width="1.5" stroke-linecap="round"/>
    <line x1="4" y1="14" x2="14" y2="14" stroke="#C8D0DB" stroke-width="1.5" stroke-linecap="round"/>
    <line x1="4" y1="18" x2="14" y2="18" stroke="#C8D0DB" stroke-width="1.5" stroke-linecap="round"/>
    <text x="22" y="18" font-size="12" fill="#111827">Fiche d'auto-évaluation.docx</text>
    <!-- DOCX badge -->
    <rect x="276" y="4" width="44" height="20" rx="4" fill="#DBEAFE"/>
    <text x="298" y="18" font-size="9" font-weight="700" fill="#2563EB" text-anchor="middle">DOCX</text>
    <text x="358" y="18" font-size="11" fill="#6B7280">128 Ko</text>
    <text x="442" y="18" font-size="11" fill="#6B7280">20/03/2026</text>
    <rect x="554" y="4" width="24" height="20" rx="4" fill="#EFF3F8"/>
    <text x="566" y="18" font-size="11" font-weight="700" fill="#1A5BA0" text-anchor="middle">2</text>
    <rect x="616" y="2" width="28" height="22" rx="4" fill="#F7F8FA" stroke="#E2E5EA" stroke-width="1"/>
    <path d="M624,8 L624,20 M622,8 L628,8" fill="none" stroke="#6B7280" stroke-width="1.2" stroke-linecap="round" transform="rotate(-45,626,14) translate(2,-2)"/>
    <rect x="650" y="2" width="28" height="22" rx="4" fill="#FEF2F2" stroke="#FECACA" stroke-width="1"/>
    <path d="M660,8 L660,18 M657,8 L663,8 M658,8 L658,6 L662,6 L662,8 M656,8 L664,8" fill="none" stroke="#DC2626" stroke-width="1" stroke-linecap="round"/>
  </g>

  <!-- Phase summary panel -->
  <rect x="972" y="182" width="440" height="308" rx="6" fill="#FFFFFF" filter="url(#corpShadow)"/>
  <rect x="972" y="182" width="440" height="36" rx="6" fill="#F7F8FA"/>
  <rect x="972" y="212" width="440" height="6" fill="#F7F8FA"/>
  <text x="996" y="206" font-size="12" font-weight="700" fill="#111827" letter-spacing="0.3">RÉSUMÉ PAR PHASE</text>
  <line x1="972" y1="218" x2="1412" y2="218" stroke="#E2E5EA" stroke-width="1"/>

  <!-- Phase summary rows -->
  <g transform="translate(988,230)">
    <!-- Phase 1 -->
    <rect x="0" y="0" width="408" height="32" rx="4" fill="#EFF3F8"/>
    <text x="12" y="21" font-size="11" font-weight="600" fill="#1A5BA0">Phase 1</text>
    <rect x="350" y="6" width="46" height="20" rx="4" fill="#1A5BA0"/>
    <text x="373" y="20" font-size="10" font-weight="600" fill="#FFFFFF" text-anchor="middle">2 docs</text>

    <!-- Phase 2 -->
    <rect x="0" y="38" width="408" height="32" rx="4" fill="transparent"/>
    <text x="12" y="59" font-size="11" fill="#4B5563">Phase 2</text>
    <rect x="354" y="44" width="38" height="20" rx="4" fill="#F2F4F7"/>
    <text x="373" y="58" font-size="10" fill="#6B7280" text-anchor="middle">1 doc</text>

    <!-- Phase 3 -->
    <rect x="0" y="76" width="408" height="32" rx="4" fill="transparent"/>
    <text x="12" y="97" font-size="11" fill="#9CA3AF">Phase 3</text>
    <rect x="350" y="82" width="46" height="20" rx="4" fill="#F2F4F7"/>
    <text x="373" y="96" font-size="10" fill="#9CA3AF" text-anchor="middle">0 docs</text>

    <!-- Phase 4 -->
    <rect x="0" y="114" width="408" height="32" rx="4" fill="transparent"/>
    <text x="12" y="135" font-size="11" fill="#9CA3AF">Phase 4</text>
    <rect x="350" y="120" width="46" height="20" rx="4" fill="#F2F4F7"/>
    <text x="373" y="134" font-size="10" fill="#9CA3AF" text-anchor="middle">0 docs</text>

    <!-- Phase 5 -->
    <rect x="0" y="152" width="408" height="32" rx="4" fill="transparent"/>
    <text x="12" y="173" font-size="11" fill="#9CA3AF">Phase 5</text>
    <rect x="350" y="158" width="46" height="20" rx="4" fill="#F2F4F7"/>
    <text x="373" y="172" font-size="10" fill="#9CA3AF" text-anchor="middle">0 docs</text>

    <!-- Phase 6 -->
    <rect x="0" y="190" width="408" height="32" rx="4" fill="transparent"/>
    <text x="12" y="211" font-size="11" fill="#9CA3AF">Phase 6</text>
    <rect x="350" y="196" width="46" height="20" rx="4" fill="#F2F4F7"/>
    <text x="373" y="210" font-size="10" fill="#9CA3AF" text-anchor="middle">0 docs</text>
  </g>

  <!-- Total -->
  <line x1="988" y1="462" x2="1396" y2="462" stroke="#E2E5EA" stroke-width="1"/>
  <text x="1000" y="482" font-size="12" font-weight="700" fill="#111827">Total</text>
  <text x="1396" y="482" font-size="12" font-weight="700" fill="#1A5BA0" text-anchor="end">3 documents · 885 Ko</text>

  <!-- Sidebar footer -->
  <line x1="16" y1="862" x2="204" y2="862" stroke="#1A4F80" stroke-width="1"/>
  <text x="110" y="882" font-size="9" fill="#5A8BB8" text-anchor="middle" letter-spacing="0.5">V3.0 · UNANIMA PLATFORM</text>
</svg>
