<!-- MAQ-07 | Dashboard Admin | Link's Accompagnement | v3.0 | corporate | 2026-03-26 -->
<svg xmlns="http://www.w3.org/2000/svg" viewBox="0 0 1440 900" font-family="Inter, system-ui, sans-serif">
  <defs>
    <filter id="corpShadow" x="-1%" y="-1%" width="102%" height="104%">
      <feDropShadow dx="0" dy="1" stdDeviation="2" flood-color="#000" flood-opacity="0.05"/>
    </filter>
    <clipPath id="clip-main"><rect x="220" y="0" width="1220" height="900"/></clipPath>
  </defs>

  <!-- Background -->
  <rect width="1440" height="900" fill="#F2F4F7"/>

  <!-- ==================== SIDEBAR ==================== -->
  <rect x="0" y="0" width="220" height="900" fill="#FFFFFF"/>
  <rect x="0" y="0" width="3" height="900" fill="#1A5BA0"/>
  <line x1="220" y1="0" x2="220" y2="900" stroke="#DCE1EB" stroke-width="1"/>

  <!-- Logo -->
  <text x="44" y="36" font-size="13" font-weight="700" fill="#1A2B3C">Link's</text>
  <text x="44" y="50" font-size="10" fill="#6B7B8D" letter-spacing="0.5">ACCOMPAGNEMENT</text>
  <polygon points="22,24 36,36 22,48" fill="#E5622E"/>

  <!-- Divider -->
  <line x1="16" y1="64" x2="204" y2="64" stroke="#E5E9F0" stroke-width="1"/>

  <!-- Nav: Dashboard (active) -->
  <rect x="8" y="76" width="204" height="38" rx="4" fill="#F0F4FA"/>
  <rect x="8" y="76" width="3" height="38" fill="#1A5BA0"/>
  <rect x="26" y="87" width="16" height="16" rx="3" fill="none" stroke="#1A5BA0" stroke-width="1.5"/>
  <rect x="29" y="90" width="4" height="4" rx="1" fill="#1A5BA0"/>
  <rect x="35" y="90" width="4" height="4" rx="1" fill="#1A5BA0"/>
  <rect x="29" y="96" width="4" height="4" rx="1" fill="#1A5BA0"/>
  <rect x="35" y="96" width="4" height="4" rx="1" fill="#1A5BA0"/>
  <text x="52" y="100" font-size="12" font-weight="600" fill="#1A5BA0">Dashboard</text>

  <!-- Nav: Utilisateurs -->
  <g opacity="0.55">
    <circle cx="34" cy="133" r="7" fill="none" stroke="#4A5568" stroke-width="1.5"/>
    <circle cx="34" cy="130" r="2.8" fill="none" stroke="#4A5568" stroke-width="1.2"/>
    <path d="M27,141 Q34,137 41,141" fill="none" stroke="#4A5568" stroke-width="1.2"/>
    <text x="52" y="137" font-size="12" fill="#4A5568">Utilisateurs</text>
  </g>

  <!-- Nav: Documents -->
  <g opacity="0.55">
    <rect x="27" y="155" width="13" height="17" rx="2" fill="none" stroke="#4A5568" stroke-width="1.5"/>
    <line x1="30" y1="162" x2="37" y2="162" stroke="#4A5568" stroke-width="1.2"/>
    <line x1="30" y1="166" x2="37" y2="166" stroke="#4A5568" stroke-width="1.2"/>
    <text x="52" y="168" font-size="12" fill="#4A5568">Documents</text>
  </g>

  <!-- Sidebar footer -->
  <text x="110" y="880" font-size="9" fill="#A0A8B4" text-anchor="middle" letter-spacing="0.5">v1.0.0 — 2026</text>

  <!-- ==================== HEADER ==================== -->
  <rect x="220" y="0" width="1220" height="60" fill="#FFFFFF"/>
  <line x1="220" y1="60" x2="1440" y2="60" stroke="#DCE1EB" stroke-width="1"/>

  <!-- Breadcrumb -->
  <text x="248" y="26" font-size="10" fill="#8899AA" letter-spacing="0.5">ADMINISTRATION</text>
  <text x="248" y="44" font-size="15" font-weight="700" fill="#1A2B3C">Dashboard</text>

  <!-- Right header -->
  <!-- Bell -->
  <g transform="translate(1204,18)">
    <path d="M0,16 Q0,6 8,4 L8,2 Q8,0 10,0 Q12,0 12,2 L12,4 Q20,6 20,16 L20,18 L0,18Z" fill="none" stroke="#6B7B8D" stroke-width="1.4"/>
    <circle cx="16" cy="5" r="6.5" fill="#DC2626"/>
    <text x="16" y="8" font-size="8" font-weight="700" fill="#FFFFFF" text-anchor="middle">2</text>
  </g>

  <!-- Déconnexion -->
  <rect x="1246" y="16" width="88" height="28" rx="4" fill="#F2F4F7" stroke="#DCE1EB" stroke-width="1"/>
  <text x="1290" y="34" font-size="10" fill="#6B7B8D" text-anchor="middle">Déconnexion</text>

  <!-- Avatar -->
  <circle cx="1362" cy="30" r="15" fill="#1A5BA0"/>
  <text x="1362" y="35" font-size="12" font-weight="700" fill="#FFFFFF" text-anchor="middle">A</text>

  <!-- User info -->
  <text x="1385" y="26" font-size="11" font-weight="600" fill="#1A2B3C">Administrateur</text>
  <text x="1385" y="40" font-size="9" fill="#8899AA" letter-spacing="0.3">super_admin</text>

  <!-- ==================== MAIN CONTENT ==================== -->
  <g clip-path="url(#clip-main)">

  <!-- Title -->
  <text x="248" y="94" font-size="18" font-weight="700" fill="#1A2B3C">Vue d'ensemble — Link's Accompagnement</text>
  <text x="248" y="112" font-size="11" fill="#8899AA">Données au 23 mars 2026 · Actualisation automatique toutes les 5 min</text>

  <!-- ==================== KPI CARDS (compact) ==================== -->
  <!-- Card 1 -->
  <rect x="248" y="126" width="272" height="96" rx="5" fill="#FFFFFF" stroke="#DCE1EB" stroke-width="1" filter="url(#corpShadow)"/>
  <circle cx="276" cy="156" r="18" fill="#EBF3FC"/>
  <circle cx="276" cy="152" r="5" fill="none" stroke="#1A5BA0" stroke-width="1.6"/>
  <path d="M268,164 Q276,160 284,164" fill="none" stroke="#1A5BA0" stroke-width="1.6"/>
  <circle cx="282" cy="154" r="2.8" fill="none" stroke="#1A5BA0" stroke-width="1.2"/>
  <text x="306" y="160" font-size="26" font-weight="800" fill="#1A2B3C">12</text>
  <text x="306" y="178" font-size="11" fill="#6B7B8D">Bénéficiaires actifs</text>
  <rect x="306" y="188" width="82" height="20" rx="4" fill="#EBF3FC"/>
  <text x="347" y="202" font-size="10" font-weight="600" fill="#1A5BA0" text-anchor="middle">↑ +2 ce mois</text>

  <!-- Card 2 -->
  <rect x="536" y="126" width="272" height="96" rx="5" fill="#FFFFFF" stroke="#DCE1EB" stroke-width="1" filter="url(#corpShadow)"/>
  <circle cx="564" cy="156" r="18" fill="#FFF3EB"/>
  <rect x="555" y="148" width="18" height="16" rx="2" fill="none" stroke="#E5622E" stroke-width="1.6"/>
  <polyline points="558,160 564,154 569,158 573,150" fill="none" stroke="#E5622E" stroke-width="1.6"/>
  <text x="594" y="160" font-size="26" font-weight="800" fill="#1A2B3C">47%</text>
  <text x="594" y="178" font-size="11" fill="#6B7B8D">Taux d'avancement moyen</text>
  <rect x="594" y="190" width="160" height="5" rx="2.5" fill="#E5E9F0"/>
  <rect x="594" y="190" width="75" height="5" rx="2.5" fill="#E5622E"/>

  <!-- Card 3 -->
  <rect x="824" y="126" width="272" height="96" rx="5" fill="#FFFFFF" stroke="#DCE1EB" stroke-width="1" filter="url(#corpShadow)"/>
  <circle cx="852" cy="156" r="18" fill="#ECFDF5"/>
  <path d="M843,156 L850,163 L863,149" fill="none" stroke="#16A34A" stroke-width="2.4" stroke-linecap="round" stroke-linejoin="round"/>
  <text x="882" y="160" font-size="26" font-weight="800" fill="#1A2B3C">3</text>
  <text x="882" y="178" font-size="11" fill="#6B7B8D">Bilans terminés</text>
  <rect x="882" y="188" width="120" height="20" rx="4" fill="#ECFDF5"/>
  <text x="942" y="202" font-size="10" font-weight="600" fill="#16A34A" text-anchor="middle">sur 12 actifs · 25%</text>

  <!-- Card 4 -->
  <rect x="1112" y="126" width="272" height="96" rx="5" fill="#FFFFFF" stroke="#DCE1EB" stroke-width="1" filter="url(#corpShadow)"/>
  <circle cx="1140" cy="156" r="18" fill="#EBF3FC"/>
  <polygon points="1140,142 1143,151 1152,151 1145,157 1147,166 1140,161 1133,166 1135,157 1128,151 1137,151" fill="#1A5BA0"/>
  <text x="1170" y="160" font-size="26" font-weight="800" fill="#1A2B3C">2</text>
  <text x="1170" y="178" font-size="11" fill="#6B7B8D">Consultantes actives</text>
  <rect x="1170" y="188" width="100" height="20" rx="4" fill="#EBF3FC"/>
  <text x="1220" y="202" font-size="10" font-weight="600" fill="#1A5BA0" text-anchor="middle">Charge normale</text>

  <!-- ==================== SECTION TITLE ==================== -->
  <text x="248" y="258" font-size="15" font-weight="700" fill="#1A2B3C">Activité bénéficiaires</text>
  <text x="248" y="274" font-size="11" fill="#8899AA">Suivi en temps réel · 12 bénéficiaires actifs</text>

  <!-- ==================== ACTION BAR ==================== -->
  <rect x="248" y="286" width="260" height="34" rx="5" fill="#FFFFFF" stroke="#DCE1EB" stroke-width="1"/>
  <circle cx="266" cy="303" r="7" fill="none" stroke="#8899AA" stroke-width="1.4"/>
  <line x1="271" y1="308" x2="276" y2="313" stroke="#8899AA" stroke-width="1.4"/>
  <text x="284" y="307" font-size="11" fill="#AABBCC">Rechercher…</text>

  <rect x="1282" y="286" width="102" height="34" rx="5" fill="#1A5BA0"/>
  <path d="M1302,299 L1302,309 M1297,304 L1302,309 L1307,304" fill="none" stroke="#FFFFFF" stroke-width="1.4" stroke-linecap="round"/>
  <text x="1316" y="307" font-size="11" font-weight="600" fill="#FFFFFF">Exporter CSV</text>

  <!-- ==================== DATA TABLE (dense) ==================== -->
  <rect x="248" y="330" width="1136" height="344" rx="5" fill="#FFFFFF" stroke="#DCE1EB" stroke-width="1"/>

  <!-- Table header -->
  <rect x="248" y="330" width="1136" height="36" rx="5" fill="#F2F4F7"/>
  <rect x="248" y="356" width="1136" height="10" fill="#F2F4F7"/>
  <line x1="248" y1="366" x2="1384" y2="366" stroke="#DCE1EB" stroke-width="1"/>
  <text x="268" y="354" font-size="9" font-weight="700" fill="#6B7B8D" letter-spacing="0.8">BÉNÉFICIAIRE</text>
  <text x="462" y="354" font-size="9" font-weight="700" fill="#6B7B8D" letter-spacing="0.8">CONSULTANTE</text>
  <text x="656" y="354" font-size="9" font-weight="700" fill="#6B7B8D" letter-spacing="0.8">PROGRESSION</text>
  <text x="856" y="354" font-size="9" font-weight="700" fill="#6B7B8D" letter-spacing="0.8">DERNIÈRE CONNEXION</text>
  <text x="1076" y="354" font-size="9" font-weight="700" fill="#6B7B8D" letter-spacing="0.8">STATUT</text>
  <text x="1166" y="354" font-size="9" font-weight="700" fill="#6B7B8D" letter-spacing="0.8">ACTION</text>

  <!-- Vertical grid lines -->
  <line x1="450" y1="330" x2="450" y2="620" stroke="#F0F2F5" stroke-width="1"/>
  <line x1="644" y1="330" x2="644" y2="620" stroke="#F0F2F5" stroke-width="1"/>
  <line x1="844" y1="330" x2="844" y2="620" stroke="#F0F2F5" stroke-width="1"/>
  <line x1="1064" y1="330" x2="1064" y2="620" stroke="#F0F2F5" stroke-width="1"/>
  <line x1="1154" y1="330" x2="1154" y2="620" stroke="#F0F2F5" stroke-width="1"/>

  <!-- Row 1: Sophie Martin -->
  <circle cx="282" cy="389" r="14" fill="#1A5BA0"/>
  <text x="282" y="393" font-size="9" font-weight="700" fill="#FFFFFF" text-anchor="middle">SM</text>
  <text x="306" y="384" font-size="12" font-weight="600" fill="#1A2B3C">Sophie Martin</text>
  <text x="306" y="398" font-size="9" fill="#8899AA">sophie.martin@email.fr</text>
  <text x="462" y="384" font-size="11" fill="#1A2B3C">Claire Dupont</text>
  <text x="462" y="398" font-size="9" fill="#8899AA">Consultante senior</text>
  <text x="656" y="384" font-size="11" font-weight="700" fill="#1A2B3C">72%</text>
  <rect x="684" y="379" width="110" height="5" rx="2.5" fill="#E5E9F0"/>
  <rect x="684" y="379" width="79" height="5" rx="2.5" fill="#16A34A"/>
  <text x="856" y="384" font-size="10" fill="#1A2B3C">Aujourd'hui, 10:24</text>
  <text x="856" y="398" font-size="9" fill="#8899AA">il y a 2 heures</text>
  <rect x="1076" y="378" width="48" height="20" rx="4" fill="#ECFDF5" stroke="#BBF7D0" stroke-width="1"/>
  <text x="1100" y="392" font-size="9" font-weight="700" fill="#16A34A" text-anchor="middle">Actif</text>
  <text x="1166" y="392" font-size="10" font-weight="600" fill="#1A5BA0">Voir le dossier →</text>
  <line x1="268" y1="412" x2="1368" y2="412" stroke="#E5E9F0" stroke-width="1"/>

  <!-- Row 2: Thomas Leroy -->
  <circle cx="282" cy="435" r="14" fill="#6B8FB5"/>
  <text x="282" y="439" font-size="9" font-weight="700" fill="#FFFFFF" text-anchor="middle">TL</text>
  <text x="306" y="430" font-size="12" font-weight="600" fill="#1A2B3C">Thomas Leroy</text>
  <text x="306" y="444" font-size="9" fill="#8899AA">thomas.leroy@email.fr</text>
  <text x="462" y="430" font-size="11" fill="#1A2B3C">Isabelle Morel</text>
  <text x="462" y="444" font-size="9" fill="#8899AA">Consultante</text>
  <text x="656" y="430" font-size="11" font-weight="700" fill="#1A2B3C">45%</text>
  <rect x="684" y="425" width="110" height="5" rx="2.5" fill="#E5E9F0"/>
  <rect x="684" y="425" width="50" height="5" rx="2.5" fill="#E5622E"/>
  <text x="856" y="430" font-size="10" fill="#1A2B3C">Hier, 15:47</text>
  <text x="856" y="444" font-size="9" fill="#8899AA">il y a 1 jour</text>
  <rect x="1076" y="424" width="48" height="20" rx="4" fill="#ECFDF5" stroke="#BBF7D0" stroke-width="1"/>
  <text x="1100" y="438" font-size="9" font-weight="700" fill="#16A34A" text-anchor="middle">Actif</text>
  <text x="1166" y="438" font-size="10" font-weight="600" fill="#1A5BA0">Voir le dossier →</text>
  <line x1="268" y1="458" x2="1368" y2="458" stroke="#E5E9F0" stroke-width="1"/>

  <!-- Row 3: Marie Blanc (ALERT) -->
  <rect x="248" y="458" width="1136" height="50" fill="#FFF5F3"/>
  <rect x="248" y="458" width="3" height="50" fill="#E5622E"/>
  <circle cx="282" cy="483" r="14" fill="#E07850"/>
  <text x="282" y="487" font-size="9" font-weight="700" fill="#FFFFFF" text-anchor="middle">MB</text>
  <text x="306" y="478" font-size="12" font-weight="600" fill="#1A2B3C">Marie Blanc</text>
  <text x="306" y="492" font-size="9" fill="#8899AA">marie.blanc@email.fr</text>
  <text x="462" y="478" font-size="11" fill="#1A2B3C">Claire Dupont</text>
  <text x="462" y="492" font-size="9" fill="#8899AA">Consultante senior</text>
  <text x="656" y="478" font-size="11" font-weight="700" fill="#1A2B3C">28%</text>
  <rect x="684" y="473" width="110" height="5" rx="2.5" fill="#E5E9F0"/>
  <rect x="684" y="473" width="31" height="5" rx="2.5" fill="#DC2626"/>
  <text x="856" y="478" font-size="10" fill="#DC2626" font-weight="600">05 mars 2026</text>
  <text x="856" y="492" font-size="9" fill="#DC2626">il y a 18 jours ⚠</text>
  <rect x="1076" y="472" width="52" height="20" rx="4" fill="#FEF2F2" stroke="#FECACA" stroke-width="1"/>
  <text x="1102" y="486" font-size="9" font-weight="700" fill="#DC2626" text-anchor="middle">Inactif</text>
  <circle cx="1146" cy="482" r="9" fill="#E5622E"/>
  <text x="1146" y="486" font-size="12" font-weight="800" fill="#FFFFFF" text-anchor="middle">!</text>
  <text x="1166" y="486" font-size="10" font-weight="600" fill="#1A5BA0">Voir le dossier →</text>
  <line x1="268" y1="508" x2="1368" y2="508" stroke="#E5E9F0" stroke-width="1"/>

  <!-- Row 4: Julien Petit -->
  <circle cx="282" cy="531" r="14" fill="#1A5BA0"/>
  <text x="282" y="535" font-size="9" font-weight="700" fill="#FFFFFF" text-anchor="middle">JP</text>
  <text x="306" y="526" font-size="12" font-weight="600" fill="#1A2B3C">Julien Petit</text>
  <text x="306" y="540" font-size="9" fill="#8899AA">julien.petit@email.fr</text>
  <text x="462" y="526" font-size="11" fill="#1A2B3C">Isabelle Morel</text>
  <text x="462" y="540" font-size="9" fill="#8899AA">Consultante</text>
  <text x="656" y="526" font-size="11" font-weight="700" fill="#1A2B3C">61%</text>
  <rect x="684" y="521" width="110" height="5" rx="2.5" fill="#E5E9F0"/>
  <rect x="684" y="521" width="67" height="5" rx="2.5" fill="#1A5BA0"/>
  <text x="856" y="526" font-size="10" fill="#1A2B3C">Aujourd'hui, 08:15</text>
  <text x="856" y="540" font-size="9" fill="#8899AA">il y a 4 heures</text>
  <rect x="1076" y="520" width="48" height="20" rx="4" fill="#ECFDF5" stroke="#BBF7D0" stroke-width="1"/>
  <text x="1100" y="534" font-size="9" font-weight="700" fill="#16A34A" text-anchor="middle">Actif</text>
  <text x="1166" y="534" font-size="10" font-weight="600" fill="#1A5BA0">Voir le dossier →</text>

  <!-- Pagination -->
  <line x1="268" y1="560" x2="1368" y2="560" stroke="#DCE1EB" stroke-width="1"/>
  <text x="268" y="584" font-size="10" fill="#8899AA">Affichage de 1 à 4 sur 12 bénéficiaires</text>
  <rect x="1288" y="570" width="26" height="26" rx="4" fill="#1A5BA0"/>
  <text x="1301" y="587" font-size="10" font-weight="700" fill="#FFFFFF" text-anchor="middle">1</text>
  <rect x="1320" y="570" width="26" height="26" rx="4" fill="#FFFFFF" stroke="#DCE1EB" stroke-width="1"/>
  <text x="1333" y="587" font-size="10" fill="#6B7B8D" text-anchor="middle">2</text>
  <rect x="1352" y="570" width="26" height="26" rx="4" fill="#FFFFFF" stroke="#DCE1EB" stroke-width="1"/>
  <text x="1365" y="587" font-size="10" fill="#6B7B8D" text-anchor="middle">3</text>

  </g>

  <!-- ==================== STATUS BAR ==================== -->
  <rect x="220" y="872" width="1220" height="28" fill="#FFFFFF"/>
  <line x1="220" y1="872" x2="1440" y2="872" stroke="#DCE1EB" stroke-width="1"/>
  <circle cx="238" cy="886" r="3.5" fill="#16A34A"/>
  <text x="248" y="890" font-size="9" fill="#6B7B8D" letter-spacing="0.3">Supabase connecté</text>
  <line x1="352" y1="878" x2="352" y2="894" stroke="#DCE1EB" stroke-width="1"/>
  <text x="364" y="890" font-size="9" fill="#8899AA">Dernier refresh : 23 mars 2026, 10:24:07</text>
  <line x1="570" y1="878" x2="570" y2="894" stroke="#DCE1EB" stroke-width="1"/>
  <circle cx="582" cy="886" r="3.5" fill="#E5622E"/>
  <text x="592" y="890" font-size="9" fill="#E5622E">1 alerte active (inactivité &gt; 14j)</text>
  <text x="1420" y="890" font-size="9" fill="#8899AA" text-anchor="end">Link's Accompagnement © 2026 — Unanima Platform v1.0</text>

</svg>
