<!-- MAQ-03 | Saisie de Phase | Link's Accompagnement | v3.0 | corporate | 2026-03-26 -->
<svg xmlns="http://www.w3.org/2000/svg" viewBox="0 0 1440 900" width="1440" height="900" font-family="Inter, system-ui, sans-serif">
  <defs>
    <filter id="shadow-corp" x="-1%" y="-1%" width="102%" height="106%">
      <feDropShadow dx="0" dy="1" stdDeviation="2" flood-opacity="0.05"/>
    </filter>
  </defs>

  <!-- Background -->
  <rect width="1440" height="900" fill="#F2F4F7"/>

  <!-- ==================== SIDEBAR (220px) — White with dark border ==================== -->
  <rect x="0" y="0" width="220" height="900" fill="white"/>
  <line x1="220" y1="0" x2="220" y2="900" stroke="#D0D5DD" stroke-width="1.5"/>

  <!-- Logo area -->
  <rect x="0" y="0" width="220" height="64" fill="white"/>
  <line x1="0" y1="64" x2="220" y2="64" stroke="#E8EAEE" stroke-width="1"/>
  <polygon points="20,18 30,14 30,40 20,36" fill="#E5622E"/>
  <text x="38" y="29" font-size="15" font-weight="700" fill="#1A2A3A">Link's</text>
  <text x="38" y="44" font-size="11" font-weight="400" fill="#6B7A8D">Accompagnement</text>

  <!-- Nav items -->
  <!-- Dashboard -->
  <g>
    <rect x="8" y="78" width="204" height="38" rx="4" fill="transparent"/>
    <rect x="22" y="89" width="14" height="14" rx="2" fill="none" stroke="#8892A5" stroke-width="1.3"/>
    <rect x="25" y="92" width="3" height="3" fill="#8892A5"/>
    <rect x="30" y="92" width="3" height="3" fill="#8892A5"/>
    <rect x="25" y="97" width="3" height="3" fill="#8892A5"/>
    <rect x="30" y="97" width="3" height="3" fill="#8892A5"/>
    <text x="44" y="101" font-size="13" fill="#6B7A8D">Dashboard</text>
  </g>

  <!-- Mon bilan (active) -->
  <g>
    <rect x="8" y="120" width="204" height="38" rx="4" fill="#EFF4FA"/>
    <rect x="8" y="120" width="3" height="38" fill="#1A5BA0"/>
    <circle cx="30" cy="139" r="7" fill="none" stroke="#1A5BA0" stroke-width="1.5"/>
    <path d="M27,139 L29.5,141.5 L34,136" fill="none" stroke="#1A5BA0" stroke-width="1.3" stroke-linecap="round"/>
    <text x="44" y="144" font-size="13" font-weight="600" fill="#1A5BA0">Mon bilan</text>
  </g>

  <!-- Documents -->
  <g>
    <rect x="8" y="162" width="204" height="38" rx="4" fill="transparent"/>
    <rect x="24" y="173" width="12" height="15" rx="2" fill="none" stroke="#8892A5" stroke-width="1.3"/>
    <text x="44" y="186" font-size="13" fill="#6B7A8D">Documents</text>
  </g>

  <!-- Profil -->
  <g>
    <rect x="8" y="204" width="204" height="38" rx="4" fill="transparent"/>
    <circle cx="30" cy="223" r="7" fill="none" stroke="#8892A5" stroke-width="1.3"/>
    <text x="44" y="228" font-size="13" fill="#6B7A8D">Profil</text>
  </g>

  <!-- Sidebar footer -->
  <line x1="12" y1="844" x2="208" y2="844" stroke="#E8EAEE" stroke-width="1"/>
  <circle cx="28" cy="868" r="13" fill="#EFF4FA"/>
  <text x="28" y="873" font-size="11" font-weight="700" fill="#1A5BA0" text-anchor="middle">MR</text>
  <text x="48" y="864" font-size="12" font-weight="500" fill="#1A2A3A">Marie Renaud</text>
  <text x="48" y="879" font-size="10" fill="#8892A5">Bénéficiaire</text>

  <!-- ==================== HEADER ==================== -->
  <rect x="221" y="0" width="1219" height="50" fill="white"/>
  <line x1="221" y1="50" x2="1440" y2="50" stroke="#D0D5DD" stroke-width="1"/>

  <!-- Breadcrumb -->
  <text x="244" y="31" font-size="12" fill="#8892A5" font-weight="500">Mon bilan</text>
  <text x="310" y="31" font-size="12" fill="#8892A5">/</text>
  <text x="322" y="31" font-size="12" font-weight="600" fill="#1A5BA0">Phase 2</text>

  <!-- User info right -->
  <text x="1284" y="28" font-size="11" fill="#8892A5" text-anchor="end">Marie Renaud</text>
  <line x1="1292" y1="18" x2="1292" y2="36" stroke="#D0D5DD" stroke-width="1"/>
  <text x="1302" y="28" font-size="11" fill="#C0392B" font-weight="500">Déconnexion</text>

  <!-- ==================== PHASE SELECTOR BAR ==================== -->
  <rect x="221" y="50" width="1219" height="52" fill="white"/>
  <line x1="221" y1="102" x2="1440" y2="102" stroke="#D0D5DD" stroke-width="1"/>

  <!-- Phase 1 - Completed -->
  <rect x="244" y="60" width="148" height="32" rx="4" fill="#E8F5E9" stroke="#A5D6A7" stroke-width="1"/>
  <circle cx="260" cy="76" r="8" fill="#28A745"/>
  <path d="M257,76 L259.5,78.5 L264,73" fill="none" stroke="white" stroke-width="1.5" stroke-linecap="round"/>
  <text x="274" y="80" font-size="11" fill="#2E7D32" font-weight="500">Définir mon projet</text>

  <!-- Phase 2 - Active -->
  <rect x="400" y="60" width="178" height="32" rx="4" fill="#1A5BA0"/>
  <circle cx="416" cy="76" r="8" fill="white"/>
  <text x="416" y="80" font-size="10" font-weight="700" fill="#1A5BA0" text-anchor="middle">2</text>
  <text x="430" y="80" font-size="11" fill="white" font-weight="600">Explorer mes compétences</text>

  <!-- Phase 3 -->
  <g opacity="0.5">
    <rect x="586" y="60" width="148" height="32" rx="4" fill="#E8EAEE" stroke="#D0D5DD" stroke-width="1"/>
    <circle cx="602" cy="76" r="8" fill="#BCC3D0"/>
    <text x="602" y="80" font-size="10" font-weight="600" fill="white" text-anchor="middle">3</text>
    <text x="616" y="80" font-size="11" fill="#8892A5">Construire mon plan</text>
  </g>

  <!-- Phase 4 -->
  <g opacity="0.5">
    <rect x="742" y="60" width="128" height="32" rx="4" fill="#E8EAEE" stroke="#D0D5DD" stroke-width="1"/>
    <circle cx="758" cy="76" r="8" fill="#BCC3D0"/>
    <text x="758" y="80" font-size="10" font-weight="600" fill="white" text-anchor="middle">4</text>
    <text x="772" y="80" font-size="11" fill="#8892A5">Valider le projet</text>
  </g>

  <!-- Phase 5 -->
  <g opacity="0.5">
    <rect x="878" y="60" width="124" height="32" rx="4" fill="#E8EAEE" stroke="#D0D5DD" stroke-width="1"/>
    <circle cx="894" cy="76" r="8" fill="#BCC3D0"/>
    <text x="894" y="80" font-size="10" font-weight="600" fill="white" text-anchor="middle">5</text>
    <text x="908" y="80" font-size="11" fill="#8892A5">Plan d'action</text>
  </g>

  <!-- Phase 6 -->
  <g opacity="0.5">
    <rect x="1010" y="60" width="104" height="32" rx="4" fill="#E8EAEE" stroke="#D0D5DD" stroke-width="1"/>
    <circle cx="1026" cy="76" r="8" fill="#BCC3D0"/>
    <text x="1026" y="80" font-size="10" font-weight="600" fill="white" text-anchor="middle">6</text>
    <text x="1040" y="80" font-size="11" fill="#8892A5">Synthèse</text>
  </g>

  <!-- ==================== MAIN CONTENT ==================== -->

  <!-- Title row -->
  <text x="248" y="132" font-size="18" font-weight="700" fill="#1A2A3A">Phase 2 — Explorer mes compétences</text>

  <!-- Autosave indicator -->
  <circle cx="1044" cy="126" r="4" fill="#28A745"/>
  <text x="1054" y="130" font-size="11" fill="#6B7A8D">Sauvegardé il y a 2 min</text>

  <!-- Description -->
  <text x="248" y="152" font-size="12" fill="#6B7A8D">Identifiez vos compétences professionnelles, centres d'intérêt et axes de développement souhaités.</text>

  <!-- ===== Question 1 ===== -->
  <rect x="240" y="168" width="906" height="172" rx="4" fill="white" stroke="#D0D5DD" stroke-width="1"/>

  <!-- Question header -->
  <rect x="240" y="168" width="906" height="36" rx="4" fill="#F7F8FA"/>
  <rect x="240" y="200" width="906" height="4" fill="#F7F8FA"/>
  <line x1="240" y1="204" x2="1146" y2="204" stroke="#E8EAEE" stroke-width="1"/>

  <rect x="256" y="176" width="22" height="22" rx="3" fill="#1A5BA0"/>
  <text x="267" y="192" font-size="12" font-weight="700" fill="white" text-anchor="middle">1</text>
  <text x="288" y="192" font-size="13" font-weight="600" fill="#1A2A3A">Quelles sont vos principales compétences professionnelles ?</text>

  <!-- Textarea -->
  <rect x="260" y="214" width="866" height="92" rx="4" fill="white" stroke="#1A5BA0" stroke-width="1.5"/>

  <text x="272" y="236" font-size="12.5" fill="#2A3A4A">J'ai développé une solide expérience en gestion de projet au cours de mes 8 années dans</text>
  <text x="272" y="254" font-size="12.5" fill="#2A3A4A">le secteur du conseil. Mes principales compétences incluent :</text>
  <text x="272" y="272" font-size="12.5" fill="#2A3A4A">- La coordination d'équipes pluridisciplinaires (jusqu'à 12 personnes)</text>
  <text x="272" y="290" font-size="12.5" fill="#2A3A4A">- L'analyse de données et la rédaction de rapports stratégiques</text>

  <!-- Count -->
  <text x="1106" y="328" font-size="10" fill="#8892A5" text-anchor="end">312 / 2000</text>

  <!-- ===== Question 2 ===== -->
  <rect x="240" y="350" width="906" height="162" rx="4" fill="white" stroke="#D0D5DD" stroke-width="1"/>

  <rect x="240" y="350" width="906" height="36" rx="4" fill="#F7F8FA"/>
  <rect x="240" y="382" width="906" height="4" fill="#F7F8FA"/>
  <line x1="240" y1="386" x2="1146" y2="386" stroke="#E8EAEE" stroke-width="1"/>

  <rect x="256" y="358" width="22" height="22" rx="3" fill="#1A5BA0"/>
  <text x="267" y="374" font-size="12" font-weight="700" fill="white" text-anchor="middle">2</text>
  <text x="288" y="374" font-size="13" font-weight="600" fill="#1A2A3A">Quels sont vos centres d'intérêt et vos passions ?</text>

  <rect x="260" y="396" width="866" height="84" rx="4" fill="white" stroke="#D0D5DD" stroke-width="1"/>
  <text x="272" y="418" font-size="12.5" fill="#A0AAB8">Décrivez vos centres d'intérêt, vos loisirs et ce qui vous passionne...</text>

  <text x="1106" y="500" font-size="10" fill="#8892A5" text-anchor="end">0 / 2000</text>

  <!-- ===== Question 3 ===== -->
  <rect x="240" y="522" width="906" height="162" rx="4" fill="white" stroke="#D0D5DD" stroke-width="1"/>

  <rect x="240" y="522" width="906" height="36" rx="4" fill="#F7F8FA"/>
  <rect x="240" y="554" width="906" height="4" fill="#F7F8FA"/>
  <line x1="240" y1="558" x2="1146" y2="558" stroke="#E8EAEE" stroke-width="1"/>

  <rect x="256" y="530" width="22" height="22" rx="3" fill="#1A5BA0"/>
  <text x="267" y="546" font-size="12" font-weight="700" fill="white" text-anchor="middle">3</text>
  <text x="288" y="546" font-size="13" font-weight="600" fill="#1A2A3A">Quelles compétences aimeriez-vous développer ?</text>

  <rect x="260" y="568" width="866" height="84" rx="4" fill="white" stroke="#D0D5DD" stroke-width="1"/>
  <text x="272" y="590" font-size="12.5" fill="#A0AAB8">Indiquez les compétences que vous souhaitez acquérir ou renforcer...</text>

  <text x="1106" y="672" font-size="10" fill="#8892A5" text-anchor="end">0 / 2000</text>

  <!-- ===== Action Buttons ===== -->
  <!-- Enregistrer -->
  <rect x="856" y="700" width="132" height="38" rx="4" fill="white" stroke="#1A5BA0" stroke-width="1.5"/>
  <text x="922" y="724" font-size="12" font-weight="600" fill="#1A5BA0" text-anchor="middle">Enregistrer</text>

  <!-- Valider la phase -->
  <rect x="998" y="700" width="148" height="38" rx="4" fill="#1A5BA0"/>
  <text x="1072" y="724" font-size="12" font-weight="600" fill="white" text-anchor="middle">Valider la phase</text>

  <!-- Tooltip -->
  <text x="1072" y="752" font-size="10" fill="#8892A5" text-anchor="middle">La validation soumet vos réponses à votre consultante</text>

  <!-- ==================== RIGHT SIDEBAR (280px) ==================== -->
  <rect x="1160" y="102" width="280" height="798" fill="#F7F8FA"/>
  <line x1="1160" y1="102" x2="1160" y2="900" stroke="#D0D5DD" stroke-width="1"/>

  <!-- Prochaine séance -->
  <rect x="1176" y="118" width="248" height="112" rx="4" fill="white" stroke="#D0D5DD" stroke-width="1"/>
  <rect x="1176" y="118" width="248" height="30" rx="4" fill="#F7F8FA"/>
  <rect x="1176" y="144" width="248" height="4" fill="#F7F8FA"/>
  <line x1="1176" y1="148" x2="1424" y2="148" stroke="#E8EAEE" stroke-width="1"/>
  <text x="1192" y="139" font-size="10" font-weight="700" fill="#6B7A8D" letter-spacing="1">PROCHAINE SÉANCE</text>

  <text x="1192" y="172" font-size="13" font-weight="600" fill="#1A2A3A">29/04/2026 à 14h00</text>

  <rect x="1192" y="184" width="130" height="28" rx="4" fill="#EFF4FA" stroke="#1A5BA0" stroke-width="1"/>
  <text x="1208" y="203" font-size="11" font-weight="600" fill="#1A5BA0">Rejoindre la visio</text>

  <!-- Documents -->
  <rect x="1176" y="246" width="248" height="140" rx="4" fill="white" stroke="#D0D5DD" stroke-width="1"/>
  <rect x="1176" y="246" width="248" height="30" rx="4" fill="#F7F8FA"/>
  <rect x="1176" y="272" width="248" height="4" fill="#F7F8FA"/>
  <line x1="1176" y1="276" x2="1424" y2="276" stroke="#E8EAEE" stroke-width="1"/>
  <text x="1192" y="267" font-size="10" font-weight="700" fill="#6B7A8D" letter-spacing="1">DOCUMENTS DE PHASE</text>

  <rect x="1192" y="288" width="18" height="16" rx="2" fill="#EFF4FA"/>
  <text x="1196" y="300" font-size="7" fill="#1A5BA0" font-weight="700">PDF</text>
  <text x="1218" y="300" font-size="12" fill="#1A5BA0">Guide d'exploration.pdf</text>

  <rect x="1192" y="312" width="18" height="16" rx="2" fill="#EFF4FA"/>
  <text x="1196" y="324" font-size="7" fill="#1A5BA0" font-weight="700">PDF</text>
  <text x="1218" y="324" font-size="12" fill="#1A5BA0">Fiche compétences.pdf</text>

  <rect x="1192" y="336" width="18" height="16" rx="2" fill="#EFF4FA"/>
  <text x="1195" y="348" font-size="7" fill="#1A5BA0" font-weight="700">DOC</text>
  <text x="1218" y="348" font-size="12" fill="#1A5BA0">Modèle auto-évaluation.docx</text>

  <!-- Phase progress -->
  <rect x="1176" y="402" width="248" height="72" rx="4" fill="white" stroke="#D0D5DD" stroke-width="1"/>
  <text x="1192" y="426" font-size="10" font-weight="700" fill="#6B7A8D" letter-spacing="1">PROGRESSION</text>
  <text x="1192" y="446" font-size="13" font-weight="600" fill="#1A5BA0">Phase 2 sur 6</text>
  <rect x="1192" y="456" width="216" height="5" rx="2.5" fill="#E8EAEE"/>
  <rect x="1192" y="456" width="72" height="5" rx="2.5" fill="#1A5BA0"/>

</svg>