<!-- MAQ-02 | Dashboard Bénéficiaire | Link's Accompagnement | v3.0 | corporate | 2026-03-26 -->
<svg xmlns="http://www.w3.org/2000/svg" viewBox="0 0 1440 900" width="1440" height="900" font-family="Inter, system-ui, sans-serif">
  <defs>
    <clipPath id="clip-main"><rect x="220" y="0" width="1220" height="900"/></clipPath>
  </defs>

  <!-- Background -->
  <rect width="1440" height="900" fill="#F2F4F7"/>

  <!-- ==================== SIDEBAR ==================== -->
  <rect x="0" y="0" width="220" height="900" fill="white"/>
  <rect x="0" y="0" width="4" height="900" fill="#0A2E52"/>

  <!-- Logo -->
  <text x="22" y="36" font-size="15" font-weight="700" fill="#0A2E52">Link's</text>
  <text x="22" y="50" font-size="11" font-weight="400" fill="#6B7A8D">Accompagnement</text>
  <polygon points="88,26 94,26 92,36 86,36" fill="#E5622E"/>

  <!-- Separator -->
  <line x1="4" y1="66" x2="220" y2="66" stroke="#E0E4EA" stroke-width="1"/>

  <!-- Nav: Dashboard (active) -->
  <rect x="4" y="76" width="216" height="36" fill="#EBF0F7"/>
  <rect x="4" y="76" width="3" height="36" fill="#1A5BA0"/>
  <!-- Grid icon -->
  <rect x="22" y="87" width="6" height="6" rx="1" fill="#1A5BA0"/>
  <rect x="30" y="87" width="6" height="6" rx="1" fill="#1A5BA0"/>
  <rect x="22" y="95" width="6" height="6" rx="1" fill="#1A5BA0"/>
  <rect x="30" y="95" width="6" height="6" rx="1" fill="#1A5BA0"/>
  <text x="46" y="99" font-size="12" font-weight="600" fill="#1A5BA0">Dashboard</text>

  <!-- Mon bilan -->
  <rect x="4" y="116" width="216" height="36" fill="transparent"/>
  <rect x="22" y="127" width="12" height="14" rx="1.5" fill="none" stroke="#6B7A8D" stroke-width="1.2"/>
  <line x1="26" y1="132" x2="32" y2="132" stroke="#6B7A8D" stroke-width="1"/>
  <line x1="26" y1="136" x2="30" y2="136" stroke="#6B7A8D" stroke-width="1"/>
  <text x="46" y="139" font-size="12" font-weight="400" fill="#6B7A8D">Mon bilan</text>

  <!-- Documents -->
  <rect x="4" y="156" width="216" height="36" fill="transparent"/>
  <rect x="22" y="167" width="12" height="14" rx="1.5" fill="none" stroke="#6B7A8D" stroke-width="1.2"/>
  <line x1="26" y1="172" x2="32" y2="172" stroke="#6B7A8D" stroke-width="1"/>
  <line x1="26" y1="176" x2="32" y2="176" stroke="#6B7A8D" stroke-width="1"/>
  <text x="46" y="179" font-size="12" font-weight="400" fill="#6B7A8D">Documents</text>

  <!-- Profil -->
  <rect x="4" y="196" width="216" height="36" fill="transparent"/>
  <circle cx="28" cy="214" r="5" fill="none" stroke="#6B7A8D" stroke-width="1.2"/>
  <path d="M20,226 Q28,220 36,226" fill="none" stroke="#6B7A8D" stroke-width="1.2"/>
  <text x="46" y="219" font-size="12" font-weight="400" fill="#6B7A8D">Profil</text>

  <!-- Footer -->
  <line x1="4" y1="844" x2="220" y2="844" stroke="#E0E4EA" stroke-width="1"/>
  <text x="22" y="864" font-size="11" font-weight="400" fill="#6B7A8D">Mes données</text>
  <text x="22" y="882" font-size="10" fill="#99A5B4">v3.0.0</text>

  <!-- ==================== MAIN CONTENT ==================== -->
  <g clip-path="url(#clip-main)">

  <!-- Header -->
  <rect x="220" y="0" width="1220" height="52" fill="white"/>
  <line x1="220" y1="52" x2="1440" y2="52" stroke="#D0D5DD" stroke-width="1"/>
  <text x="244" y="32" font-size="12" fill="#99A5B4">Bénéficiaire</text>
  <text x="320" y="32" font-size="12" fill="#99A5B4">›</text>
  <text x="330" y="32" font-size="12" font-weight="600" fill="#2A2F36">Dashboard</text>

  <!-- User -->
  <circle cx="1350" cy="26" r="16" fill="#1A5BA0"/>
  <text x="1350" y="31" font-size="11" font-weight="600" fill="white" text-anchor="middle">MD</text>
  <text x="1320" y="22" font-size="12" font-weight="600" fill="#2A2F36" text-anchor="end">Marie Dupont</text>
  <text x="1320" y="36" font-size="11" fill="#99A5B4" text-anchor="end">Bénéficiaire</text>
  <rect x="1382" y="15" width="30" height="22" rx="4" fill="#F2F4F7" stroke="#D0D5DD" stroke-width="1"/>
  <path d="M1391,23 h8 M1397,20 l3,3 -3,3" fill="none" stroke="#6B7A8D" stroke-width="1.5" stroke-linecap="round"/>

  <!-- ==================== WELCOME ==================== -->
  <rect x="244" y="68" width="1176" height="90" rx="4" fill="white" stroke="#D0D5DD" stroke-width="1"/>
  <rect x="244" y="68" width="4" height="90" fill="#1A5BA0"/>
  <text x="268" y="98" font-size="22" font-weight="700" fill="#2A2F36">Bonjour, Marie</text>
  <text x="268" y="118" font-size="13" fill="#6B7A8D">Retrouvez ici le suivi de votre bilan de compétences.</text>
  <rect x="268" y="128" width="170" height="24" rx="4" fill="#1A5BA0"/>
  <text x="296" y="145" font-size="12" font-weight="600" fill="white">Continuer le bilan →</text>

  <!-- ==================== VOS SÉANCES ==================== -->
  <text x="244" y="186" font-size="16" font-weight="700" fill="#2A2F36">Vos séances</text>

  <rect x="244" y="196" width="1176" height="250" rx="4" fill="white" stroke="#D0D5DD" stroke-width="1"/>

  <!-- Table header -->
  <rect x="244" y="196" width="1176" height="32" fill="#F2F4F7"/>
  <line x1="244" y1="228" x2="1420" y2="228" stroke="#D0D5DD" stroke-width="1"/>
  <text x="268" y="218" font-size="11" font-weight="700" fill="#6B7A8D" text-transform="uppercase">SÉANCE</text>
  <text x="720" y="218" font-size="11" font-weight="700" fill="#6B7A8D">DATE</text>
  <text x="850" y="218" font-size="11" font-weight="700" fill="#6B7A8D">HEURE</text>
  <text x="980" y="218" font-size="11" font-weight="700" fill="#6B7A8D">ACTION</text>

  <!-- Row 1 -->
  <line x1="244" y1="262" x2="1420" y2="262" stroke="#E0E4EA" stroke-width="1"/>
  <rect x="268" y="237" width="22" height="22" rx="4" fill="#1A5BA0"/>
  <text x="279" y="253" font-size="11" font-weight="700" fill="white" text-anchor="middle">1</text>
  <text x="298" y="253" font-size="12" font-weight="500" fill="#2A2F36">Séance 1 — Entretien préliminaire</text>
  <text x="720" y="253" font-size="12" fill="#2A2F36">15/04/2026</text>
  <text x="850" y="253" font-size="12" fill="#2A2F36">14h00</text>
  <rect x="980" y="238" width="140" height="26" rx="4" fill="#1A5BA0"/>
  <rect x="992" y="246" width="12" height="8" rx="1.5" fill="none" stroke="white" stroke-width="1"/>
  <polygon points="1006,247 1011,250 1006,253" fill="none" stroke="white" stroke-width="1"/>
  <text x="1017" y="256" font-size="11" font-weight="500" fill="white">Rejoindre la visio</text>

  <!-- Row 2 -->
  <line x1="244" y1="296" x2="1420" y2="296" stroke="#E0E4EA" stroke-width="1"/>
  <rect x="268" y="271" width="22" height="22" rx="4" fill="#1A5BA0"/>
  <text x="279" y="287" font-size="11" font-weight="700" fill="white" text-anchor="middle">2</text>
  <text x="298" y="287" font-size="12" font-weight="500" fill="#2A2F36">Séance 2 — Investigation phase 1</text>
  <text x="720" y="287" font-size="12" fill="#2A2F36">29/04/2026</text>
  <text x="850" y="287" font-size="12" fill="#2A2F36">14h00</text>
  <rect x="980" y="272" width="140" height="26" rx="4" fill="#1A5BA0"/>
  <rect x="992" y="280" width="12" height="8" rx="1.5" fill="none" stroke="white" stroke-width="1"/>
  <polygon points="1006,281 1011,284 1006,287" fill="none" stroke="white" stroke-width="1"/>
  <text x="1017" y="290" font-size="11" font-weight="500" fill="white">Rejoindre la visio</text>

  <!-- Row 3 -->
  <line x1="244" y1="330" x2="1420" y2="330" stroke="#E0E4EA" stroke-width="1"/>
  <rect x="268" y="305" width="22" height="22" rx="4" fill="#E0E4EA"/>
  <text x="279" y="321" font-size="11" font-weight="700" fill="#99A5B4" text-anchor="middle">3</text>
  <text x="298" y="321" font-size="12" font-weight="500" fill="#99A5B4">Séance 3</text>
  <text x="720" y="321" font-size="12" fill="#99A5B4">À planifier</text>
  <text x="850" y="321" font-size="12" fill="#99A5B4">—</text>
  <rect x="980" y="306" width="90" height="26" rx="4" fill="transparent" stroke="#D0D5DD" stroke-width="1"/>
  <text x="1004" y="324" font-size="11" font-weight="500" fill="#99A5B4">Planifier</text>

  <!-- Row 4 -->
  <line x1="244" y1="364" x2="1420" y2="364" stroke="#E0E4EA" stroke-width="1"/>
  <rect x="268" y="339" width="22" height="22" rx="4" fill="#E0E4EA"/>
  <text x="279" y="355" font-size="11" font-weight="700" fill="#99A5B4" text-anchor="middle">4</text>
  <text x="298" y="355" font-size="12" font-weight="500" fill="#99A5B4">Séance 4</text>
  <text x="720" y="355" font-size="12" fill="#99A5B4">À planifier</text>
  <text x="850" y="355" font-size="12" fill="#99A5B4">—</text>
  <rect x="980" y="340" width="90" height="26" rx="4" fill="transparent" stroke="#D0D5DD" stroke-width="1"/>
  <text x="1004" y="358" font-size="11" font-weight="500" fill="#99A5B4">Planifier</text>

  <!-- Row 5 -->
  <line x1="244" y1="398" x2="1420" y2="398" stroke="#E0E4EA" stroke-width="1"/>
  <rect x="268" y="373" width="22" height="22" rx="4" fill="#E0E4EA"/>
  <text x="279" y="389" font-size="11" font-weight="700" fill="#99A5B4" text-anchor="middle">5</text>
  <text x="298" y="389" font-size="12" font-weight="500" fill="#99A5B4">Séance 5</text>
  <text x="720" y="389" font-size="12" fill="#99A5B4">À planifier</text>
  <text x="850" y="389" font-size="12" fill="#99A5B4">—</text>
  <rect x="980" y="374" width="90" height="26" rx="4" fill="transparent" stroke="#D0D5DD" stroke-width="1"/>
  <text x="1004" y="392" font-size="11" font-weight="500" fill="#99A5B4">Planifier</text>

  <!-- Row 6 -->
  <line x1="244" y1="432" x2="1420" y2="432" stroke="#E0E4EA" stroke-width="1"/>
  <rect x="268" y="407" width="22" height="22" rx="4" fill="#E0E4EA"/>
  <text x="279" y="423" font-size="11" font-weight="700" fill="#99A5B4" text-anchor="middle">6</text>
  <text x="298" y="423" font-size="12" font-weight="500" fill="#99A5B4">Séance 6</text>
  <text x="720" y="423" font-size="12" fill="#99A5B4">À planifier</text>
  <text x="850" y="423" font-size="12" fill="#99A5B4">—</text>
  <rect x="980" y="408" width="90" height="26" rx="4" fill="transparent" stroke="#D0D5DD" stroke-width="1"/>
  <text x="1004" y="426" font-size="11" font-weight="500" fill="#99A5B4">Planifier</text>

  <!-- ==================== VOTRE PARCOURS ==================== -->
  <text x="244" y="475" font-size="16" font-weight="700" fill="#2A2F36">Votre parcours</text>
  <text x="244" y="493" font-size="12" fill="#6B7A8D">1 phase validée · 1 en cours · 4 à compléter</text>

  <!-- Progress bar -->
  <rect x="244" y="504" width="1176" height="6" rx="3" fill="#E0E4EA"/>
  <rect x="244" y="504" width="196" height="6" rx="3" fill="#28A745"/>

  <!-- ==================== PHASE CARDS ==================== -->
  <!-- Phase 1 -->
  <rect x="244" y="524" width="380" height="98" rx="5" fill="white" stroke="#28A745" stroke-width="1.5"/>
  <rect x="244" y="524" width="5" height="98" rx="2.5" fill="#28A745"/>
  <rect x="265" y="536" width="24" height="24" rx="4" fill="#D4EDDA"/>
  <text x="277" y="553" font-size="12" font-weight="700" fill="#28A745" text-anchor="middle">1</text>
  <text x="299" y="549" font-size="13" font-weight="600" fill="#2A2F36">Définir mon projet</text>
  <rect x="299" y="556" width="68" height="20" rx="4" fill="#D4EDDA"/>
  <text x="310" y="570" font-size="10" font-weight="600" fill="#28A745">✓ Validé</text>
  <rect x="299" y="584" width="92" height="26" rx="4" fill="#1A5BA0"/>
  <text x="316" y="602" font-size="11" font-weight="600" fill="white">Accéder →</text>

  <!-- Phase 2 -->
  <rect x="642" y="524" width="380" height="98" rx="5" fill="white" stroke="#E5622E" stroke-width="1.5"/>
  <rect x="642" y="524" width="5" height="98" rx="2.5" fill="#E5622E"/>
  <rect x="663" y="536" width="24" height="24" rx="4" fill="#FDEBD0"/>
  <text x="675" y="553" font-size="12" font-weight="700" fill="#E5622E" text-anchor="middle">2</text>
  <text x="697" y="549" font-size="13" font-weight="600" fill="#2A2F36">Explorer mes compétences</text>
  <rect x="697" y="556" width="78" height="20" rx="4" fill="#FDEBD0"/>
  <circle cx="709" cy="566" r="3.5" fill="#E5622E"/>
  <text x="716" y="570" font-size="10" font-weight="600" fill="#E5622E">En cours</text>
  <rect x="697" y="584" width="92" height="26" rx="4" fill="#1A5BA0"/>
  <text x="714" y="602" font-size="11" font-weight="600" fill="white">Accéder →</text>

  <!-- Phase 3 -->
  <rect x="1040" y="524" width="380" height="98" rx="5" fill="white" stroke="#D0D5DD" stroke-width="1"/>
  <rect x="1040" y="524" width="5" height="98" rx="2.5" fill="#D0D5DD"/>
  <rect x="1061" y="536" width="24" height="24" rx="4" fill="#EAECF0"/>
  <text x="1073" y="553" font-size="12" font-weight="700" fill="#99A5B4" text-anchor="middle">3</text>
  <text x="1095" y="549" font-size="13" font-weight="600" fill="#99A5B4">Analyser mon marché</text>
  <rect x="1095" y="556" width="82" height="20" rx="4" fill="#EAECF0"/>
  <text x="1106" y="570" font-size="10" font-weight="600" fill="#99A5B4">À compléter</text>
  <rect x="1095" y="584" width="92" height="26" rx="4" fill="#EAECF0"/>
  <text x="1118" y="602" font-size="11" font-weight="500" fill="#99A5B4">Accéder</text>

  <!-- Phase 4 -->
  <rect x="244" y="636" width="380" height="98" rx="5" fill="white" stroke="#D0D5DD" stroke-width="1"/>
  <rect x="244" y="636" width="5" height="98" rx="2.5" fill="#D0D5DD"/>
  <rect x="265" y="648" width="24" height="24" rx="4" fill="#EAECF0"/>
  <text x="277" y="665" font-size="12" font-weight="700" fill="#99A5B4" text-anchor="middle">4</text>
  <text x="299" y="661" font-size="13" font-weight="600" fill="#99A5B4">Construire mon plan</text>
  <rect x="299" y="668" width="82" height="20" rx="4" fill="#EAECF0"/>
  <text x="310" y="682" font-size="10" font-weight="600" fill="#99A5B4">À compléter</text>
  <rect x="299" y="696" width="92" height="26" rx="4" fill="#EAECF0"/>
  <text x="322" y="714" font-size="11" font-weight="500" fill="#99A5B4">Accéder</text>

  <!-- Phase 5 -->
  <rect x="642" y="636" width="380" height="98" rx="5" fill="white" stroke="#D0D5DD" stroke-width="1"/>
  <rect x="642" y="636" width="5" height="98" rx="2.5" fill="#D0D5DD"/>
  <rect x="663" y="648" width="24" height="24" rx="4" fill="#EAECF0"/>
  <text x="675" y="665" font-size="12" font-weight="700" fill="#99A5B4" text-anchor="middle">5</text>
  <text x="697" y="661" font-size="13" font-weight="600" fill="#99A5B4">Préparer mon entretien</text>
  <rect x="697" y="668" width="82" height="20" rx="4" fill="#EAECF0"/>
  <text x="708" y="682" font-size="10" font-weight="600" fill="#99A5B4">À compléter</text>
  <rect x="697" y="696" width="92" height="26" rx="4" fill="#EAECF0"/>
  <text x="720" y="714" font-size="11" font-weight="500" fill="#99A5B4">Accéder</text>

  <!-- Phase 6 -->
  <rect x="1040" y="636" width="380" height="98" rx="5" fill="white" stroke="#D0D5DD" stroke-width="1"/>
  <rect x="1040" y="636" width="5" height="98" rx="2.5" fill="#D0D5DD"/>
  <rect x="1061" y="648" width="24" height="24" rx="4" fill="#EAECF0"/>
  <text x="1073" y="665" font-size="12" font-weight="700" fill="#99A5B4" text-anchor="middle">6</text>
  <text x="1095" y="661" font-size="13" font-weight="600" fill="#99A5B4">Finaliser mon bilan</text>
  <rect x="1095" y="668" width="82" height="20" rx="4" fill="#EAECF0"/>
  <text x="1106" y="682" font-size="10" font-weight="600" fill="#99A5B4">À compléter</text>
  <rect x="1095" y="696" width="92" height="26" rx="4" fill="#EAECF0"/>
  <text x="1118" y="714" font-size="11" font-weight="500" fill="#99A5B4">Accéder</text>

  <!-- ==================== FOOTER ==================== -->
  <rect x="220" y="860" width="1220" height="40" fill="white"/>
  <line x1="220" y1="860" x2="1440" y2="860" stroke="#D0D5DD" stroke-width="1"/>
  <text x="830" y="885" font-size="11" fill="#99A5B4" text-anchor="middle">Link's Accompagnement — © 2026 Unanima</text>

  </g>
</svg>
