<svg xmlns="http://www.w3.org/2000/svg" viewBox="0 0 1440 900" width="1440" height="900">
  <defs>
    <style>
      .font { font-family: 'Inter', Arial, sans-serif; }
    </style>
    <filter id="corpShadow" x="-1%" y="-1%" width="102%" height="104%">
      <feDropShadow dx="0" dy="1" stdDeviation="2" flood-color="rgba(0,0,0,0.06)"/>
    </filter>
  </defs>

  <!-- Background -->
  <rect width="1440" height="900" fill="#F2F4F7"/>

  <!-- Header bar -->
  <rect width="1440" height="56" fill="#1A5BA0"/>
  <rect x="0" y="56" width="1440" height="2" fill="#E5622E"/>

  <!-- Logo -->
  <text x="40" y="36" class="font" fill="#FFFFFF" font-size="20" font-weight="700">LINK'S</text>
  <text x="115" y="36" class="font" fill="#FFFFFF" font-size="11" font-weight="400" opacity="0.7">ACCOMPAGNEMENT</text>

  <!-- Header nav right -->
  <text x="1020" y="34" class="font" fill="#FFFFFF" font-size="12" opacity="0.7">Accueil</text>
  <text x="1100" y="34" class="font" fill="#FFFFFF" font-size="12" opacity="0.7">Mentions legales</text>
  <text x="1240" y="34" class="font" fill="#FFFFFF" font-size="12" opacity="0.7">Cookies</text>
  <rect x="1320" y="18" width="90" height="30" rx="4" fill="none" stroke="#FFFFFF" stroke-width="1" opacity="0.5"/>
  <text x="1342" y="38" class="font" fill="#FFFFFF" font-size="12" font-weight="500">Connexion</text>

  <!-- Breadcrumb bar -->
  <rect x="0" y="58" width="1440" height="36" fill="#FFFFFF"/>
  <line x1="0" y1="94" x2="1440" y2="94" stroke="#DCE1EB" stroke-width="1"/>
  <text x="40" y="82" class="font" fill="#7A8A9A" font-size="11">Accueil</text>
  <text x="82" y="82" class="font" fill="#7A8A9A" font-size="11">/</text>
  <text x="96" y="82" class="font" fill="#1A5BA0" font-size="11" font-weight="500">Politique de confidentialite</text>

  <!-- Page title section -->
  <rect x="0" y="94" width="1440" height="72" fill="#FFFFFF"/>
  <line x1="0" y1="166" x2="1440" y2="166" stroke="#DCE1EB" stroke-width="1"/>
  <rect x="40" y="108" width="4" height="40" rx="2" fill="#1A5BA0"/>
  <text x="56" y="132" class="font" fill="#1A2B3C" font-size="22" font-weight="700">Politique de confidentialite</text>
  <text x="56" y="148" class="font" fill="#7A8A9A" font-size="11">Document conforme au Reglement General sur la Protection des Donnees (UE) 2016/679 — Mise a jour : 15 mars 2026</text>

  <!-- Left sidebar TOC -->
  <rect x="40" y="182" width="260" height="530" rx="4" fill="#FFFFFF" filter="url(#corpShadow)"/>
  <rect x="40" y="182" width="260" height="36" rx="4" fill="#1A5BA0"/>
  <text x="60" y="206" class="font" fill="#FFFFFF" font-size="13" font-weight="600">TABLE DES MATIERES</text>

  <!-- TOC items -->
  <rect x="40" y="218" width="260" height="32" fill="#E8F0FA"/>
  <rect x="40" y="218" width="3" height="32" fill="#E5622E"/>
  <text x="60" y="240" class="font" fill="#1A5BA0" font-size="12" font-weight="600">Art. 1 — Responsable du traitement</text>

  <text x="60" y="268" class="font" fill="#4A5A6A" font-size="12">Art. 2 — Finalites du traitement</text>
  <line x1="55" y1="280" x2="285" y2="280" stroke="#E8ECF0" stroke-width="0.5"/>
  <text x="60" y="298" class="font" fill="#4A5A6A" font-size="12">Art. 3 — Bases legales</text>
  <line x1="55" y1="310" x2="285" y2="310" stroke="#E8ECF0" stroke-width="0.5"/>
  <text x="60" y="328" class="font" fill="#4A5A6A" font-size="12">Art. 4 — Donnees collectees</text>
  <line x1="55" y1="340" x2="285" y2="340" stroke="#E8ECF0" stroke-width="0.5"/>
  <text x="60" y="358" class="font" fill="#4A5A6A" font-size="12">Art. 5 — Durees de conservation</text>
  <line x1="55" y1="370" x2="285" y2="370" stroke="#E8ECF0" stroke-width="0.5"/>
  <text x="60" y="388" class="font" fill="#4A5A6A" font-size="12">Art. 6 — Destinataires des donnees</text>
  <line x1="55" y1="400" x2="285" y2="400" stroke="#E8ECF0" stroke-width="0.5"/>
  <text x="60" y="418" class="font" fill="#4A5A6A" font-size="12">Art. 7 — Vos droits</text>
  <line x1="55" y1="430" x2="285" y2="430" stroke="#E8ECF0" stroke-width="0.5"/>
  <text x="60" y="448" class="font" fill="#4A5A6A" font-size="12">Art. 8 — Cookies et traceurs</text>
  <line x1="55" y1="460" x2="285" y2="460" stroke="#E8ECF0" stroke-width="0.5"/>
  <text x="60" y="478" class="font" fill="#4A5A6A" font-size="12">Art. 9 — Securite des donnees</text>
  <line x1="55" y1="490" x2="285" y2="490" stroke="#E8ECF0" stroke-width="0.5"/>
  <text x="60" y="508" class="font" fill="#4A5A6A" font-size="12">Art. 10 — Contact DPO</text>

  <!-- DPO box in sidebar -->
  <rect x="52" y="530" width="236" height="110" rx="4" fill="#F2F4F7"/>
  <rect x="52" y="530" width="236" height="4" rx="2" fill="#E5622E"/>
  <text x="68" y="556" class="font" fill="#1A2B3C" font-size="11" font-weight="700">DELEGUE A LA PROTECTION DES DONNEES</text>
  <text x="68" y="574" class="font" fill="#4A5A6A" font-size="11">M. Jean-Pierre Martin</text>
  <text x="68" y="590" class="font" fill="#4A5A6A" font-size="11">dpo@links-accompagnement.fr</text>
  <text x="68" y="606" class="font" fill="#4A5A6A" font-size="11">Tel. : 01 23 45 67 89</text>
  <rect x="68" y="618" width="200" height="12" rx="2" fill="#1A5BA0" opacity="0.08"/>

  <!-- Main content -->
  <!-- Article 1 -->
  <rect x="320" y="182" width="1080" height="140" rx="4" fill="#FFFFFF" filter="url(#corpShadow)"/>
  <rect x="320" y="182" width="1080" height="3" fill="#1A5BA0"/>
  <text x="340" y="210" class="font" fill="#1A5BA0" font-size="14" font-weight="700">ARTICLE 1 — RESPONSABLE DU TRAITEMENT</text>
  <line x1="340" y1="220" x2="1380" y2="220" stroke="#DCE1EB" stroke-width="1"/>
  <text x="340" y="244" class="font" fill="#4A4A4A" font-size="12">La societe Link's Accompagnement, SAS au capital de 10 000 euros, immatriculee au Registre du Commerce</text>
  <text x="340" y="262" class="font" fill="#4A4A4A" font-size="12">et des Societes de Paris sous le numero 912 345 678, dont le siege social est situe au :</text>
  <text x="340" y="286" class="font" fill="#1A2B3C" font-size="12" font-weight="600">42 rue de la Formation, 75008 Paris, France</text>
  <text x="340" y="308" class="font" fill="#7A8A9A" font-size="11">Representant legal : Mme Sophie Dupont, Presidente | Tel. : 01 23 45 67 80 | contact@links-accompagnement.fr</text>

  <!-- Article 2 -->
  <rect x="320" y="336" width="1080" height="155" rx="4" fill="#FFFFFF" filter="url(#corpShadow)"/>
  <rect x="320" y="336" width="1080" height="3" fill="#E5622E"/>
  <text x="340" y="366" class="font" fill="#1A5BA0" font-size="14" font-weight="700">ARTICLE 2 — FINALITES DU TRAITEMENT</text>
  <line x1="340" y1="376" x2="1380" y2="376" stroke="#DCE1EB" stroke-width="1"/>
  <text x="340" y="398" class="font" fill="#4A4A4A" font-size="12">Les donnees personnelles sont collectees et traitees pour les finalites suivantes :</text>

  <!-- Numbered list -->
  <rect x="356" y="414" width="18" height="18" rx="2" fill="#1A5BA0"/>
  <text x="362" y="428" class="font" fill="#FFFFFF" font-size="10" font-weight="600">a</text>
  <text x="382" y="428" class="font" fill="#4A4A4A" font-size="12">Gestion administrative et suivi des bilans de competences (creation de compte, planification)</text>

  <rect x="356" y="438" width="18" height="18" rx="2" fill="#1A5BA0"/>
  <text x="362" y="452" class="font" fill="#FFFFFF" font-size="10" font-weight="600">b</text>
  <text x="382" y="452" class="font" fill="#4A4A4A" font-size="12">Administration des questionnaires d'auto-evaluation et collecte des reponses des beneficiaires</text>

  <rect x="356" y="462" width="18" height="18" rx="2" fill="#E5622E"/>
  <text x="362" y="476" class="font" fill="#FFFFFF" font-size="10" font-weight="600">c</text>
  <text x="382" y="476" class="font" fill="#4A4A4A" font-size="12">Generation et conservation du document de synthese du bilan de competences</text>

  <!-- Article 3 -->
  <rect x="320" y="505" width="530" height="165" rx="4" fill="#FFFFFF" filter="url(#corpShadow)"/>
  <rect x="320" y="505" width="530" height="3" fill="#1A5BA0"/>
  <text x="340" y="532" class="font" fill="#1A5BA0" font-size="14" font-weight="700">ARTICLE 3 — BASES LEGALES</text>
  <line x1="340" y1="542" x2="830" y2="542" stroke="#DCE1EB" stroke-width="1"/>

  <!-- Formal table -->
  <rect x="340" y="552" width="494" height="24" rx="2" fill="#1A5BA0"/>
  <text x="356" y="569" class="font" fill="#FFFFFF" font-size="10" font-weight="600">TRAITEMENT</text>
  <text x="590" y="569" class="font" fill="#FFFFFF" font-size="10" font-weight="600">BASE LEGALE</text>
  <rect x="340" y="576" width="494" height="24" fill="#F8F9FB" stroke="#DCE1EB" stroke-width="0.5"/>
  <text x="356" y="593" class="font" fill="#4A4A4A" font-size="10">Suivi du bilan de competences</text>
  <text x="590" y="593" class="font" fill="#4A4A4A" font-size="10">Execution du contrat (Art. 6.1.b)</text>
  <rect x="340" y="600" width="494" height="24" fill="#FFFFFF" stroke="#DCE1EB" stroke-width="0.5"/>
  <text x="356" y="617" class="font" fill="#4A4A4A" font-size="10">Envoi de notifications</text>
  <text x="590" y="617" class="font" fill="#4A4A4A" font-size="10">Interet legitime (Art. 6.1.f)</text>
  <rect x="340" y="624" width="494" height="24" fill="#F8F9FB" stroke="#DCE1EB" stroke-width="0.5"/>
  <text x="356" y="641" class="font" fill="#4A4A4A" font-size="10">Statistiques anonymisees</text>
  <text x="590" y="641" class="font" fill="#4A4A4A" font-size="10">Consentement (Art. 6.1.a)</text>

  <!-- Article 5 - Conservation -->
  <rect x="870" y="505" width="530" height="165" rx="4" fill="#FFFFFF" filter="url(#corpShadow)"/>
  <rect x="870" y="505" width="530" height="3" fill="#E5622E"/>
  <text x="890" y="532" class="font" fill="#1A5BA0" font-size="14" font-weight="700">ARTICLE 5 — DUREES DE CONSERVATION</text>
  <line x1="890" y1="542" x2="1380" y2="542" stroke="#DCE1EB" stroke-width="1"/>

  <rect x="890" y="552" width="494" height="24" rx="2" fill="#1A5BA0"/>
  <text x="906" y="569" class="font" fill="#FFFFFF" font-size="10" font-weight="600">CATEGORIE</text>
  <text x="1100" y="569" class="font" fill="#FFFFFF" font-size="10" font-weight="600">DUREE</text>
  <text x="1260" y="569" class="font" fill="#FFFFFF" font-size="10" font-weight="600">FONDEMENT</text>
  <rect x="890" y="576" width="494" height="24" fill="#F8F9FB" stroke="#DCE1EB" stroke-width="0.5"/>
  <text x="906" y="593" class="font" fill="#4A4A4A" font-size="10">Donnees du bilan</text>
  <text x="1100" y="593" class="font" fill="#4A4A4A" font-size="10">3 ans</text>
  <text x="1260" y="593" class="font" fill="#4A4A4A" font-size="10">Obligation legale</text>
  <rect x="890" y="600" width="494" height="24" fill="#FFFFFF" stroke="#DCE1EB" stroke-width="0.5"/>
  <text x="906" y="617" class="font" fill="#4A4A4A" font-size="10">Compte utilisateur</text>
  <text x="1100" y="617" class="font" fill="#4A4A4A" font-size="10">Contrat + 3 ans</text>
  <text x="1260" y="617" class="font" fill="#4A4A4A" font-size="10">Prescription civile</text>
  <rect x="890" y="624" width="494" height="24" fill="#F8F9FB" stroke="#DCE1EB" stroke-width="0.5"/>
  <text x="906" y="641" class="font" fill="#4A4A4A" font-size="10">Journaux d'audit</text>
  <text x="1100" y="641" class="font" fill="#4A4A4A" font-size="10">5 ans</text>
  <text x="1260" y="641" class="font" fill="#4A4A4A" font-size="10">Securite SI</text>

  <!-- Article 7 - Droits -->
  <rect x="320" y="684" width="1080" height="105" rx="4" fill="#FFFFFF" filter="url(#corpShadow)"/>
  <rect x="320" y="684" width="1080" height="3" fill="#1A5BA0"/>
  <text x="340" y="712" class="font" fill="#1A5BA0" font-size="14" font-weight="700">ARTICLE 7 — VOS DROITS</text>
  <line x1="340" y1="722" x2="1380" y2="722" stroke="#DCE1EB" stroke-width="1"/>
  <text x="340" y="742" class="font" fill="#4A4A4A" font-size="12">Conformement aux articles 15 a 22 du RGPD, vous disposez des droits suivants :</text>

  <!-- Rights as structured tags -->
  <rect x="340" y="754" width="78" height="22" rx="4" fill="#1A5BA0"/>
  <text x="354" y="770" class="font" fill="#FFFFFF" font-size="10" font-weight="500">Art. 15 Acces</text>
  <rect x="426" y="754" width="110" height="22" rx="4" fill="#1A5BA0"/>
  <text x="440" y="770" class="font" fill="#FFFFFF" font-size="10" font-weight="500">Art. 16 Rectification</text>
  <rect x="544" y="754" width="108" height="22" rx="4" fill="#1A5BA0"/>
  <text x="558" y="770" class="font" fill="#FFFFFF" font-size="10" font-weight="500">Art. 17 Effacement</text>
  <rect x="660" y="754" width="100" height="22" rx="4" fill="#E5622E"/>
  <text x="674" y="770" class="font" fill="#FFFFFF" font-size="10" font-weight="500">Art. 18 Limitation</text>
  <rect x="768" y="754" width="105" height="22" rx="4" fill="#E5622E"/>
  <text x="782" y="770" class="font" fill="#FFFFFF" font-size="10" font-weight="500">Art. 20 Portabilite</text>
  <rect x="881" y="754" width="105" height="22" rx="4" fill="#E5622E"/>
  <text x="895" y="770" class="font" fill="#FFFFFF" font-size="10" font-weight="500">Art. 21 Opposition</text>

  <!-- CNIL reference -->
  <rect x="320" y="802" width="1080" height="40" rx="4" fill="#FFFFFF" filter="url(#corpShadow)"/>
  <rect x="320" y="802" width="4" height="40" rx="2" fill="#E5622E"/>
  <text x="340" y="826" class="font" fill="#7A8A9A" font-size="11">Reclamation CNIL : Commission Nationale de l'Informatique et des Libertes — 3 Place de Fontenoy, TSA 80715, 75334 Paris Cedex 07 — www.cnil.fr</text>

  <!-- Footer -->
  <rect x="0" y="856" width="1440" height="44" fill="#1A2B3C"/>
  <text x="40" y="883" class="font" fill="#FFFFFF" font-size="11" opacity="0.6">© 2026 Link's Accompagnement — SAS au capital de 10 000 EUR — RCS Paris 912 345 678</text>
  <text x="1060" y="883" class="font" fill="#FFFFFF" font-size="11" opacity="0.6">Mentions legales</text>
  <text x="1190" y="883" class="font" fill="#FFFFFF" font-size="11" opacity="0.6">Cookies</text>
  <text x="1310" y="883" class="font" fill="#FFFFFF" font-size="11" opacity="0.6">Contact DPO</text>
</svg>