<!-- MAQ-06 | Comptes-rendus | Link's Accompagnement | v3.0 | corporate | 2026-03-26 -->
<svg xmlns="http://www.w3.org/2000/svg" viewBox="0 0 1440 900" width="1440" height="900" font-family="Inter, system-ui, sans-serif">
  <defs>
    <clipPath id="screen"><rect width="1440" height="900" rx="0"/></clipPath>
    <filter id="shadow1" x="-1%" y="-1%" width="102%" height="106%">
      <feDropShadow dx="0" dy="1" stdDeviation="2" flood-opacity="0.05"/>
    </filter>
    <filter id="shadow2" x="-1%" y="-1%" width="102%" height="108%">
      <feDropShadow dx="0" dy="1" stdDeviation="4" flood-opacity="0.07"/>
    </filter>
  </defs>
  <g clip-path="url(#screen)">
    <!-- Background -->
    <rect width="1440" height="900" fill="#F2F4F7"/>

    <!-- ==================== SIDEBAR (220px) ==================== -->
    <rect width="220" height="900" fill="#0D3B6E"/>
    <!-- Logo -->
    <polygon points="26,26 46,18 46,42 26,34" fill="#E5622E"/>
    <text x="54" y="30" fill="#FFFFFF" font-size="15" font-weight="700" letter-spacing="0.5">Link's</text>
    <text x="54" y="44" fill="#8AAFD0" font-size="10.5" letter-spacing="0.3">Accompagnement</text>
    <!-- Divider -->
    <line x1="16" y1="58" x2="204" y2="58" stroke="#163F6A" stroke-width="1"/>
    <!-- Nav items -->
    <!-- Dashboard -->
    <g opacity="0.6">
      <rect x="10" y="68" width="200" height="38" rx="4" fill="transparent"/>
      <rect x="26" y="79" width="15" height="15" rx="2" fill="none" stroke="#8AAFD0" stroke-width="1.5"/>
      <rect x="29" y="82" width="4" height="4" rx="0.5" fill="#8AAFD0"/>
      <rect x="35" y="82" width="4" height="4" rx="0.5" fill="#8AAFD0"/>
      <rect x="29" y="88" width="4" height="4" rx="0.5" fill="#8AAFD0"/>
      <rect x="35" y="88" width="4" height="4" rx="0.5" fill="#8AAFD0"/>
      <text x="52" y="91" fill="#8AAFD0" font-size="12.5">Dashboard</text>
    </g>
    <!-- Mes bénéficiaires (active) -->
    <g>
      <rect x="10" y="108" width="200" height="38" rx="4" fill="rgba(255,255,255,0.12)"/>
      <rect x="4" y="117" width="3" height="20" rx="1" fill="#E5622E"/>
      <circle cx="34" cy="127" r="7.5" fill="none" stroke="#FFFFFF" stroke-width="1.5"/>
      <circle cx="34" cy="124.5" r="2.5" fill="none" stroke="#FFFFFF" stroke-width="1.2"/>
      <path d="M28.5,132 Q34,135.5 39.5,132" fill="none" stroke="#FFFFFF" stroke-width="1.2"/>
      <text x="52" y="131" fill="#FFFFFF" font-size="12.5" font-weight="600">Mes bénéficiaires</text>
    </g>
    <!-- Agenda -->
    <g opacity="0.6">
      <rect x="10" y="148" width="200" height="38" rx="4" fill="transparent"/>
      <rect x="26" y="159" width="15" height="15" rx="2" fill="none" stroke="#8AAFD0" stroke-width="1.5"/>
      <line x1="30" y1="157" x2="30" y2="161" stroke="#8AAFD0" stroke-width="1.5"/>
      <line x1="38" y1="157" x2="38" y2="161" stroke="#8AAFD0" stroke-width="1.5"/>
      <line x1="26" y1="165" x2="41" y2="165" stroke="#8AAFD0" stroke-width="0.8"/>
      <text x="52" y="171" fill="#8AAFD0" font-size="12.5">Agenda</text>
    </g>
    <!-- Documents -->
    <g opacity="0.6">
      <rect x="10" y="188" width="200" height="38" rx="4" fill="transparent"/>
      <rect x="28" y="199" width="12" height="15" rx="1.5" fill="none" stroke="#8AAFD0" stroke-width="1.5"/>
      <text x="52" y="211" fill="#8AAFD0" font-size="12.5">Documents</text>
    </g>
    <!-- Rapports -->
    <g opacity="0.6">
      <rect x="10" y="228" width="200" height="38" rx="4" fill="transparent"/>
      <rect x="26" y="239" width="15" height="15" rx="2" fill="none" stroke="#8AAFD0" stroke-width="1.5"/>
      <line x1="30" y1="245" x2="38" y2="245" stroke="#8AAFD0" stroke-width="1"/>
      <line x1="30" y1="249" x2="36" y2="249" stroke="#8AAFD0" stroke-width="1"/>
      <text x="52" y="251" fill="#8AAFD0" font-size="12.5">Rapports</text>
    </g>
    <!-- Profil -->
    <g opacity="0.6">
      <rect x="10" y="268" width="200" height="38" rx="4" fill="transparent"/>
      <circle cx="34" cy="287" r="7.5" fill="none" stroke="#8AAFD0" stroke-width="1.5"/>
      <circle cx="34" cy="284.5" r="2.5" fill="none" stroke="#8AAFD0" stroke-width="1.2"/>
      <text x="52" y="291" fill="#8AAFD0" font-size="12.5">Profil</text>
    </g>

    <!-- ==================== HEADER ==================== -->
    <rect x="220" y="0" width="1220" height="56" fill="#FFFFFF" filter="url(#shadow1)"/>
    <line x1="220" y1="56" x2="1440" y2="56" stroke="#E2E5EA" stroke-width="1"/>
    <!-- Breadcrumb -->
    <text x="244" y="33" fill="#5A6370" font-size="12">Mes bénéficiaires</text>
    <text x="355" y="33" fill="#A0A7B2" font-size="12">/</text>
    <text x="365" y="33" fill="#5A6370" font-size="12">Marie Dupont</text>
    <text x="454" y="33" fill="#A0A7B2" font-size="12">/</text>
    <text x="464" y="33" fill="#1A5BA0" font-size="12" font-weight="600">Comptes-rendus</text>
    <!-- User info -->
    <rect x="1336" y="14" width="28" height="28" rx="4" fill="#E8EFF8"/>
    <text x="1342" y="33" fill="#1A5BA0" font-size="10" font-weight="700">CL</text>
    <text x="1258" y="25" fill="#2D3440" font-size="11.5" font-weight="500" text-anchor="end">Claire Laurent</text>
    <text x="1258" y="39" fill="#8A93A0" font-size="10.5" text-anchor="end">Consultante</text>
    <text x="1400" y="33" fill="#8A93A0" font-size="11" cursor="pointer">↗</text>

    <!-- ==================== PROFILE MINI-BAR ==================== -->
    <rect x="244" y="68" width="1172" height="52" rx="5" fill="#FFFFFF" filter="url(#shadow1)"/>
    <line x1="244" y1="120" x2="1416" y2="120" stroke="#E2E5EA" stroke-width="0"/>
    <!-- Avatar -->
    <rect x="258" y="78" width="32" height="32" rx="4" fill="#1A5BA0"/>
    <text x="267" y="99" fill="#FFFFFF" font-size="12" font-weight="600">MD</text>
    <!-- Name -->
    <text x="300" y="91" fill="#1A1F28" font-size="14" font-weight="700">Marie Dupont</text>
    <text x="300" y="107" fill="#5A6370" font-size="11">2/6 phases complétées</text>
    <!-- Progress -->
    <rect x="436" y="91" width="90" height="5" rx="2.5" fill="#E2E5EA"/>
    <rect x="436" y="91" width="30" height="5" rx="2.5" fill="#1A5BA0"/>
    <!-- Tab nav -->
    <text x="760" y="98" fill="#5A6370" font-size="12" cursor="pointer">Parcours</text>
    <text x="840" y="98" fill="#1A5BA0" font-size="12" font-weight="700" cursor="pointer">Comptes-rendus</text>
    <rect x="838" y="110" width="106" height="2" rx="1" fill="#1A5BA0"/>
    <text x="966" y="98" fill="#5A6370" font-size="12" cursor="pointer">Planification</text>
    <text x="1060" y="98" fill="#5A6370" font-size="12" cursor="pointer">Documents</text>

    <!-- ==================== LEFT COLUMN (60%) — Session Notes Form ==================== -->
    <rect x="244" y="132" width="692" height="756" rx="5" fill="#FFFFFF" filter="url(#shadow2)"/>
    <rect x="244" y="132" width="692" height="36" rx="5" fill="#F8F9FB"/>
    <rect x="244" y="158" width="692" height="10" fill="#F8F9FB"/>
    <line x1="244" y1="168" x2="936" y2="168" stroke="#E2E5EA" stroke-width="1"/>

    <!-- Session selector in header bar -->
    <text x="260" y="155" fill="#1A1F28" font-size="12" font-weight="600">Séances :</text>
    <g>
      <rect x="326" y="140" width="68" height="24" rx="4" fill="#FFFFFF" stroke="#D1D6DE" stroke-width="1"/>
      <text x="346" y="156" fill="#5A6370" font-size="11" text-anchor="middle">S.1</text>

      <rect x="400" y="140" width="68" height="24" rx="4" fill="#1A5BA0"/>
      <text x="420" y="156" fill="#FFFFFF" font-size="11" font-weight="700" text-anchor="middle">S.2</text>

      <rect x="474" y="140" width="68" height="24" rx="4" fill="#F2F4F7" stroke="#E2E5EA" stroke-width="1" opacity="0.6"/>
      <text x="494" y="156" fill="#B8BEC8" font-size="11" text-anchor="middle">S.3</text>

      <rect x="548" y="140" width="68" height="24" rx="4" fill="#F2F4F7" stroke="#E2E5EA" stroke-width="1" opacity="0.6"/>
      <text x="568" y="156" fill="#B8BEC8" font-size="11" text-anchor="middle">S.4</text>

      <rect x="622" y="140" width="68" height="24" rx="4" fill="#F2F4F7" stroke="#E2E5EA" stroke-width="1" opacity="0.6"/>
      <text x="642" y="156" fill="#B8BEC8" font-size="11" text-anchor="middle">S.5</text>

      <rect x="696" y="140" width="68" height="24" rx="4" fill="#F2F4F7" stroke="#E2E5EA" stroke-width="1" opacity="0.6"/>
      <text x="716" y="156" fill="#B8BEC8" font-size="11" text-anchor="middle">S.6</text>
    </g>

    <!-- Session info -->
    <text x="260" y="194" fill="#1A1F28" font-size="15" font-weight="700">Séance 2 — Investigation phase 1</text>
    <text x="564" y="194" fill="#8A93A0" font-size="11">29/04/2026</text>
    <line x1="260" y1="204" x2="920" y2="204" stroke="#F0F1F4" stroke-width="1"/>

    <!-- Field 1: Objectifs de la séance -->
    <text x="260" y="226" fill="#2D3440" font-size="11" font-weight="700" text-transform="uppercase" letter-spacing="0.5">OBJECTIFS DE LA SÉANCE</text>
    <rect x="260" y="234" width="656" height="62" rx="4" fill="#FFFFFF" stroke="#D1D6DE" stroke-width="1"/>
    <text x="272" y="252" fill="#2D3440" font-size="12">Explorer les compétences clés identifiées lors de la phase 1</text>
    <text x="272" y="268" fill="#2D3440" font-size="12">et commencer à évaluer les pistes de reconversion</text>
    <text x="272" y="284" fill="#2D3440" font-size="12">professionnelle envisageables.</text>

    <!-- Field 2: Contenu de la séance -->
    <text x="260" y="316" fill="#2D3440" font-size="11" font-weight="700" letter-spacing="0.5">CONTENU DE LA SÉANCE</text>
    <rect x="260" y="324" width="656" height="100" rx="4" fill="#FFFFFF" stroke="#D1D6DE" stroke-width="1"/>
    <text x="272" y="342" fill="#2D3440" font-size="12">Travail sur les compétences transférables à partir du parcours</text>
    <text x="272" y="358" fill="#2D3440" font-size="12">professionnel de la bénéficiaire. Identification de 3 domaines</text>
    <text x="272" y="374" fill="#2D3440" font-size="12">d'intérêt majeurs : gestion de projet, communication digitale,</text>
    <text x="272" y="390" fill="#2D3440" font-size="12">et formation professionnelle. Exercice de priorisation des</text>
    <text x="272" y="406" fill="#2D3440" font-size="12">compétences clés réalisé avec succès.</text>

    <!-- Field 3: Observations -->
    <text x="260" y="444" fill="#2D3440" font-size="11" font-weight="700" letter-spacing="0.5">OBSERVATIONS</text>
    <rect x="260" y="452" width="656" height="62" rx="4" fill="#FFFFFF" stroke="#D1D6DE" stroke-width="1"/>
    <text x="272" y="470" fill="#2D3440" font-size="12">La bénéficiaire montre un fort intérêt pour les métiers</text>
    <text x="272" y="486" fill="#2D3440" font-size="12">de la communication. Motivation élevée, bonne implication.</text>
    <text x="272" y="502" fill="#B8BEC8" font-size="12">|</text>

    <!-- Field 4: Actions à mener -->
    <text x="260" y="534" fill="#2D3440" font-size="11" font-weight="700" letter-spacing="0.5">ACTIONS À MENER</text>
    <rect x="260" y="542" width="656" height="44" rx="4" fill="#FFFFFF" stroke="#D1D6DE" stroke-width="1"/>
    <text x="272" y="560" fill="#2D3440" font-size="12">Compléter le questionnaire de phase 2 avant le 15/05.</text>
    <text x="272" y="576" fill="#2D3440" font-size="12">Préparer une liste de 5 métiers cibles pour la prochaine séance.</text>

    <!-- Autosave indicator -->
    <text x="260" y="612" fill="#22863A" font-size="10.5">✓ Sauvegardé il y a 1 min</text>

    <!-- Buttons -->
    <rect x="260" y="626" width="110" height="34" rx="4" fill="#FFFFFF" stroke="#D1D6DE" stroke-width="1"/>
    <text x="294" y="647" fill="#2D3440" font-size="12" text-anchor="middle">Enregistrer</text>

    <rect x="380" y="626" width="130" height="34" rx="4" fill="#1A5BA0"/>
    <text x="426" y="647" fill="#FFFFFF" font-size="12" text-anchor="middle">↓ Exporter PDF</text>

    <!-- Confidentiality notice -->
    <rect x="260" y="676" width="656" height="36" rx="4" fill="#F0F4FA" stroke="#D6E0ED" stroke-width="1"/>
    <text x="280" y="698" fill="#5A6370" font-size="10.5">🔒 Ces comptes-rendus sont confidentiels et ne sont pas visibles par le bénéficiaire.</text>

    <!-- ==================== RIGHT COLUMN (40%) — Previous Sessions ==================== -->
    <rect x="956" y="132" width="460" height="756" rx="5" fill="#FFFFFF" filter="url(#shadow2)"/>
    <rect x="956" y="132" width="460" height="36" rx="5" fill="#F8F9FB"/>
    <rect x="956" y="158" width="460" height="10" fill="#F8F9FB"/>
    <line x1="956" y1="168" x2="1416" y2="168" stroke="#E2E5EA" stroke-width="1"/>
    <text x="976" y="155" fill="#1A1F28" font-size="12" font-weight="700" letter-spacing="0.3">HISTORIQUE DES SÉANCES</text>

    <!-- Séance 1 card -->
    <rect x="972" y="180" width="428" height="72" rx="4" fill="#FFFFFF" stroke="#D1D6DE" stroke-width="1"/>
    <g>
      <rect x="984" y="194" width="22" height="22" rx="4" fill="#ECFDF5"/>
      <text x="989" y="209" fill="#22863A" font-size="12">✓</text>
    </g>
    <text x="1016" y="200" fill="#1A1F28" font-size="12" font-weight="600">Séance 1 — Entretien préliminaire</text>
    <text x="1016" y="216" fill="#5A6370" font-size="10.5">15/04/2026</text>
    <text x="1016" y="232" fill="#8A93A0" font-size="10.5">Rédigé le 16/04/2026</text>
    <rect x="1328" y="196" width="56" height="20" rx="4" fill="#ECFDF5"/>
    <text x="1342" y="210" fill="#22863A" font-size="9.5" font-weight="600">Rédigé</text>
    <text x="1390" y="210" fill="#B8BEC8" font-size="12">▸</text>

    <!-- Séance 2 card (active) -->
    <rect x="972" y="262" width="428" height="72" rx="4" fill="#F0F4FA" stroke="#1A5BA0" stroke-width="1.5"/>
    <g>
      <rect x="984" y="276" width="22" height="22" rx="4" fill="#DBEAFE"/>
      <text x="989" y="291" fill="#1A5BA0" font-size="12" font-weight="700">✎</text>
    </g>
    <text x="1016" y="282" fill="#1A1F28" font-size="12" font-weight="600">Séance 2 — Investigation phase 1</text>
    <text x="1016" y="298" fill="#5A6370" font-size="10.5">29/04/2026</text>
    <text x="1016" y="314" fill="#1A5BA0" font-size="10.5" font-weight="500">En cours de rédaction</text>
    <rect x="1328" y="278" width="64" height="20" rx="4" fill="#FFF7ED"/>
    <text x="1340" y="292" fill="#E5622E" font-size="9.5" font-weight="600">En cours</text>

    <!-- Séance 3 (to do) -->
    <rect x="972" y="344" width="428" height="60" rx="4" fill="#FFFFFF" stroke="#D1D6DE" stroke-width="1"/>
    <g>
      <rect x="984" y="358" width="22" height="22" rx="4" fill="#FFF7ED"/>
      <text x="991" y="373" fill="#E5622E" font-size="11">!</text>
    </g>
    <text x="1016" y="370" fill="#2D3440" font-size="12" font-weight="500">Séance 3 — Investigation phase 2</text>
    <text x="1016" y="386" fill="#8A93A0" font-size="10.5">Prévue le 13/05/2026</text>
    <rect x="1328" y="362" width="68" height="20" rx="4" fill="#FFF7ED"/>
    <text x="1340" y="376" fill="#E5622E" font-size="9.5" font-weight="500">À rédiger</text>

    <!-- Séance 4 -->
    <rect x="972" y="414" width="428" height="52" rx="4" fill="#F8F9FB" stroke="#E8EBF0" stroke-width="1"/>
    <g>
      <rect x="984" y="426" width="22" height="22" rx="4" fill="#ECEEF2"/>
      <text x="991" y="441" fill="#B8BEC8" font-size="11">—</text>
    </g>
    <text x="1016" y="438" fill="#8A93A0" font-size="12">Séance 4 — Conclusion phase 1</text>
    <text x="1016" y="454" fill="#B8BEC8" font-size="10.5">Non planifiée</text>
    <rect x="1328" y="430" width="72" height="20" rx="4" fill="#ECEEF2"/>
    <text x="1340" y="444" fill="#8A93A0" font-size="9.5">Non planifié</text>

    <!-- Séance 5 -->
    <rect x="972" y="476" width="428" height="52" rx="4" fill="#F8F9FB" stroke="#E8EBF0" stroke-width="1"/>
    <g>
      <rect x="984" y="488" width="22" height="22" rx="4" fill="#ECEEF2"/>
      <text x="991" y="503" fill="#B8BEC8" font-size="11">—</text>
    </g>
    <text x="1016" y="500" fill="#8A93A0" font-size="12">Séance 5 — Conclusion phase 2</text>
    <text x="1016" y="516" fill="#B8BEC8" font-size="10.5">Non planifiée</text>
    <rect x="1328" y="492" width="72" height="20" rx="4" fill="#ECEEF2"/>
    <text x="1340" y="506" fill="#8A93A0" font-size="9.5">Non planifié</text>

    <!-- Séance 6 -->
    <rect x="972" y="538" width="428" height="52" rx="4" fill="#F8F9FB" stroke="#E8EBF0" stroke-width="1"/>
    <g>
      <rect x="984" y="550" width="22" height="22" rx="4" fill="#ECEEF2"/>
      <text x="991" y="565" fill="#B8BEC8" font-size="11">—</text>
    </g>
    <text x="1016" y="562" fill="#8A93A0" font-size="12">Séance 6 — Synthèse finale</text>
    <text x="1016" y="578" fill="#B8BEC8" font-size="10.5">Non planifiée</text>
    <rect x="1328" y="554" width="72" height="20" rx="4" fill="#ECEEF2"/>
    <text x="1340" y="568" fill="#8A93A0" font-size="9.5">Non planifié</text>

    <!-- Legend -->
    <g transform="translate(972, 606)">
      <text x="0" y="12" fill="#5A6370" font-size="10" font-weight="600" letter-spacing="0.3">LÉGENDE</text>
      <rect x="0" y="22" width="12" height="12" rx="2" fill="#ECFDF5" stroke="#22863A" stroke-width="0.8"/>
      <text x="18" y="32" fill="#5A6370" font-size="10">Rédigé</text>
      <rect x="80" y="22" width="12" height="12" rx="2" fill="#FFF7ED" stroke="#E5622E" stroke-width="0.8"/>
      <text x="98" y="32" fill="#5A6370" font-size="10">À rédiger</text>
      <rect x="168" y="22" width="12" height="12" rx="2" fill="#ECEEF2" stroke="#C4C9D4" stroke-width="0.8"/>
      <text x="186" y="32" fill="#5A6370" font-size="10">Non planifié</text>
    </g>
  </g>
</svg>